{"glyphs":{"0":{"ha":707,"x_min":75,"x_max":632,"o":"m 75 243 q 97 359 75 302 q 158 460 119 416 q 254 529 197 503 q 370 555 311 555 q 477 537 430 555 q 558 487 524 519 q 632 304 632 417 q 511 50 632 148 q 332 -13 433 -13 q 151 56 224 -13 q 75 243 75 127 m 490 453 q 365 497 438 497 q 200 432 260 497 q 140 270 140 367 q 198 110 140 173 q 347 47 255 47 q 503 111 438 47 q 567 280 567 174 q 490 453 567 386 z "},"1":{"ha":454,"x_min":52,"x_max":403,"o":"m 52 0 l 53 43 q 164 49 150 43 q 182 86 178 55 l 213 358 q 218 436 218 417 q 215 462 218 455 q 207 473 212 469 q 191 479 202 477 q 143 482 175 482 l 95 482 l 100 524 l 233 524 q 290 541 276 524 q 301 564 295 548 l 327 564 q 274 80 274 94 q 276 59 274 65 q 283 50 279 54 q 295 45 287 47 q 329 43 306 43 l 403 43 l 401 0 l 52 0 z "},"2":{"ha":650,"x_min":52,"x_max":598,"o":"m 515 102 q 530 107 515 102 q 564 119 545 112 q 591 126 584 126 q 598 116 598 126 q 583 60 598 106 q 564 10 568 14 q 558 4 559 5 q 503 0 551 0 l 70 0 q 52 11 52 0 q 95 46 52 20 q 172 95 138 73 q 242 143 206 118 q 311 196 277 167 q 372 255 345 226 q 431 372 431 319 q 396 458 431 425 q 319 492 362 492 q 251 483 277 492 q 209 461 225 474 q 182 436 194 449 q 147 406 155 406 q 135 421 135 406 q 147 454 136 436 q 179 491 158 473 q 228 523 200 509 q 291 547 255 538 q 365 555 327 555 q 435 545 404 555 q 487 518 467 534 q 520 481 506 501 q 545 411 545 443 q 533 349 545 378 q 502 295 520 320 q 454 244 483 270 q 398 198 426 218 q 336 155 371 177 q 249 103 292 127 q 194 72 207 79 q 195 57 168 58 q 254 57 214 57 q 351 64 294 57 q 447 81 408 71 q 515 102 486 92 z "},"3":{"ha":591,"x_min":8,"x_max":540,"o":"m 525 406 q 362 161 525 253 q 530 37 493 137 q 540 -30 540 9 q 527 -110 540 -69 q 492 -181 514 -150 q 439 -238 470 -212 q 375 -281 409 -263 q 304 -310 341 -298 q 188 -333 233 -333 q 115 -329 142 -333 q 65 -319 89 -326 q 8 -281 8 -303 q 29 -258 8 -258 q 48 -264 32 -258 q 143 -280 96 -280 q 222 -273 191 -280 q 281 -253 252 -266 q 337 -218 311 -239 q 383 -170 363 -197 q 426 -33 426 -113 q 311 110 426 88 q 284 113 299 112 q 261 116 268 115 q 249 128 249 119 q 256 143 249 137 q 277 153 263 148 q 305 164 290 158 q 375 218 344 180 q 426 351 426 280 q 406 430 426 400 q 317 483 368 483 q 174 433 236 483 q 138 422 146 409 q 174 491 124 445 q 362 560 250 560 q 480 518 436 560 q 525 406 525 477 z "},"4":{"ha":811,"x_min":52,"x_max":760,"o":"m 610 549 q 632 564 625 564 q 639 552 639 564 l 639 531 l 607 86 l 760 86 l 730 0 l 602 0 l 579 -323 l 480 -365 l 506 0 l 70 0 q 52 7 52 0 q 65 25 52 14 l 610 549 m 190 86 l 511 86 l 536 421 l 190 86 z "},"5":{"ha":718,"x_min":24,"x_max":657,"o":"m 257 536 l 419 535 q 574 540 516 535 q 610 567 595 542 q 617 581 614 574 q 621 589 621 588 l 657 579 q 628 490 649 544 q 594 437 606 437 q 437 451 562 437 q 307 464 311 464 q 283 444 291 464 q 262 376 276 424 q 249 307 249 327 q 255 281 249 287 q 280 275 262 275 l 300 275 q 539 176 451 275 q 603 -10 603 105 q 512 -231 603 -131 q 250 -335 418 -335 q 53 -277 119 -335 q 24 -237 24 -252 q 44 -214 24 -214 q 70 -224 56 -214 q 197 -270 131 -270 q 315 -248 263 -270 q 403 -191 366 -227 q 482 10 482 -111 q 407 177 482 121 q 254 225 343 225 l 210 223 q 192 240 192 223 q 196 283 192 256 q 208 343 201 309 q 223 428 215 378 q 232 481 232 477 q 233 491 233 484 q 235 502 234 498 q 236 511 235 506 q 238 519 237 516 q 248 535 243 534 q 257 536 254 536 z "},"6":{"ha":697,"x_min":75,"x_max":621,"o":"m 75 345 q 87 472 75 409 q 122 592 100 536 q 176 696 145 647 q 245 784 207 746 q 326 850 284 823 q 507 908 413 908 q 561 900 529 908 q 621 863 621 883 q 614 850 621 855 q 602 846 607 846 q 575 852 597 846 q 533 858 553 858 q 399 822 460 858 q 239 641 293 763 q 180 435 194 542 q 179 432 180 433 q 179 429 179 430 q 342 549 238 525 q 397 555 367 555 q 459 547 427 555 q 513 526 490 539 q 553 494 535 513 q 583 454 571 475 q 602 410 594 434 q 615 314 615 368 q 600 205 615 260 q 557 111 584 151 q 495 42 531 71 q 337 -15 425 -15 q 117 130 186 -15 q 75 345 75 218 m 256 460 q 238 448 256 460 q 200 394 219 435 q 180 300 180 352 q 196 197 180 248 q 238 112 212 147 q 357 35 294 35 q 463 101 420 35 q 506 269 506 166 q 459 428 506 372 q 339 485 413 485 q 256 460 293 485 z "},"7":{"ha":643,"x_min":38,"x_max":564,"o":"z "},"8":{"ha":654,"x_min":75,"x_max":579,"o":"z "},"9":{"ha":700,"x_min":75,"x_max":625,"o":"m 87 -310 q 110 -290 87 -290 q 134 -294 110 -290 q 193 -299 158 -299 q 269 -283 229 -299 q 341 -241 309 -268 q 401 -179 373 -215 q 450 -104 429 -144 q 487 -23 471 -65 q 522 131 517 58 q 455 45 503 87 q 308 -10 391 -10 q 111 106 172 -10 q 75 244 75 174 q 98 371 75 314 q 159 468 121 428 q 354 555 242 555 q 582 413 508 555 q 625 242 625 331 q 610 83 625 153 q 569 -50 595 13 q 503 -167 542 -113 q 418 -260 465 -221 q 199 -343 319 -343 q 91 -318 112 -343 q 87 -310 87 -314 m 195 383 q 190 370 195 383 q 179 328 184 356 q 174 280 174 300 q 175 243 174 259 q 182 205 177 227 q 195 165 186 184 q 218 126 203 146 q 252 93 233 106 q 367 61 297 61 q 471 121 425 61 q 519 285 519 183 q 442 485 519 420 q 367 515 405 515 q 303 505 329 515 q 257 476 277 494 q 221 434 237 458 q 195 383 205 410 z "}," ":{"ha":257,"x_min":0,"x_max":0,"o":""},"!":{"ha":396,"x_min":139,"x_max":315,"o":"m 193 -13 q 185 -13 193 -13 q 158 13 177 -13 q 139 55 139 39 q 162 95 139 72 q 201 118 185 118 q 237 94 217 118 q 257 54 257 70 q 233 13 257 39 q 193 -13 209 -13 m 188 260 q 193 365 188 267 q 207 821 207 654 q 220 850 207 840 q 266 872 237 862 q 303 883 295 883 q 315 871 315 883 q 313 840 315 858 q 305 778 311 821 q 290 682 298 735 q 235 303 240 352 q 228 246 230 253 q 226 235 227 239 q 222 227 224 231 q 208 221 218 221 q 188 260 188 221 z "},"\"":{"ha":461,"x_min":33,"x_max":372,"o":"m 47 664 q 40 664 47 664 q 33 678 33 664 q 57 814 33 692 q 90 967 82 936 q 114 1009 98 998 q 151 1019 130 1019 q 185 1005 172 1019 q 199 975 199 990 q 185 928 199 960 q 146 846 171 897 q 111 774 120 795 q 93 733 101 753 q 80 703 85 713 q 71 683 76 693 q 47 664 60 664 m 179 665 q 164 682 164 665 q 189 764 164 708 q 228 856 215 820 q 249 918 240 893 q 268 968 257 944 q 328 1018 290 1018 q 362 1007 351 1018 q 372 986 372 997 q 369 962 372 975 q 357 933 365 950 q 341 903 349 917 q 320 868 333 889 q 299 834 307 847 q 276 800 290 822 q 253 765 261 778 q 232 732 244 752 q 215 702 221 713 q 202 682 209 692 q 179 665 191 665 z "},"#":{"ha":593,"x_min":33,"x_max":560,"o":"m 33 357 l 33 404 l 170 404 l 199 508 l 35 508 l 35 555 l 213 555 l 322 954 l 379 954 l 268 555 l 383 555 l 494 954 l 550 954 l 439 555 l 560 555 l 560 508 l 426 508 l 397 404 l 558 404 l 558 357 l 383 357 l 264 -68 l 208 -68 l 328 357 l 213 357 l 96 -68 l 39 -68 l 157 357 l 33 357 m 227 404 l 340 404 l 370 508 l 256 508 l 227 404 z "},"$":{"ha":661,"x_min":56,"x_max":606,"o":"m 590 710 l 592 664 q 582 651 592 651 q 562 662 569 651 q 550 680 555 673 q 538 700 546 688 q 510 728 530 712 q 471 752 490 744 q 397 772 431 769 l 376 458 q 488 395 461 412 q 581 309 556 351 q 606 214 606 267 q 585 118 606 162 q 529 47 565 75 q 342 -11 456 -7 l 325 -228 l 285 -228 l 300 -11 q 83 35 155 -3 q 65 58 67 43 q 63 76 63 72 q 62 91 63 81 q 61 112 61 101 q 59 139 60 122 q 57 166 58 155 q 56 179 56 177 q 75 200 57 200 q 92 176 83 200 q 110 133 101 152 q 134 97 118 115 q 170 64 149 79 q 304 31 218 31 l 327 379 q 286 405 312 389 q 243 433 260 421 q 203 460 226 444 q 166 492 181 477 q 137 526 151 508 q 110 604 110 563 q 118 671 110 644 q 141 716 127 697 q 175 751 156 735 q 214 775 193 766 q 255 792 235 785 q 295 802 276 799 q 351 810 335 809 l 360 810 l 367 920 l 407 920 l 400 810 q 517 792 507 796 q 535 786 531 786 l 576 796 q 588 781 587 796 q 588 758 588 765 q 590 710 589 732 m 210 696 q 203 657 203 677 q 207 619 203 636 q 220 588 212 602 q 237 560 227 574 q 258 536 247 547 q 280 517 269 526 q 302 501 292 508 q 336 480 318 490 l 357 772 l 353 772 q 210 696 239 772 m 345 32 q 504 113 467 38 q 517 171 517 140 q 509 226 517 202 q 487 269 500 251 q 458 303 474 287 q 427 329 442 318 q 368 362 396 350 l 345 32 z "},"%":{"ha":1084,"x_min":61,"x_max":1024,"o":"m 85 -56 q 61 -47 61 -56 q 74 -25 61 -39 l 908 865 q 611 801 780 801 q 511 810 583 801 q 537 710 537 768 q 513 599 537 652 q 449 508 488 546 q 357 448 409 470 q 259 425 306 425 q 181 438 212 425 q 130 474 149 451 q 90 578 90 520 q 109 681 90 636 q 159 759 128 726 q 229 818 190 793 q 383 869 307 869 q 446 862 415 869 q 591 847 503 847 q 753 860 680 847 q 874 886 827 872 q 962 913 922 901 q 1013 925 1001 925 q 1024 918 1024 925 q 999 879 1024 907 l 128 -56 l 85 -56 m 212 687 q 198 670 212 687 q 167 616 184 653 q 150 551 150 580 q 168 502 150 522 q 221 482 185 482 q 295 501 257 482 q 364 550 333 520 q 419 616 394 581 q 471 753 471 691 q 452 797 471 780 q 404 814 432 814 q 341 796 376 814 q 273 750 306 779 q 212 687 240 721 m 541 86 q 531 156 531 116 q 550 242 531 197 q 600 321 569 287 q 669 380 630 354 q 824 431 747 431 q 932 393 890 431 q 978 268 978 352 q 954 159 978 212 q 890 68 929 105 q 694 -15 803 -15 q 541 86 576 -15 m 635 225 q 625 210 635 225 q 603 166 615 196 q 590 110 590 137 q 609 62 590 83 q 663 42 627 42 q 737 61 699 42 q 805 111 775 80 q 861 177 836 141 q 912 314 912 253 q 892 358 912 341 q 846 375 872 375 q 792 362 820 375 q 736 329 764 350 q 682 281 708 308 q 635 225 655 253 z "},"&":{"ha":1198,"x_min":62,"x_max":1178,"o":"m 1050 700 q 1094 725 1050 725 q 1158 701 1139 725 q 1178 633 1178 677 q 1160 517 1178 557 q 981 432 1123 432 l 971 432 q 938 388 942 432 q 794 82 913 184 q 474 -21 674 -21 q 75 173 133 -21 q 62 264 62 217 q 72 349 62 312 q 96 413 81 386 q 132 464 112 440 q 174 503 152 487 q 218 532 196 519 q 260 553 240 545 q 329 574 297 567 q 275 606 299 583 q 242 644 251 630 q 221 713 221 676 q 233 782 221 750 q 271 845 245 814 q 334 899 297 875 q 539 950 414 950 q 701 912 635 950 q 771 793 771 871 q 718 693 771 725 q 653 675 688 675 q 589 690 618 675 q 560 720 560 704 q 568 738 560 735 q 586 730 575 740 q 621 720 596 720 q 664 742 645 720 q 682 790 682 765 q 673 835 682 816 q 647 871 664 854 q 526 907 608 907 q 371 823 428 907 q 340 736 340 778 q 351 665 340 693 q 382 620 362 636 q 470 588 418 589 q 521 571 521 588 q 470 548 521 550 q 368 527 419 546 q 286 479 318 508 q 233 416 254 451 q 193 280 193 350 q 252 132 193 196 q 507 53 327 53 q 847 263 778 53 q 868 406 868 329 q 863 432 868 425 q 755 449 853 449 q 701 445 733 449 q 643 411 670 440 q 615 355 615 382 q 630 309 615 327 q 661 292 644 292 q 690 296 678 292 q 705 301 702 300 q 711 298 707 301 q 714 289 714 295 q 697 270 714 278 q 665 261 680 261 q 588 294 615 261 q 560 366 560 326 q 572 436 560 406 q 608 492 585 467 q 744 546 658 546 q 856 540 780 546 q 989 535 932 535 q 1087 566 1047 535 q 1126 640 1126 597 q 1115 677 1126 665 q 1087 689 1104 689 l 1065 686 q 1050 700 1050 686 z "},"'":{"ha":311,"x_min":33,"x_max":222,"o":"m 50 660 q 33 678 33 660 q 54 753 33 696 q 82 837 74 810 q 95 885 90 865 q 106 928 100 906 q 119 966 112 950 q 134 994 125 981 q 176 1019 151 1019 q 212 1004 201 1019 q 222 971 222 988 q 206 920 222 954 q 160 836 191 887 q 121 768 130 784 q 104 736 113 752 q 92 711 96 720 q 82 692 87 701 q 73 677 77 682 q 66 667 70 672 q 50 660 60 660 z "},"(":{"ha":435,"x_min":62,"x_max":413,"o":"m 62 333 q 81 493 62 409 q 127 638 99 576 q 191 754 156 700 q 261 843 227 807 q 372 941 335 918 l 390 953 l 413 926 q 366 882 397 915 q 311 816 335 849 q 257 730 287 783 q 206 619 228 676 q 156 323 156 484 q 204 22 156 153 q 303 -173 250 -104 q 385 -267 357 -244 l 399 -278 l 374 -307 q 244 -172 318 -265 q 62 333 62 58 z "},")":{"ha":435,"x_min":24,"x_max":374,"o":"m 24 926 l 46 953 q 182 834 108 917 q 362 456 325 676 q 374 315 374 389 q 357 164 374 240 q 312 27 339 87 q 251 -87 284 -33 q 185 -181 218 -142 q 79 -293 114 -264 l 62 -307 l 39 -278 q 180 -99 114 -219 q 280 323 280 84 q 214 659 280 499 q 147 785 184 731 q 90 860 110 838 q 24 926 52 903 z "},"*":{"ha":632,"x_min":61,"x_max":571,"o":"m 392 542 q 382 551 392 542 q 359 573 373 560 q 339 586 345 586 q 333 569 333 586 q 352 491 333 552 q 371 410 371 430 q 354 372 371 389 q 314 356 337 356 q 273 372 292 356 q 254 407 254 388 q 274 499 254 427 q 294 581 294 572 q 290 589 294 589 q 272 576 287 589 q 238 545 257 563 q 197 508 218 526 q 117 464 145 464 q 74 481 88 464 q 61 517 61 498 q 83 553 61 536 q 135 580 104 569 q 197 598 166 590 q 271 626 271 617 q 249 642 271 636 q 197 654 228 649 q 136 668 167 660 q 62 736 62 688 q 103 789 62 774 q 122 792 112 792 q 160 773 133 792 q 213 730 188 753 q 294 669 278 669 q 300 685 300 669 q 279 770 300 702 q 257 858 257 838 q 275 897 257 878 q 311 915 294 915 q 339 911 329 915 q 359 900 350 908 q 379 839 379 882 q 359 756 379 824 q 339 676 339 689 q 346 664 339 664 q 369 676 354 664 q 402 707 384 689 q 439 743 420 725 q 513 786 486 786 q 556 773 541 786 q 571 741 571 761 q 559 706 571 722 q 530 682 548 691 q 489 665 511 672 q 445 653 467 657 q 405 645 423 648 q 364 628 364 636 q 378 613 364 619 q 414 601 393 606 q 461 589 436 596 q 508 572 486 581 q 544 546 530 563 q 558 510 558 530 q 547 474 558 489 q 516 460 535 460 q 474 473 497 460 q 431 504 451 486 q 392 542 410 523 z "},"+":{"ha":1060,"x_min":111,"x_max":949,"o":"m 111 286 l 111 367 q 476 362 418 367 l 496 361 q 489 746 489 380 l 571 746 q 564 361 571 394 q 949 367 606 367 l 949 286 q 584 290 644 286 l 564 292 q 571 -93 571 250 l 489 -93 q 494 272 489 212 l 496 292 q 111 286 456 286 z "},",":{"ha":311,"x_min":48,"x_max":228,"o":"m 48 -183 q 66 -163 48 -173 q 97 -142 84 -152 q 121 -120 110 -132 q 146 -44 146 -92 q 135 -2 146 -13 q 116 14 124 9 q 102 23 108 20 q 86 41 86 31 q 100 68 86 52 q 129 95 114 84 q 149 107 144 107 q 160 105 153 107 q 179 97 166 104 q 202 80 192 91 q 228 4 228 53 q 209 -90 228 -44 q 166 -159 191 -135 q 113 -193 141 -182 q 66 -203 84 -203 q 48 -183 48 -203 z "},"-":{"ha":437,"x_min":47,"x_max":390,"o":"m 47 335 l 47 418 l 390 519 l 390 435 l 47 335 z "},".":{"ha":311,"x_min":86,"x_max":218,"o":"m 150 -14 q 143 -14 150 -14 q 111 13 135 -14 q 86 55 86 39 q 113 95 86 72 q 156 119 140 119 q 195 92 172 119 q 218 49 218 64 q 191 9 218 33 q 150 -14 165 -14 z "},"/":{"ha":614,"x_min":24,"x_max":563,"o":"m 24 -321 l 497 981 l 563 981 l 89 -321 l 24 -321 z "},":":{"ha":354,"x_min":104,"x_max":258,"o":"m 159 -13 q 150 -13 159 -13 q 123 13 142 -13 q 104 55 104 39 q 127 95 104 72 q 166 118 151 118 q 202 94 182 118 q 222 54 222 70 q 198 13 222 39 q 159 -13 175 -13 m 196 419 q 188 419 196 419 q 161 445 180 419 q 142 487 142 471 q 165 527 142 504 q 204 550 188 550 q 239 526 220 550 q 258 486 258 502 q 235 445 258 471 q 196 419 212 419 z "},";":{"ha":354,"x_min":61,"x_max":258,"o":"m 140 -167 q 83 -214 106 -214 q 61 -192 61 -214 q 82 -161 61 -184 q 115 -122 103 -138 q 144 -38 144 -83 q 123 5 144 -6 q 106 14 115 10 q 85 38 85 22 q 93 69 85 53 q 113 96 102 85 q 159 119 140 119 q 191 91 177 119 q 204 23 204 62 q 195 -53 204 -17 q 171 -117 185 -89 q 140 -167 157 -145 m 196 419 q 188 419 196 419 q 161 445 180 419 q 142 487 142 471 q 165 527 142 504 q 204 550 188 550 q 239 526 220 550 q 258 486 258 502 q 235 445 258 471 q 196 419 212 419 z "},"<":{"ha":1057,"x_min":82,"x_max":975,"o":"m 82 323 l 82 354 l 975 782 l 975 689 l 227 339 l 975 -11 l 975 -104 l 82 323 z "},"=":{"ha":1089,"x_min":125,"x_max":964,"o":"m 125 170 l 125 251 l 964 251 l 964 170 l 125 170 m 125 401 l 125 483 l 964 483 l 964 401 l 125 401 z "},">":{"ha":1057,"x_min":82,"x_max":975,"o":"m 82 -11 l 830 339 l 82 689 l 82 782 l 975 354 l 975 323 l 82 -104 l 82 -11 z "},"?":{"ha":505,"x_min":143,"x_max":472,"o":"m 246 218 q 228 203 246 203 q 166 257 198 203 q 143 341 143 297 q 156 415 143 385 q 191 473 170 446 q 238 529 212 501 q 289 587 263 558 q 336 644 314 615 q 383 752 383 706 q 358 818 383 797 q 300 839 334 839 q 247 832 291 839 q 184 825 204 825 q 164 842 164 825 q 182 884 164 862 q 261 926 218 926 q 333 901 296 926 q 392 853 370 876 q 433 802 415 829 q 472 675 472 742 q 421 584 472 642 q 371 530 399 558 q 316 473 344 503 q 267 416 289 444 q 215 306 215 353 q 226 253 215 268 q 246 218 246 224 m 221 -13 q 213 -13 221 -13 q 186 13 205 -13 q 167 55 167 39 q 190 95 167 72 q 229 118 213 118 q 264 94 245 118 q 283 54 283 70 q 260 13 283 39 q 221 -13 237 -13 z "},"@":{"ha":1125,"x_min":76,"x_max":1007,"o":"m 76 235 q 88 349 76 297 q 122 449 99 400 q 178 543 145 498 q 254 625 211 588 q 349 690 298 663 q 592 749 457 749 q 896 656 788 749 q 1007 397 1007 561 q 898 99 1007 221 q 745 -2 833 26 q 677 -15 702 -15 q 646 -13 653 -15 q 631 -4 640 -11 q 616 13 623 2 q 600 76 600 38 q 607 207 600 114 q 525 75 562 120 q 454 8 489 31 q 404 -15 418 -15 q 382 -12 391 -15 q 364 2 374 -8 q 348 28 355 12 q 332 124 332 67 q 337 215 332 182 q 353 281 341 249 q 400 375 371 329 q 449 446 429 421 q 493 494 469 470 q 585 555 553 555 q 645 501 620 555 q 655 471 651 487 l 669 549 q 701 572 673 572 l 715 572 q 736 569 731 572 q 740 559 740 567 q 728 475 740 552 q 692 179 692 240 q 706 100 692 118 q 750 82 721 82 q 801 90 780 82 q 845 112 823 97 q 888 153 868 127 q 923 211 907 178 q 957 389 957 282 q 874 613 957 528 q 596 707 783 707 q 298 589 413 707 q 176 340 201 490 q 168 242 168 297 q 182 126 168 187 q 227 13 196 65 q 302 -77 258 -39 q 558 -157 398 -157 q 779 -114 676 -157 q 949 5 881 -71 l 965 -10 q 791 -155 907 -100 q 532 -210 674 -210 q 146 -19 266 -210 q 76 235 76 93 m 442 354 q 433 335 442 354 q 414 270 425 316 q 403 181 403 223 q 420 110 403 139 q 455 82 436 82 q 505 121 473 82 q 566 211 537 159 q 616 318 595 263 q 637 398 637 373 q 622 445 637 423 q 587 480 607 467 q 553 493 567 493 q 519 475 538 493 q 479 425 499 457 q 442 354 459 393 z "},"A":{"ha":909,"x_min":28,"x_max":868,"o":"m 28 0 l 28 44 l 50 44 q 92 54 79 44 q 135 118 112 67 l 525 949 l 550 949 l 746 160 q 774 66 767 78 q 791 50 782 54 q 828 44 801 44 l 868 44 l 868 0 l 545 0 l 545 44 l 585 44 q 641 49 627 44 q 655 67 655 53 q 651 97 655 81 l 590 357 l 314 357 l 205 122 q 186 68 186 79 q 203 49 186 53 q 274 44 221 44 l 300 44 l 297 0 l 28 0 m 336 411 l 578 411 l 490 761 l 336 411 z "},"B":{"ha":772,"x_min":21,"x_max":710,"o":"m 21 0 l 22 44 l 67 44 q 112 51 103 44 q 124 86 122 57 q 165 670 152 484 q 178 865 178 856 q 165 878 178 875 q 110 882 153 882 l 48 882 l 48 926 l 406 926 q 666 798 609 926 q 682 726 682 761 q 675 665 682 691 q 657 620 668 639 q 630 586 645 602 q 598 561 615 571 q 565 543 582 551 q 534 532 549 536 q 482 522 506 525 q 615 471 549 515 q 710 294 710 407 q 640 111 710 193 q 400 4 560 16 q 279 0 351 0 l 21 0 m 222 87 q 234 55 222 66 q 284 44 245 44 q 364 51 323 44 q 434 70 405 58 q 487 97 463 81 q 527 131 511 114 q 554 168 543 148 q 572 205 566 189 q 582 241 578 222 q 588 309 588 270 q 565 389 588 349 q 496 455 542 429 q 250 510 401 510 l 222 96 l 222 87 m 253 545 q 356 540 289 545 l 372 540 q 511 584 453 540 q 569 703 569 628 q 321 892 569 892 q 275 863 277 892 l 253 545 z "},"C":{"ha":951,"x_min":62,"x_max":854,"o":"m 62 390 q 70 496 62 447 q 93 593 78 545 q 131 685 108 641 q 185 769 155 730 q 254 841 215 809 q 340 897 294 874 q 558 947 436 947 q 705 927 637 947 q 814 873 774 907 q 854 801 854 840 q 845 760 854 786 q 803 710 828 710 q 770 755 781 710 q 758 802 763 786 q 739 834 754 818 q 700 867 724 851 q 557 903 645 903 q 375 848 464 903 q 232 691 288 795 q 174 443 174 585 q 199 274 174 352 q 269 144 225 197 q 497 33 362 33 q 681 87 594 33 q 741 134 727 117 q 768 181 754 151 q 782 213 781 211 l 812 213 q 787 89 804 168 q 775 68 784 76 q 730 39 766 59 q 489 -15 631 -15 q 125 159 234 -15 q 62 390 62 260 z "},"D":{"ha":1012,"x_min":31,"x_max":943,"o":"m 31 0 l 33 44 l 58 44 q 102 51 94 44 q 113 86 111 57 q 161 695 149 548 q 174 865 174 855 q 163 879 174 875 q 111 882 153 882 l 53 882 l 56 926 l 425 926 q 714 890 619 926 q 801 840 766 869 q 869 764 837 810 q 943 518 943 659 q 905 323 943 420 q 720 89 847 177 q 390 0 592 0 l 31 0 m 231 321 q 227 272 231 321 q 219 166 223 223 q 215 96 215 109 q 216 76 215 83 q 219 65 217 70 q 225 56 222 60 q 234 51 228 53 q 247 47 241 48 q 264 45 253 46 q 315 44 283 44 l 406 44 q 717 170 604 44 q 832 498 832 298 q 729 782 832 676 q 451 882 630 882 l 313 882 q 283 879 290 882 q 274 848 276 876 q 261 696 272 821 q 245 495 251 571 q 231 321 238 418 z "},"E":{"ha":760,"x_min":22,"x_max":690,"o":"m 22 0 l 25 44 l 57 44 q 101 50 93 44 q 117 86 114 57 q 177 746 166 634 q 188 866 188 857 q 179 879 188 875 q 144 882 171 882 l 68 882 l 68 926 l 690 926 l 690 758 l 660 757 l 659 829 q 645 861 658 853 q 615 871 633 869 q 564 876 597 874 q 426 880 517 879 q 316 882 336 882 q 290 879 296 882 q 282 863 283 876 l 254 553 l 504 553 q 541 558 533 553 q 551 589 548 564 l 558 657 l 589 655 l 567 371 l 533 372 q 540 475 540 466 q 497 498 540 498 l 249 498 l 217 129 q 214 82 214 93 q 220 67 214 71 q 247 64 227 64 l 268 64 q 606 81 570 64 q 653 211 629 91 l 688 204 l 640 0 l 22 0 z "},"F":{"ha":754,"x_min":26,"x_max":712,"o":"m 225 78 q 258 44 225 44 l 350 44 l 347 0 l 26 0 l 29 44 l 68 44 q 114 51 104 44 q 125 86 123 57 q 165 561 147 348 q 189 859 189 843 q 180 879 189 875 q 146 882 172 882 l 70 882 l 70 926 l 712 926 l 712 750 l 671 749 l 671 829 q 658 861 671 850 q 592 875 645 871 q 419 880 539 878 q 293 879 300 882 q 285 863 286 876 l 260 553 l 515 553 q 547 556 542 553 q 554 565 552 559 q 558 589 556 571 l 565 657 l 600 655 l 578 362 l 542 362 q 549 473 549 461 q 508 498 549 498 l 256 498 l 228 129 q 225 78 225 93 z "},"G":{"ha":996,"x_min":62,"x_max":912,"o":"m 127 168 q 110 196 127 168 q 78 288 93 224 q 62 419 62 352 q 77 550 62 487 q 121 672 93 613 q 195 781 150 731 q 295 869 239 832 q 578 949 414 949 q 683 934 616 949 q 783 901 750 920 q 826 876 816 883 q 842 860 837 869 q 850 820 850 848 l 850 806 q 845 690 850 761 l 843 668 l 815 667 q 793 762 810 730 q 761 814 776 794 q 661 881 726 859 q 544 903 597 903 q 438 884 491 903 q 345 834 386 866 q 272 759 304 802 q 218 667 239 716 q 174 480 174 566 q 185 333 174 394 q 217 230 197 273 q 264 151 237 186 q 322 94 292 116 q 385 58 352 72 q 524 31 447 31 q 658 73 601 31 q 722 189 716 115 l 738 388 l 565 388 l 568 432 l 912 432 l 910 388 l 832 388 l 801 -1 l 777 0 q 748 56 767 53 q 727 48 740 57 q 701 32 714 39 q 664 13 688 24 q 618 -5 639 1 q 488 -19 566 -19 q 336 5 410 -19 q 211 70 261 29 q 127 168 161 111 z "},"H":{"ha":979,"x_min":28,"x_max":951,"o":"m 730 545 l 753 846 q 746 876 753 870 q 703 882 738 882 l 645 882 l 645 926 l 951 926 l 950 882 q 916 882 929 882 q 893 881 902 882 q 880 881 883 881 q 871 879 877 880 q 863 876 865 877 q 858 871 861 874 q 854 864 855 867 q 852 856 853 861 q 849 830 850 849 l 797 114 q 796 86 796 99 q 796 69 796 73 q 798 61 796 65 q 800 56 799 58 q 803 52 800 54 q 808 49 806 50 q 815 47 810 47 q 840 44 828 44 l 861 44 l 911 44 l 911 0 l 578 0 l 581 44 l 637 44 q 684 51 678 44 q 693 65 690 57 q 699 108 697 78 l 726 490 l 251 490 l 227 126 q 225 102 226 114 q 223 83 223 90 q 224 69 223 75 q 227 59 225 63 q 233 52 229 55 q 241 48 237 50 q 253 45 245 46 q 288 44 265 44 l 347 44 l 347 0 l 28 0 l 31 44 l 76 44 q 114 51 109 44 q 121 65 119 57 q 126 108 125 78 l 180 846 q 174 876 180 870 q 131 882 165 882 l 67 882 l 68 926 l 385 926 l 383 882 q 343 882 358 882 q 318 881 327 882 q 306 881 309 881 q 297 879 302 880 q 289 876 291 877 q 285 871 288 874 q 281 864 281 867 q 279 856 281 862 q 277 844 278 849 q 276 830 277 840 l 256 545 l 730 545 z "},"I":{"ha":424,"x_min":29,"x_max":397,"o":"m 29 0 l 31 44 l 61 44 q 111 51 104 44 q 120 65 117 57 q 128 108 125 77 l 199 828 q 200 856 200 839 q 191 878 200 873 q 150 882 182 882 l 85 882 l 86 926 l 397 926 l 394 882 q 364 882 376 882 q 342 881 352 882 q 329 881 333 881 q 319 879 326 880 q 312 876 313 877 q 306 871 310 874 q 302 864 303 867 q 299 856 301 861 q 297 844 298 850 q 296 830 297 839 l 225 114 q 222 74 222 80 q 223 64 222 69 q 227 55 223 59 q 234 49 230 51 q 248 46 238 47 q 296 44 260 44 l 354 44 l 353 0 l 29 0 z "},"J":{"ha":451,"x_min":-144,"x_max":422,"o":"m -17 -365 q -48 -365 -17 -365 q -111 -339 -78 -365 q -144 -272 -144 -313 q -124 -209 -144 -232 q -81 -186 -104 -186 q -62 -191 -67 -186 q -55 -196 -57 -195 q -50 -202 -53 -198 q -47 -208 -48 -206 q -43 -214 -45 -209 q -40 -221 -41 -219 q -37 -229 -40 -222 q -28 -252 -35 -235 q 31 -299 -7 -299 q 95 -265 70 -299 q 109 -235 104 -252 q 130 -111 114 -217 q 156 114 145 -5 l 223 828 q 225 858 225 842 q 216 878 225 873 q 175 882 207 882 l 72 882 l 72 926 l 422 926 l 422 882 l 375 882 q 335 877 341 882 q 327 865 330 871 q 321 830 323 856 l 231 -113 q 210 -213 223 -189 q 182 -256 196 -237 q 145 -296 167 -275 q 99 -331 123 -316 q -17 -365 44 -365 z "},"K":{"ha":1017,"x_min":31,"x_max":1010,"o":"m 31 0 l 31 44 l 61 44 q 111 51 104 44 q 120 65 117 57 q 126 108 124 77 l 185 828 q 186 856 186 839 q 177 878 186 873 q 136 882 168 882 l 85 882 l 85 926 l 385 926 l 383 882 q 351 882 363 882 q 328 881 338 882 q 315 881 318 881 q 305 879 311 880 q 297 876 299 877 q 292 871 295 874 q 288 864 288 868 q 285 856 287 861 q 282 830 283 849 l 250 436 l 738 825 q 756 840 746 832 q 772 852 767 848 q 779 858 777 856 q 785 864 782 861 q 789 872 789 868 q 750 882 789 882 l 707 882 l 707 926 l 1010 926 l 1007 882 l 949 882 q 900 874 917 882 q 867 855 882 865 q 782 792 835 833 l 433 522 q 873 44 780 44 l 950 44 l 947 0 l 708 0 q 357 465 556 180 l 246 380 l 223 114 q 222 84 222 99 q 223 64 222 69 q 227 55 223 59 q 234 49 230 51 q 248 46 238 47 q 296 44 260 44 l 354 44 l 354 0 l 31 0 z "},"L":{"ha":740,"x_min":28,"x_max":699,"o":"m 699 197 l 643 0 l 28 0 l 29 44 l 70 44 q 115 51 106 44 q 126 86 124 57 q 180 860 180 849 q 126 882 180 882 l 58 882 l 61 926 l 388 926 l 388 882 l 323 882 q 284 872 290 882 q 276 843 277 860 q 250 458 275 825 q 225 79 225 92 q 288 54 225 54 q 470 64 350 54 q 605 80 589 74 q 628 100 622 85 q 647 154 635 114 q 663 207 659 194 l 699 197 z "},"M":{"ha":1146,"x_min":42,"x_max":1132,"o":"m 1017 782 l 1017 777 q 976 91 976 104 q 979 69 976 78 q 984 55 981 59 q 994 47 987 50 q 1019 44 1003 44 l 1085 44 l 1085 0 l 761 0 l 764 44 l 821 44 q 867 51 857 44 q 878 86 876 57 l 918 758 l 551 17 q 546 7 549 13 q 542 -2 544 1 q 538 -10 541 -5 q 535 -16 536 -14 q 531 -20 533 -18 q 515 -21 521 -31 q 498 17 505 -4 l 240 749 q 189 68 189 81 q 197 50 189 56 q 231 44 205 44 l 304 44 l 304 0 l 42 0 l 44 44 l 75 44 q 123 50 117 44 q 132 64 129 56 q 139 104 136 74 l 205 830 l 193 864 q 181 878 189 875 q 156 882 173 882 l 44 882 l 47 926 l 283 926 l 558 139 l 951 926 l 1132 926 l 1132 882 l 1075 882 q 1037 877 1046 882 q 1025 861 1027 872 q 1017 782 1017 814 z "},"N":{"ha":1039,"x_min":42,"x_max":1025,"o":"m 243 772 q 192 71 192 158 q 221 45 192 46 q 233 44 225 44 l 310 44 l 308 0 l 44 0 l 47 44 l 78 44 q 126 50 120 44 q 134 64 132 56 q 140 104 139 75 l 201 818 q 183 840 194 827 q 169 858 173 853 q 157 869 164 863 q 145 877 149 875 q 131 880 142 878 q 112 882 120 882 l 42 882 l 44 926 l 258 926 l 812 144 l 861 645 q 870 728 864 673 q 882 850 882 830 q 873 876 882 870 q 835 882 864 882 l 767 882 l 768 926 l 1025 926 l 1022 882 l 987 882 q 942 875 948 882 q 935 864 937 867 q 932 854 933 861 q 912 678 925 819 l 844 10 q 837 -21 842 -19 q 826 -24 833 -24 q 815 -20 820 -24 q 797 1 810 -16 l 243 772 z "},"O":{"ha":1011,"x_min":62,"x_max":942,"o":"m 62 413 q 78 557 62 487 q 123 686 94 627 q 195 795 152 746 q 291 880 238 845 q 545 953 402 953 q 814 854 709 953 q 942 522 942 734 q 848 198 942 348 q 685 40 787 100 q 446 -22 581 -22 q 117 166 222 -22 q 62 413 62 265 m 176 438 q 193 291 176 360 q 238 175 209 223 q 304 93 266 126 q 476 28 378 28 q 644 83 563 28 q 774 245 723 137 q 828 511 828 356 q 701 846 828 738 q 529 908 626 908 q 361 856 443 908 q 230 699 281 804 q 176 438 176 592 z "},"P":{"ha":786,"x_min":28,"x_max":744,"o":"m 215 124 l 213 79 q 219 53 213 61 q 242 44 225 44 l 351 44 l 349 0 l 28 0 l 28 44 l 58 44 q 104 51 95 44 q 115 86 113 57 q 168 677 152 499 q 183 866 183 856 q 171 879 183 875 q 115 882 159 882 l 75 882 l 76 926 l 413 926 q 660 866 576 926 q 744 689 744 805 q 589 437 744 528 q 376 382 495 382 q 257 392 312 382 l 239 396 l 215 124 m 244 433 q 330 426 275 426 q 428 436 385 426 q 499 463 470 446 q 552 501 529 479 q 588 546 574 524 q 610 593 601 569 q 625 669 625 634 q 618 730 625 704 q 600 777 611 757 q 572 813 589 797 q 537 840 555 829 q 497 858 519 850 q 453 871 474 866 q 409 878 433 875 q 335 882 372 882 q 290 877 298 882 q 279 850 281 872 l 244 433 z "},"Q":{"ha":989,"x_min":28,"x_max":1061,"o":"m 1061 -191 q 1044 -230 1061 -207 q 986 -272 1027 -253 q 892 -292 944 -292 q 764 -266 840 -292 q 622 -199 689 -241 q 385 -44 493 -118 l 350 -19 q 252 -29 297 -29 q 171 -25 207 -29 q 102 -13 134 -21 q 28 39 28 5 q 35 57 28 49 q 49 65 42 65 q 66 61 57 65 q 90 50 75 56 q 123 37 104 43 q 245 21 169 21 q 394 37 322 21 q 522 82 465 53 q 625 151 578 111 q 705 237 672 191 q 762 336 739 284 q 807 547 807 437 q 716 807 807 711 q 544 898 646 880 q 479 903 518 903 q 391 881 441 903 q 304 823 341 860 q 243 731 266 786 q 221 630 221 677 q 227 551 221 582 q 249 490 234 519 q 286 438 264 460 q 417 390 334 390 q 489 411 465 390 q 506 429 499 420 q 531 450 523 450 q 546 434 546 450 q 533 400 546 418 q 497 366 519 382 q 383 327 444 327 q 278 343 322 327 q 197 389 233 359 q 139 466 161 419 q 117 561 117 514 q 125 646 117 608 q 149 721 133 684 q 190 793 166 759 q 248 856 214 827 q 321 907 281 885 q 517 953 406 953 q 759 882 652 953 q 908 664 874 806 q 920 550 920 613 q 905 424 920 487 q 865 312 890 360 q 807 221 840 263 q 738 147 774 178 q 666 91 702 117 q 597 50 630 66 q 500 7 528 16 l 485 3 q 796 -163 640 -98 q 951 -204 893 -204 q 1009 -194 996 -204 q 1061 -191 1061 -157 z "},"R":{"ha":886,"x_min":26,"x_max":872,"o":"m 222 70 q 253 44 222 44 l 370 44 l 367 0 l 26 0 l 28 44 l 68 44 q 114 51 104 44 q 125 86 123 57 q 166 670 153 484 q 179 860 179 856 q 178 868 179 864 q 174 874 177 871 q 166 879 171 877 q 153 881 162 880 q 107 882 140 882 l 65 882 l 65 926 l 407 926 q 704 775 637 926 q 725 694 725 729 q 723 641 725 659 q 714 603 721 624 q 696 563 707 582 q 665 525 685 544 q 621 490 646 505 q 478 442 564 455 l 722 103 q 774 51 754 58 q 810 44 794 44 l 872 44 l 869 0 l 642 0 q 530 163 579 78 q 439 323 482 247 q 376 433 397 398 l 357 433 q 262 441 305 433 l 247 443 l 223 96 l 222 70 m 250 478 q 348 472 288 472 q 537 518 479 472 q 589 585 570 544 q 608 670 608 626 q 589 752 608 713 q 535 819 571 790 q 322 882 459 882 q 287 879 297 882 q 276 863 277 875 l 250 478 z "},"S":{"ha":650,"x_min":14,"x_max":581,"o":"m 53 -56 q 14 243 36 116 l 53 250 l 67 156 q 90 99 72 121 q 159 55 107 78 q 263 33 211 33 q 350 48 315 33 q 408 89 385 63 q 455 217 455 141 q 348 396 455 309 q 286 447 310 427 l 218 506 q 108 663 136 575 q 97 734 97 696 q 116 811 97 772 q 169 880 136 851 q 351 946 242 946 q 456 931 408 946 q 512 917 505 917 q 528 944 528 917 l 528 954 l 565 954 l 581 738 l 542 735 l 536 810 q 411 884 489 862 q 341 893 379 893 q 269 879 303 893 q 215 834 235 864 q 194 775 194 804 q 197 732 194 746 q 203 705 199 718 q 214 680 207 693 q 228 657 222 667 q 245 634 234 647 q 264 613 257 621 q 286 592 271 606 q 308 572 301 579 q 333 551 316 566 q 357 531 350 537 l 406 489 q 443 458 416 482 q 489 410 469 434 q 522 365 509 387 q 554 250 554 310 q 501 97 554 170 q 261 -15 419 -15 q 175 -8 201 -15 q 111 5 126 5 q 93 2 96 5 q 89 -11 89 -1 l 92 -54 l 53 -56 z "},"T":{"ha":857,"x_min":14,"x_max":850,"o":"m 388 820 l 389 843 q 376 861 389 856 q 329 865 363 865 l 156 865 q 92 840 105 865 q 72 762 80 819 q 64 704 64 706 l 14 706 q 48 926 38 847 l 850 926 q 820 707 822 732 l 769 708 q 783 820 783 804 q 782 842 783 836 q 777 853 781 849 q 770 860 774 858 q 758 863 766 862 q 721 865 745 865 l 561 865 q 497 860 507 865 q 485 826 487 856 l 436 110 l 435 83 q 438 53 435 57 q 446 48 442 50 q 474 44 453 44 l 565 44 l 563 0 l 205 0 l 205 44 l 279 44 q 325 51 315 44 q 336 86 334 57 l 388 820 z "},"U":{"ha":971,"x_min":42,"x_max":929,"o":"m 690 -26 q 669 4 669 -26 q 670 20 669 9 q 675 149 673 86 q 640 85 666 122 q 386 -31 559 -31 q 164 31 220 -31 q 126 97 135 62 q 114 204 114 154 q 136 537 114 255 q 158 839 158 820 q 155 868 158 859 q 144 879 152 877 q 118 882 137 882 l 42 882 l 43 926 l 378 926 l 375 882 l 310 882 q 266 863 271 882 q 261 839 263 854 q 217 236 217 282 q 221 165 217 190 q 238 114 225 140 q 270 71 250 89 q 397 31 314 31 q 635 156 557 31 q 672 245 665 203 q 683 303 680 286 q 688 367 688 341 l 722 814 q 724 848 724 825 q 714 876 724 870 q 669 882 704 882 l 598 882 l 600 926 l 929 926 l 929 882 l 868 882 q 830 864 837 882 q 820 746 827 855 q 800 481 812 637 q 783 269 788 325 q 773 119 773 155 q 779 74 773 83 q 798 65 785 65 q 882 104 811 65 l 897 70 q 772 5 838 36 q 690 -26 706 -26 z "},"V":{"ha":879,"x_min":14,"x_max":865,"o":"m 14 882 l 15 926 l 339 926 l 339 882 l 275 882 q 244 879 252 882 q 236 866 236 875 q 246 817 236 857 l 413 158 l 697 833 q 701 857 701 842 q 687 877 701 873 q 636 882 672 882 l 590 882 l 590 926 l 865 926 l 863 882 l 832 882 q 782 861 798 882 q 760 821 769 842 q 743 781 751 800 q 729 750 735 763 l 386 -21 l 356 -21 l 138 792 q 130 821 132 811 q 123 843 127 831 q 117 860 119 855 q 111 870 115 864 q 104 877 106 876 q 94 880 101 878 q 83 882 88 882 l 14 882 z "},"W":{"ha":1386,"x_min":14,"x_max":1372,"o":"m 1205 861 q 1168 882 1205 882 l 1086 882 l 1086 926 l 1372 926 l 1370 882 l 1332 882 q 1287 870 1298 882 q 1256 813 1276 859 q 1229 750 1237 767 l 892 -21 l 861 -21 l 683 663 l 383 -21 l 353 -21 l 135 792 q 127 821 129 812 q 120 843 124 831 q 114 860 116 855 q 108 870 112 864 q 101 877 103 876 q 92 880 98 878 q 80 882 85 882 l 14 882 l 15 926 l 342 926 l 339 882 l 268 882 q 237 879 245 882 q 229 866 229 875 q 239 817 229 857 l 410 158 l 660 750 l 650 793 q 621 871 635 859 q 598 881 608 881 q 578 882 587 882 l 524 882 l 525 926 l 856 926 l 853 882 l 781 882 q 750 879 758 882 q 742 866 742 875 q 751 817 742 857 l 918 158 l 1195 822 q 1205 861 1205 850 z "},"X":{"ha":993,"x_min":21,"x_max":972,"o":"m 38 6 q 21 53 21 27 q 35 98 21 79 q 64 117 49 117 q 81 112 79 117 q 84 101 83 107 q 85 88 84 94 q 115 72 88 72 q 178 93 143 72 q 245 148 212 115 q 311 223 278 182 q 372 304 344 264 q 456 434 431 391 l 468 455 q 445 506 460 473 q 419 563 430 538 q 392 621 408 587 q 363 680 376 654 q 333 734 349 705 q 302 782 317 762 q 272 820 287 803 q 213 854 240 854 q 164 827 186 854 q 142 755 142 801 q 164 667 142 710 q 167 647 169 656 q 155 639 165 639 q 138 651 144 639 q 104 764 104 708 q 121 857 104 819 q 169 918 138 895 q 242 940 200 940 q 329 906 283 940 q 421 789 375 871 q 536 557 467 708 q 672 767 626 705 q 910 942 803 942 q 956 927 940 942 q 972 893 972 912 q 959 861 972 874 q 932 847 946 847 q 914 852 918 847 q 909 862 911 857 q 884 877 904 877 q 834 856 864 877 q 775 802 805 835 q 714 729 746 769 q 656 649 683 689 q 574 522 598 563 l 561 502 q 742 131 694 221 q 807 71 773 71 q 850 98 829 71 q 877 146 872 127 q 881 166 881 165 q 883 171 882 167 q 884 176 884 175 q 887 180 885 177 q 890 185 888 183 q 893 187 891 186 q 904 190 898 190 q 921 154 922 190 q 907 86 921 118 q 876 37 894 55 q 836 8 858 20 q 692 21 752 -37 q 627 116 660 52 q 554 269 595 179 q 494 397 512 358 q 163 3 320 70 q 38 6 74 -35 z "},"Y":{"ha":808,"x_min":14,"x_max":794,"o":"m 396 108 l 394 74 q 405 50 394 55 q 442 44 419 44 l 512 44 l 511 0 l 150 0 l 153 44 l 215 44 q 271 55 258 44 q 286 105 283 66 l 310 442 l 115 835 q 89 874 100 866 q 50 882 77 882 l 14 882 l 15 926 l 321 926 l 317 882 l 276 882 q 240 878 251 882 q 229 859 229 874 q 248 804 229 844 q 268 763 267 765 q 269 760 268 762 q 271 757 270 759 l 394 504 l 589 821 q 607 863 607 850 q 596 879 607 876 q 558 882 585 882 l 524 882 l 524 926 l 794 926 l 793 882 l 750 882 q 707 869 724 882 q 635 778 684 851 l 418 447 l 396 108 z "},"Z":{"ha":891,"x_min":0,"x_max":878,"o":"m 861 967 q 878 950 878 967 q 861 918 878 939 l 537 545 l 653 545 l 650 500 l 498 500 l 164 113 q 267 121 227 121 q 459 104 307 121 q 655 87 611 87 q 729 98 699 87 q 777 126 759 109 q 808 164 795 143 q 830 244 830 202 q 828 270 830 256 l 851 276 q 864 221 864 246 q 862 175 864 196 q 853 131 860 155 q 838 85 847 106 q 811 44 828 64 q 773 9 795 24 q 664 -22 726 -22 q 514 -9 603 -22 q 339 16 425 3 q 214 29 253 29 q 156 28 176 29 q 118 26 137 28 q 89 18 99 23 q 50 -15 67 7 q 16 -36 33 -36 q 0 -10 0 -36 q 64 79 0 5 l 436 500 l 322 500 l 327 545 l 475 545 l 730 833 q 609 826 668 826 q 496 833 549 826 q 404 847 443 839 q 257 868 304 868 q 183 857 211 868 q 139 827 155 845 q 104 755 104 789 q 121 702 104 722 q 208 663 154 663 q 246 674 238 663 q 258 692 255 686 q 274 708 267 708 q 287 701 281 708 q 292 682 292 693 q 262 612 292 637 q 190 586 232 586 q 94 632 132 586 q 64 729 64 668 q 140 903 64 834 q 283 953 195 953 q 421 938 348 953 q 671 908 563 908 q 798 921 778 908 q 831 945 819 934 q 861 967 853 967 z "},"[":{"ha":453,"x_min":122,"x_max":429,"o":"m 122 -321 l 122 981 l 429 981 l 429 939 l 208 939 l 208 -280 l 429 -280 l 429 -321 l 122 -321 z "},"\\":{"ha":614,"x_min":52,"x_max":590,"o":"m 52 981 l 117 981 l 590 -321 l 525 -321 l 52 981 z "},"]":{"ha":453,"x_min":24,"x_max":331,"o":"m 24 -280 l 244 -280 l 244 939 l 24 939 l 24 981 l 331 981 l 331 -321 l 24 -321 l 24 -280 z "},"^":{"ha":564,"x_min":56,"x_max":508,"o":"m 56 460 l 274 904 l 290 904 l 508 460 l 421 460 l 282 754 l 143 460 l 56 460 z "},"_":{"ha":314,"x_min":28,"x_max":286,"o":"m 28 -82 l 286 -82 l 286 -142 l 28 -142 l 28 -82 z "},"`":{"ha":542,"x_min":171,"x_max":276,"o":"m 171 847 l 254 847 l 276 650 l 237 650 l 171 847 z "},"a":{"ha":515,"x_min":35,"x_max":488,"o":"m 333 -15 q 303 85 303 -15 q 310 207 303 119 q 228 75 264 120 q 156 8 192 31 q 107 -15 120 -15 q 85 -12 94 -15 q 67 2 76 -8 q 51 28 57 12 q 35 124 35 67 q 39 215 35 182 q 56 281 44 249 q 231 525 111 426 q 284 555 267 555 q 314 547 301 555 q 334 526 326 538 q 358 471 350 500 l 372 549 q 404 572 376 572 l 418 572 q 439 569 434 572 q 443 559 443 567 q 431 475 443 552 q 394 171 394 242 q 411 100 394 100 q 430 111 421 100 q 442 125 439 121 q 452 136 446 129 q 463 149 458 143 l 488 129 q 371 0 422 37 q 333 -15 349 -15 m 144 354 q 136 335 144 354 q 116 270 127 316 q 105 181 105 223 q 122 110 105 139 q 158 82 139 82 q 208 121 176 82 q 269 211 240 159 q 319 318 298 263 q 340 398 340 373 q 325 445 340 423 q 290 480 310 467 q 256 493 270 493 q 222 475 241 493 q 182 425 202 457 q 144 354 162 393 z "},"b":{"ha":471,"x_min":7,"x_max":443,"o":"m 111 881 q 92 926 111 926 q 61 920 84 926 l 15 907 l 7 936 q 76 955 38 944 q 132 970 114 965 q 192 983 179 983 q 209 978 205 983 q 213 967 213 974 q 153 375 213 960 q 331 543 244 507 q 366 553 354 553 q 386 550 378 553 q 405 538 394 547 q 424 513 415 528 q 443 408 443 477 q 425 286 443 354 q 350 108 393 165 q 281 36 326 77 q 218 -5 236 -5 q 177 5 195 -5 q 153 18 158 16 q 139 28 149 21 q 125 37 129 34 q 109 48 120 40 q 90 62 98 56 q 71 88 71 76 q 75 158 71 100 q 111 881 111 637 m 186 371 q 146 205 146 298 q 178 104 146 139 q 224 64 205 73 q 253 56 242 56 q 286 82 263 56 q 329 147 308 108 q 378 318 378 242 q 354 438 378 394 q 305 482 331 482 q 246 450 279 482 q 186 371 212 419 z "},"c":{"ha":385,"x_min":28,"x_max":364,"o":"m 364 511 q 332 458 364 458 q 292 472 317 458 q 205 497 244 497 q 156 456 181 497 q 116 354 132 415 q 100 249 100 293 q 105 179 100 205 q 119 135 111 153 q 138 105 127 117 q 160 86 149 92 q 180 81 171 81 q 201 83 190 81 q 221 89 211 85 q 241 99 230 93 q 260 110 251 104 q 278 123 268 115 q 294 136 287 131 q 308 149 300 141 q 320 160 316 157 q 330 170 324 164 q 336 176 336 176 l 356 160 q 176 -1 265 35 q 139 -11 152 -11 q 120 -10 126 -11 q 111 -8 115 -9 q 103 -4 107 -7 q 28 153 28 38 q 71 378 28 260 q 214 541 117 504 q 290 555 250 555 q 347 542 330 555 q 364 511 364 528 z "},"d":{"ha":519,"x_min":28,"x_max":506,"o":"m 406 301 q 403 269 406 301 q 397 202 400 237 q 394 135 394 166 q 407 103 394 103 q 469 170 431 103 l 482 192 l 506 179 q 482 131 506 166 q 394 28 440 69 q 328 -14 348 -14 q 313 18 313 -14 q 328 208 313 95 l 333 247 q 242 94 311 182 q 105 -13 158 -13 q 46 41 69 -13 q 28 161 28 85 q 54 310 28 237 q 118 433 79 383 q 265 551 209 551 q 298 538 283 551 q 320 510 313 525 q 333 477 327 495 q 342 455 340 459 l 361 867 l 361 893 q 348 930 361 930 q 251 915 335 930 l 246 947 q 353 967 279 954 q 435 981 427 981 q 461 958 461 981 l 417 411 q 406 301 413 364 m 97 244 q 167 90 97 90 q 213 116 185 90 q 265 180 240 142 q 307 269 290 219 q 325 364 325 320 l 325 386 q 267 496 325 462 q 241 504 253 504 q 211 492 228 504 q 180 460 194 479 q 136 389 152 423 q 109 311 120 355 q 97 244 97 267 z "},"e":{"ha":389,"x_min":28,"x_max":368,"o":"m 55 40 q 49 47 55 40 q 36 82 43 55 q 28 160 28 108 q 44 285 28 212 q 76 394 60 358 q 100 443 93 431 q 115 466 107 456 q 130 482 124 476 q 146 496 135 489 q 161 507 156 504 q 178 518 165 510 q 202 532 190 525 q 258 553 235 553 q 302 542 280 553 q 342 516 324 531 q 360 493 360 501 q 336 456 360 485 q 277 390 312 427 q 105 235 189 297 q 161 92 105 122 q 193 85 176 85 q 345 168 256 85 q 347 171 346 170 l 368 139 q 189 10 271 47 q 137 -5 154 -5 q 107 -1 119 -5 q 81 13 95 3 q 55 40 66 24 m 104 265 q 124 284 104 266 q 165 323 143 302 q 210 369 187 345 q 265 435 265 424 q 247 479 265 464 q 211 493 229 493 q 175 478 193 493 q 141 437 157 463 q 104 276 104 376 l 104 265 z "},"f":{"ha":362,"x_min":-105,"x_max":483,"o":"m 3 -358 q -23 -358 3 -358 q -77 -339 -49 -358 q -105 -291 -105 -320 q -94 -242 -105 -261 q -68 -223 -82 -223 q -49 -226 -55 -223 q -38 -235 -43 -229 q -30 -245 -33 -241 q -22 -259 -27 -249 q 37 -310 3 -310 q 84 -240 72 -310 q 105 -43 96 -170 q 120 186 114 83 q 146 500 127 289 l 48 500 l 48 545 l 147 545 q 152 595 149 564 q 156 646 154 626 q 161 693 158 666 q 168 741 164 721 q 179 784 172 761 q 194 827 185 808 q 247 902 213 868 q 399 975 319 975 q 462 953 441 975 q 483 906 483 931 q 473 866 483 881 q 450 851 464 851 q 426 858 437 851 q 408 875 416 865 q 391 895 399 885 q 354 918 371 918 q 274 841 301 918 q 246 710 254 785 q 236 599 239 635 q 231 545 232 562 l 335 545 l 332 500 l 228 500 q 212 249 225 463 q 194 -12 198 36 q 183 -109 190 -60 q 169 -190 177 -158 q 150 -253 161 -222 q 124 -301 139 -283 q 90 -333 110 -319 q 3 -358 55 -358 z "},"g":{"ha":539,"x_min":-46,"x_max":528,"o":"m 162 131 q 103 61 103 96 q 112 44 103 50 q 129 33 122 37 q 148 25 136 30 q 169 18 159 21 q 194 11 179 15 q 221 5 210 7 q 250 -1 232 2 q 321 -15 279 -7 q 488 -157 488 -45 q 445 -266 488 -218 q 331 -340 401 -314 q 194 -365 260 -365 q 90 -355 129 -365 q 26 -330 51 -345 q -16 -294 1 -314 q -46 -225 -46 -257 q -39 -174 -46 -193 q -22 -143 -33 -155 q 1 -123 -12 -132 q 26 -110 14 -114 q 74 -99 55 -100 l 82 -128 q 36 -163 51 -133 q 31 -193 31 -175 q 42 -232 31 -210 q 75 -274 54 -255 q 203 -317 123 -317 q 299 -298 253 -317 q 371 -250 344 -280 q 399 -191 399 -220 q 374 -146 399 -162 q 323 -123 350 -130 q 274 -110 297 -116 q 235 -100 252 -104 q 188 -86 218 -95 q 141 -69 158 -77 q 101 -50 123 -62 q 66 -26 78 -38 q 36 33 36 2 q 102 125 36 80 q 128 142 111 131 q 74 195 93 158 q 56 271 56 232 q 67 352 56 311 q 99 431 78 393 q 147 499 120 469 q 283 565 208 565 q 349 553 322 565 q 391 535 376 542 q 463 518 428 518 q 490 535 477 518 l 500 546 l 528 532 q 507 483 521 517 q 486 441 493 449 q 469 432 480 432 q 408 440 452 432 q 411 392 411 415 q 403 333 411 370 q 377 260 395 297 q 336 194 360 223 q 201 126 281 126 q 162 131 183 126 m 205 487 q 193 472 205 487 q 163 410 180 457 q 146 323 146 362 q 155 256 146 284 q 178 210 164 228 q 233 171 207 171 q 281 205 259 171 q 329 388 329 276 q 306 478 329 438 q 257 517 282 517 q 205 487 231 517 z "},"h":{"ha":594,"x_min":35,"x_max":574,"o":"m 140 904 q 129 929 140 929 q 40 908 115 929 l 35 940 q 141 966 77 952 q 219 981 204 981 q 235 968 235 981 q 222 827 235 956 q 172 264 182 398 q 371 524 286 457 q 424 547 401 547 q 475 403 475 547 q 460 254 475 348 q 446 132 446 160 q 455 104 446 104 q 531 182 474 104 l 553 214 l 574 199 q 475 70 535 129 q 401 0 415 10 q 374 -10 387 -10 q 356 17 356 -10 q 372 200 356 43 q 389 405 389 356 q 369 454 389 454 q 307 410 349 454 q 225 301 266 365 q 174 187 185 237 q 161 81 163 136 l 160 40 q 151 9 160 18 q 114 0 143 0 q 85 21 85 0 q 93 147 85 41 q 106 339 101 253 q 119 538 111 426 q 129 703 126 649 q 136 793 133 756 q 139 845 138 830 q 140 887 140 873 l 140 904 z "},"i":{"ha":339,"x_min":28,"x_max":325,"o":"m 231 535 l 199 142 q 209 110 199 110 q 284 195 228 110 l 303 223 l 325 205 q 256 99 298 143 q 126 -7 156 -7 q 103 24 103 -7 q 112 120 103 35 q 140 468 140 381 q 124 490 140 490 q 55 471 105 490 l 39 464 l 28 498 q 215 555 188 555 q 231 535 231 555 m 239 810 q 232 810 239 810 q 210 832 225 810 q 195 871 195 854 q 213 907 195 887 q 250 928 232 928 q 283 908 268 928 q 297 869 297 888 q 275 830 297 849 q 239 810 253 810 z "},"j":{"ha":343,"x_min":-108,"x_max":301,"o":"m 246 558 q 260 535 260 558 q 253 455 260 529 q 227 114 233 222 q 170 -264 210 -193 q 50 -354 131 -335 q 6 -358 28 -358 q -44 -348 -16 -358 q -90 -319 -72 -338 q -108 -276 -108 -300 q -95 -232 -108 -252 q -64 -213 -81 -213 q -38 -223 -46 -213 q -23 -247 -29 -233 q -12 -275 -18 -261 q 38 -310 3 -310 q 105 -216 82 -310 q 143 139 123 -145 q 164 456 164 423 q 151 489 164 489 q 54 455 138 489 l 42 492 q 246 558 209 558 m 243 810 q 236 810 243 810 q 214 832 230 810 q 199 871 199 854 q 217 907 199 887 q 254 928 236 928 q 287 908 272 928 q 301 869 301 888 q 279 830 301 849 q 243 810 257 810 z "},"k":{"ha":564,"x_min":35,"x_max":550,"o":"m 132 930 l 42 910 l 35 942 q 142 966 74 952 q 228 979 211 979 q 244 965 244 979 q 192 419 244 939 l 175 247 q 395 442 345 356 q 408 482 408 465 q 374 506 408 506 l 346 506 l 307 504 l 310 535 q 428 540 371 540 q 499 538 485 540 q 519 526 519 535 q 439 411 519 494 q 326 314 388 359 l 306 300 q 393 125 346 196 q 437 82 421 82 q 505 162 465 82 l 518 189 l 550 171 q 439 7 499 63 q 405 -11 420 -11 q 368 16 391 -11 q 323 83 345 44 q 251 228 276 168 l 239 256 l 172 210 q 162 76 164 111 l 161 36 q 153 6 161 14 q 110 -3 144 -3 q 76 17 76 -3 q 87 133 76 20 q 147 912 122 500 l 147 914 q 132 930 147 930 z "},"l":{"ha":318,"x_min":21,"x_max":313,"o":"m 136 908 q 116 928 136 928 q 29 906 96 928 l 21 943 q 209 989 178 989 q 240 967 240 989 q 237 930 240 963 q 196 431 215 716 q 176 140 176 146 q 188 110 176 110 q 223 140 202 110 q 275 218 258 189 l 282 231 l 313 208 q 199 47 264 116 q 150 2 172 19 q 108 -14 127 -14 q 86 28 86 -14 l 136 908 z "},"m":{"ha":844,"x_min":14,"x_max":830,"o":"m 96 19 q 114 219 96 20 q 132 452 132 417 q 114 488 132 488 q 85 479 108 488 l 26 454 l 14 492 q 129 538 63 514 q 215 561 195 561 q 235 541 235 561 q 228 477 235 522 q 205 271 207 340 q 215 287 209 277 q 238 326 220 297 q 274 381 256 355 q 316 440 292 408 q 362 495 341 472 q 447 550 414 550 q 476 455 476 550 q 470 307 476 397 l 468 278 q 489 311 476 290 q 588 452 542 396 q 710 553 673 553 q 730 540 725 553 q 738 520 735 528 q 741 499 740 512 q 742 447 742 481 q 730 296 742 412 q 718 146 718 180 q 738 113 718 113 q 783 162 751 113 q 806 203 798 184 l 830 190 q 772 95 808 142 q 701 20 736 48 q 646 -8 667 -8 q 620 50 620 -8 q 637 213 620 80 q 655 372 655 347 l 655 402 q 639 436 655 436 q 554 352 615 436 q 460 161 490 264 q 459 155 460 161 q 456 143 457 150 q 454 122 455 136 q 451 51 451 89 q 443 6 450 13 q 414 -1 435 -1 l 392 -1 q 360 18 360 -1 q 376 183 360 23 q 393 377 393 343 q 373 433 393 433 q 312 377 353 433 q 238 253 272 320 q 202 168 204 187 q 197 125 200 148 q 189 26 191 79 q 179 7 189 14 q 156 0 170 0 l 129 0 q 96 19 96 0 z "},"n":{"ha":571,"x_min":21,"x_max":550,"o":"m 85 19 q 104 277 96 138 q 113 452 113 417 q 97 488 113 488 q 46 472 87 488 l 33 467 l 21 496 q 66 513 27 498 q 193 554 170 554 q 211 532 211 554 q 206 484 211 524 q 189 264 190 363 q 445 553 352 553 q 478 461 478 553 q 464 286 478 402 q 450 141 450 170 q 461 111 450 111 q 515 186 473 111 q 526 205 522 198 l 550 193 q 493 97 528 144 q 425 20 459 49 q 372 -10 391 -10 q 353 22 353 -10 q 371 190 353 54 q 389 388 389 326 q 367 450 389 450 q 318 411 352 450 q 249 313 285 371 q 200 219 214 254 q 182 163 186 183 q 176 130 177 144 q 174 84 175 116 q 170 33 172 53 q 133 -1 167 -1 l 111 -1 q 91 3 98 -1 q 85 19 84 8 z "},"o":{"ha":458,"x_min":28,"x_max":431,"o":"m 28 178 q 136 466 28 343 q 290 557 215 557 q 403 490 365 557 q 431 372 431 442 q 408 233 431 302 q 348 109 385 164 q 265 19 312 54 q 173 -17 217 -17 q 96 10 129 -17 q 28 178 28 65 m 168 430 q 158 411 168 430 q 134 341 148 393 q 121 236 121 289 q 131 137 121 183 q 163 64 142 92 q 212 36 183 36 q 272 83 241 36 q 322 198 303 129 q 340 313 340 267 q 336 389 340 359 q 321 448 331 419 q 294 494 312 476 q 256 512 277 512 q 212 489 235 512 q 168 430 188 467 z "},"p":{"ha":512,"x_min":-29,"x_max":492,"o":"m 185 -315 l 310 -307 l 308 -345 l -29 -376 l -29 -336 q 7 -333 -14 -335 q 35 -331 28 -331 q 51 -328 42 -330 q 62 -324 60 -326 q 67 -318 64 -323 q 70 -309 70 -313 q 71 -298 70 -305 q 115 283 105 174 q 128 414 125 392 q 132 449 130 436 q 133 473 133 461 q 123 485 133 485 q 35 450 113 485 l 21 482 q 136 534 75 509 q 214 560 197 560 q 231 543 231 560 q 219 470 231 538 q 204 379 208 402 q 406 549 323 549 q 468 512 445 549 q 492 409 492 475 q 433 174 492 295 q 346 46 398 100 q 258 -8 294 -8 q 189 21 221 -8 l 179 31 l 158 -280 q 167 -313 158 -310 q 185 -315 175 -315 m 203 301 q 195 273 203 301 q 188 188 188 246 q 208 92 188 130 q 255 54 229 54 q 304 68 281 54 q 346 108 326 82 q 383 165 367 133 q 419 313 419 235 q 408 394 419 358 q 345 464 387 464 q 268 412 311 464 q 203 301 219 356 z "},"q":{"ha":476,"x_min":28,"x_max":455,"o":"m 400 -315 l 455 -314 l 455 -347 l 118 -375 l 119 -329 q 185 -325 168 -326 q 216 -323 202 -325 q 235 -320 229 -321 q 248 -315 241 -319 q 258 -308 256 -312 q 264 -297 261 -304 q 271 -261 268 -288 l 315 203 q 154 7 233 50 q 109 -4 132 -4 q 66 19 86 -4 q 28 151 28 64 q 39 251 28 190 q 70 358 51 312 q 118 443 89 403 q 175 505 147 482 q 271 550 233 550 q 376 474 327 550 q 396 572 389 545 l 431 567 q 375 45 389 330 q 360 -272 360 -240 q 367 -309 360 -303 q 400 -315 375 -315 m 145 404 q 137 384 145 404 q 117 318 128 364 q 105 238 105 273 q 110 175 105 203 q 123 130 115 147 q 140 102 130 114 q 246 138 184 51 q 274 180 256 152 q 307 259 292 209 q 321 351 321 309 q 312 421 321 393 q 291 466 304 449 q 238 500 263 500 q 188 472 212 500 q 145 404 163 445 z "},"r":{"ha":464,"x_min":14,"x_max":450,"o":"m 121 -1 q 93 17 93 -1 q 128 460 125 365 q 108 490 128 490 q 77 482 97 490 q 41 467 57 474 q 24 460 25 460 l 14 492 q 210 558 169 558 q 227 541 227 558 q 205 359 227 507 l 197 311 q 319 505 251 426 q 389 553 359 553 q 414 533 400 553 q 450 445 450 486 q 432 404 450 404 q 414 413 424 404 q 364 439 384 439 q 319 420 343 439 q 275 370 294 401 q 185 67 197 243 q 182 22 183 35 q 153 -1 180 -1 l 121 -1 z "},"s":{"ha":439,"x_min":35,"x_max":397,"o":"m 171 -10 q 89 0 123 -10 q 45 23 56 10 q 35 71 35 37 q 68 140 35 140 q 99 114 86 140 q 154 46 124 61 q 190 39 170 39 q 267 68 236 39 q 299 140 299 98 q 262 222 299 181 q 227 259 247 240 q 188 296 208 277 q 153 336 169 316 q 117 427 117 381 q 142 500 117 472 q 288 554 189 554 q 380 522 348 554 q 397 489 397 505 q 390 462 397 472 q 370 451 383 451 q 343 458 357 451 q 319 473 329 464 q 297 492 308 483 q 246 514 272 514 q 204 500 220 514 q 189 468 189 487 q 200 429 189 449 q 227 391 210 409 q 265 352 244 372 q 306 310 286 332 q 343 266 327 289 q 382 174 382 216 q 365 100 382 132 q 321 45 349 69 q 171 -10 258 -10 z "},"t":{"ha":393,"x_min":35,"x_max":365,"o":"m 258 681 l 233 545 l 356 545 l 350 502 l 227 502 q 224 482 227 500 q 220 441 222 464 q 214 385 217 419 q 209 319 211 351 q 203 198 203 240 q 204 142 203 157 q 208 112 205 127 q 233 81 214 81 q 274 103 247 81 q 321 146 301 124 l 342 168 l 365 146 q 210 12 304 54 q 152 -7 170 -7 q 121 10 134 -7 q 108 50 108 27 q 133 436 108 241 l 142 502 l 35 502 l 39 545 l 149 545 l 168 661 q 201 684 169 669 q 245 699 232 699 q 258 681 258 699 z "},"u":{"ha":657,"x_min":35,"x_max":629,"o":"m 149 -13 q 115 67 115 -13 q 131 251 115 113 q 147 453 147 389 q 129 485 147 485 q 113 480 121 485 l 50 453 l 35 490 q 149 536 86 514 q 231 558 212 558 q 254 529 254 558 q 244 460 254 514 q 224 319 234 407 q 215 168 215 232 q 232 103 215 103 q 270 129 244 103 q 325 199 295 156 q 380 292 354 243 q 443 482 443 407 l 443 512 q 452 544 443 534 q 483 554 460 554 l 517 554 q 531 549 525 554 q 535 526 537 543 q 524 419 534 509 q 503 135 503 226 q 518 108 503 108 q 549 134 528 108 q 588 184 571 159 l 604 210 l 629 192 q 620 176 628 190 q 604 148 613 162 q 580 114 595 134 q 505 28 548 70 q 446 -14 463 -14 q 410 53 410 -14 q 419 174 410 84 q 431 318 428 265 q 369 200 403 256 q 303 106 335 144 q 242 43 271 68 q 149 -13 178 -13 z "},"v":{"ha":532,"x_min":35,"x_max":497,"o":"m 397 515 q 439 560 397 560 q 491 517 476 560 q 497 479 497 499 q 466 318 497 417 q 397 161 434 218 q 327 69 359 103 q 267 16 295 34 q 178 -21 213 -21 q 118 68 123 -21 q 117 145 117 84 q 140 455 117 207 q 122 485 143 485 q 105 480 114 485 l 43 454 l 35 493 q 124 531 70 508 q 215 564 201 564 q 240 542 240 564 q 233 479 240 527 q 210 265 210 335 l 210 204 q 218 101 210 132 q 250 70 225 70 q 301 104 269 70 q 355 171 333 139 q 393 239 376 203 q 433 404 433 320 q 424 450 433 435 q 410 473 415 465 q 397 515 397 492 z "},"w":{"ha":850,"x_min":35,"x_max":815,"o":"m 122 109 q 122 137 122 109 q 136 295 122 166 q 150 453 150 425 q 131 482 150 482 q 128 482 129 482 q 126 481 127 481 q 123 481 125 481 q 119 479 121 480 q 113 477 117 478 q 106 474 110 475 q 96 469 102 472 q 83 464 90 467 q 66 456 77 461 q 46 447 56 452 l 35 474 q 221 558 194 558 q 249 537 249 558 q 231 372 249 529 q 214 189 214 216 q 256 74 214 74 q 314 110 278 74 q 390 221 350 146 q 467 510 447 323 q 476 540 469 531 q 504 550 484 550 l 532 550 q 555 525 555 550 q 545 454 554 499 q 524 201 524 337 q 531 99 524 117 q 545 76 539 81 q 560 72 551 72 q 589 86 570 72 q 629 123 607 100 q 672 179 650 146 q 711 247 694 211 q 751 400 751 327 q 739 454 751 436 q 715 507 715 487 q 728 538 715 527 q 764 550 741 550 q 815 483 815 550 q 781 315 815 415 q 708 157 746 216 q 640 66 670 99 q 583 15 609 32 q 452 6 488 -49 q 436 100 436 32 q 444 228 436 140 l 446 260 q 340 75 397 146 q 265 9 310 36 q 197 -18 220 -18 q 159 -8 173 -18 q 137 19 145 2 q 122 109 122 53 z "},"x":{"ha":572,"x_min":14,"x_max":551,"o":"m 14 31 q 25 56 14 43 q 45 70 37 70 q 58 66 54 70 q 65 57 63 62 q 86 44 71 44 q 117 54 100 44 q 148 77 134 63 q 239 216 208 136 q 256 315 256 261 q 219 476 256 476 q 149 410 183 476 q 133 374 140 393 l 105 389 q 108 396 105 389 q 111 403 111 402 q 114 411 111 405 q 118 420 117 417 q 123 429 119 422 q 129 440 126 436 q 136 452 132 445 q 145 465 140 459 q 168 496 159 484 q 270 555 218 555 q 319 503 304 555 q 332 421 331 457 l 332 406 q 471 546 404 513 q 509 554 489 554 q 541 542 530 554 q 551 515 551 530 q 539 487 551 499 q 517 474 526 474 q 504 478 509 474 q 497 487 500 482 q 478 500 491 500 q 439 478 465 500 q 383 417 413 455 q 321 253 321 337 q 379 100 321 154 q 403 87 393 87 q 496 204 442 87 l 529 194 q 495 122 503 134 q 479 99 488 111 q 463 76 471 86 q 410 17 437 44 q 365 -11 384 -11 q 332 -1 346 -11 q 308 25 318 9 q 289 61 298 42 q 276 101 281 81 q 261 174 265 143 q 203 78 235 116 q 154 25 172 40 q 63 -11 112 -11 q 14 31 14 -11 z "},"y":{"ha":534,"x_min":-3,"x_max":500,"o":"m 414 471 q 383 525 414 516 l 385 549 q 433 551 407 551 l 442 551 q 488 545 476 551 q 500 510 500 539 q 472 378 500 481 q 397 148 444 275 q 149 -339 299 -125 q 145 -343 148 -340 q 142 -347 143 -346 q 140 -350 141 -348 q 136 -353 138 -352 q 133 -356 135 -354 q 129 -358 131 -357 q 124 -359 126 -359 q 111 -361 119 -361 l -3 -361 l -3 -329 q 20 -324 7 -327 q 39 -320 33 -322 q 54 -314 44 -319 q 74 -301 64 -309 q 222 -127 164 -224 q 279 -1 279 -31 q 247 151 279 28 q 179 367 214 274 q 129 460 145 460 q 91 425 114 460 q 67 387 75 400 q 53 365 59 374 l 21 385 q 30 399 21 386 q 48 429 38 413 q 102 499 76 471 q 181 557 156 557 q 223 526 206 557 q 255 444 240 495 q 281 350 271 392 q 312 230 292 308 q 342 114 332 152 q 414 471 414 289 z "},"z":{"ha":625,"x_min":14,"x_max":597,"o":"m 64 -11 l 70 -52 q 46 -78 70 -78 q 23 -66 32 -78 q 14 -36 14 -55 q 21 3 14 -17 q 38 40 28 23 q 67 76 49 56 q 99 110 84 96 q 137 146 114 124 q 174 182 160 168 l 440 453 q 303 468 379 456 q 209 480 227 480 q 173 477 191 480 q 146 470 155 474 q 130 460 136 466 q 119 446 119 452 q 125 434 119 440 q 138 423 131 428 q 157 396 157 411 q 124 367 157 367 q 93 383 107 367 q 79 431 79 400 q 103 493 79 462 q 166 541 126 523 q 255 558 206 558 q 379 546 304 558 q 484 533 454 533 q 521 538 515 533 q 526 554 526 542 l 518 585 q 528 608 518 598 q 552 618 537 618 q 582 605 567 618 q 597 575 597 591 q 587 544 597 559 q 545 494 575 525 l 146 99 q 228 113 176 113 q 317 103 279 113 q 389 83 354 93 q 444 74 423 74 q 479 81 465 74 q 501 98 493 88 q 515 120 509 109 q 525 160 525 140 q 503 203 525 181 l 524 222 q 567 172 553 212 q 572 135 572 156 q 563 88 572 114 q 536 38 554 62 q 426 -17 497 -17 q 328 3 379 -17 q 94 26 170 63 q 64 -11 64 11 z "},"{":{"ha":390,"x_min":24,"x_max":367,"o":"m 135 -33 l 140 136 q 130 242 140 217 q 115 276 120 267 q 103 291 111 284 q 89 302 95 298 q 73 309 83 306 q 57 313 64 312 q 41 316 51 314 q 24 319 30 318 l 24 346 q 44 350 28 347 q 71 356 60 353 q 97 370 81 359 q 120 398 113 381 q 139 529 139 444 l 135 699 q 277 966 135 912 q 367 981 317 981 l 367 940 q 239 851 267 940 q 223 707 223 800 l 231 507 q 209 394 231 436 q 138 333 188 353 q 221 238 204 308 q 229 158 229 205 l 223 -40 q 233 -170 223 -138 q 254 -222 243 -202 q 279 -253 264 -241 q 367 -280 313 -280 l 367 -321 q 135 -33 135 -321 z "},"|":{"ha":306,"x_min":122,"x_max":183,"o":"m 122 -321 l 122 981 l 183 981 l 183 -321 l 122 -321 z "},"}":{"ha":390,"x_min":24,"x_max":367,"o":"m 251 136 l 257 -33 q 114 -307 257 -256 q 24 -321 74 -321 l 24 -280 q 163 -138 145 -280 q 168 -40 168 -98 l 161 158 q 183 271 161 228 q 254 333 204 314 q 182 394 203 353 q 161 507 161 436 q 167 707 161 507 q 138 881 167 833 q 101 921 120 911 q 24 940 66 940 l 24 981 q 224 863 167 981 q 257 699 257 795 l 251 529 q 261 424 251 448 q 275 390 270 399 q 287 375 279 381 q 301 364 295 368 q 317 357 307 360 q 344 350 332 352 q 357 348 355 348 q 367 346 363 347 l 367 319 q 350 316 361 318 q 333 313 339 314 q 317 309 327 312 q 302 302 308 306 q 288 291 296 298 q 276 276 280 284 q 266 254 271 267 q 258 224 260 240 q 251 136 251 184 z "},"~":{"ha":1383,"x_min":83,"x_max":1300,"o":"m 83 310 q 119 418 93 367 q 162 493 145 469 q 204 542 179 517 q 257 584 229 567 q 388 624 321 624 q 507 610 455 624 q 605 574 559 596 q 697 526 651 552 q 787 473 743 499 q 872 425 830 446 q 1044 375 967 375 q 1166 439 1111 375 q 1246 591 1212 491 q 1256 622 1250 600 l 1300 614 q 1295 596 1300 613 q 1284 558 1291 579 q 1265 508 1278 537 q 1237 452 1253 479 q 1196 396 1221 424 q 1141 348 1171 369 q 983 301 1076 301 q 777 349 883 301 q 630 425 714 377 q 505 493 547 472 q 328 540 408 540 q 203 478 256 540 q 134 330 160 428 q 128 300 131 316 l 83 310 z "},"":{"ha":257,"x_min":0,"x_max":0,"o":""},"":{"ha":396,"x_min":138,"x_max":314,"o":"m 176 269 q 195 391 176 269 q 218 559 214 514 q 223 611 223 605 q 225 625 224 618 q 227 636 226 632 q 231 644 229 640 q 244 650 235 650 q 267 611 267 650 q 262 505 267 604 q 247 122 247 201 q 246 39 247 43 q 243 31 245 35 q 239 25 241 28 q 232 19 237 22 q 224 14 228 16 q 214 9 221 12 q 202 4 207 6 q 188 -1 198 3 q 168 -8 178 -4 q 151 -13 158 -13 q 138 6 138 -13 q 176 269 138 24 m 251 751 q 244 751 251 751 q 217 776 236 751 q 197 817 197 801 q 220 858 197 832 q 260 883 243 883 q 295 857 276 883 q 314 814 314 830 q 291 775 314 798 q 251 751 267 751 z "},"":{"ha":593,"x_min":33,"x_max":560,"o":"m 323 606 l 424 1007 l 479 1000 l 364 602 q 487 548 437 590 q 537 450 537 506 q 514 390 537 415 q 457 365 490 365 q 404 385 425 365 q 382 426 382 405 q 390 460 382 447 q 409 482 399 474 q 436 517 436 504 q 411 546 436 530 q 354 563 386 562 l 221 72 q 333 31 266 31 q 489 99 417 31 q 529 144 516 125 l 560 115 q 548 102 559 115 q 525 77 537 90 q 489 46 512 63 q 443 15 467 28 q 322 -17 386 -17 q 204 8 258 -17 l 132 -280 l 83 -268 l 170 28 q 70 138 107 67 q 33 317 33 208 q 110 515 33 425 q 323 606 188 606 m 190 108 l 311 558 q 222 511 260 548 q 144 306 144 436 q 190 108 144 176 z "},"":{"ha":604,"x_min":24,"x_max":581,"o":"m 288 720 l 289 498 q 282 394 289 450 l 447 394 l 447 340 l 274 340 q 223 186 254 247 l 213 167 q 236 171 219 171 q 276 163 253 171 q 315 144 298 156 q 348 117 332 132 q 378 88 364 103 q 406 62 393 74 q 460 35 435 35 q 499 54 485 35 q 514 91 514 73 q 508 120 514 109 q 494 139 503 131 q 478 157 486 148 q 458 198 458 177 q 471 235 458 219 q 503 251 483 251 q 541 234 523 251 q 576 146 576 197 q 556 59 576 94 q 497 1 535 23 q 424 -21 459 -21 q 372 -16 390 -21 q 342 -4 354 -11 q 318 15 331 2 q 298 38 305 28 q 277 65 290 47 q 201 136 228 136 q 159 81 180 136 q 114 0 134 18 q 72 -18 94 -18 q 37 -3 51 -18 q 24 32 24 12 q 34 69 24 52 q 63 99 45 86 q 99 122 81 112 q 137 141 117 131 q 167 157 158 151 q 188 217 181 172 q 196 300 196 262 l 192 340 l 38 340 l 38 394 l 186 394 q 174 574 174 526 q 186 682 174 621 q 222 787 199 743 q 277 860 245 830 q 429 918 340 918 q 559 856 513 918 q 581 795 581 826 q 565 745 581 763 q 528 726 549 726 q 469 794 482 726 q 456 841 462 829 q 400 872 441 871 q 391 872 399 872 q 369 868 383 872 q 339 852 354 863 q 313 824 325 841 q 288 720 288 786 z "},"":{"ha":724,"x_min":24,"x_max":700,"o":"m 525 144 q 361 90 452 90 q 199 143 270 90 l 103 48 q 62 25 79 25 q 34 36 44 25 q 24 58 24 47 q 28 77 24 69 q 48 103 33 87 l 143 199 q 89 363 89 271 q 142 526 89 455 l 48 622 q 24 662 24 644 q 35 691 24 680 q 62 701 45 701 q 103 676 78 701 l 199 581 q 361 635 271 635 q 525 581 452 635 l 621 676 q 662 700 644 700 q 689 689 679 700 q 700 667 700 678 q 696 648 700 656 q 675 622 690 637 l 579 525 q 636 361 636 447 q 579 200 636 276 l 675 103 q 700 63 700 81 q 688 34 700 45 q 666 24 677 24 q 647 28 655 24 q 621 48 636 33 l 525 144 m 264 534 q 241 520 264 534 q 194 461 219 507 q 168 361 168 415 q 194 262 168 307 q 265 192 220 218 q 361 167 309 167 q 458 193 413 167 q 529 264 503 219 q 555 362 555 310 q 529 461 555 415 q 458 534 503 507 q 361 561 413 561 q 264 534 308 561 z "},"":{"ha":887,"x_min":38,"x_max":864,"o":"m 38 871 l 39 926 l 350 926 l 350 871 l 315 871 q 265 868 280 871 q 250 853 250 864 q 297 769 250 843 l 474 492 l 717 836 q 725 853 725 850 q 704 868 725 864 q 635 871 682 871 l 612 871 l 611 926 l 864 926 l 864 871 l 857 871 q 805 861 816 871 q 764 812 786 843 l 578 545 l 726 545 l 710 478 l 522 478 l 493 431 l 493 340 l 726 340 l 710 274 l 493 274 l 493 118 q 501 67 493 73 q 519 58 509 61 q 574 54 533 54 l 637 54 l 636 0 l 246 0 l 247 54 l 303 54 q 363 60 354 54 q 374 70 372 66 q 378 81 376 74 q 380 115 380 91 l 380 274 l 161 274 l 178 340 l 380 340 l 380 442 l 360 478 l 161 478 l 178 545 l 308 545 l 153 786 q 141 805 149 793 q 130 823 133 817 q 120 837 126 828 l 112 848 q 79 869 98 868 q 68 870 76 869 q 54 871 59 871 l 38 871 z "},"":{"ha":306,"x_min":122,"x_max":183,"o":"m 122 200 l 183 200 l 183 -321 l 122 -321 l 122 200 m 122 460 l 122 981 l 183 981 l 183 460 l 122 460 z "},"":{"ha":624,"x_min":75,"x_max":549,"o":"m 382 129 q 518 -121 518 4 q 459 -250 518 -205 q 329 -292 404 -292 q 173 -231 233 -292 q 131 -133 131 -188 q 154 -50 131 -79 q 213 -21 178 -21 q 240 -31 222 -21 q 274 -58 259 -41 q 290 -87 290 -74 q 282 -114 290 -100 q 263 -139 273 -128 q 236 -182 236 -168 q 238 -204 236 -197 q 247 -220 240 -212 q 264 -234 254 -228 q 323 -249 288 -249 q 385 -236 358 -249 q 430 -200 411 -224 q 449 -147 449 -175 q 437 -93 449 -119 q 408 -44 426 -66 q 364 4 391 -22 q 311 51 337 30 q 196 156 238 111 q 125 248 153 200 q 75 410 75 332 q 135 544 75 505 q 208 565 168 565 q 218 565 212 565 q 227 564 225 564 q 218 575 226 565 q 198 598 209 584 q 172 634 186 612 q 146 679 158 655 q 119 784 119 735 q 129 863 119 833 q 156 914 139 894 q 196 948 173 935 q 286 975 240 975 q 360 967 331 975 q 410 945 390 959 q 445 914 430 931 q 474 839 474 880 q 454 780 474 798 q 403 761 434 761 q 344 779 372 761 q 315 817 315 798 q 331 861 315 836 q 347 898 347 886 q 336 920 347 911 q 307 929 325 929 q 189 818 189 929 q 282 669 189 754 q 339 618 309 644 q 399 565 369 592 q 455 506 428 538 q 503 441 483 475 q 549 283 549 369 q 534 190 549 217 q 507 151 519 163 q 481 133 496 139 q 438 122 456 122 q 412 123 420 122 q 394 126 405 124 q 382 129 384 129 m 233 540 q 164 518 190 540 q 138 466 138 496 q 153 401 138 436 q 194 332 169 366 q 251 264 219 298 q 313 205 282 231 q 417 149 382 149 q 473 165 452 149 q 494 213 494 182 q 471 288 494 243 q 414 375 448 332 q 342 456 379 418 q 275 517 306 494 q 233 540 245 540 z "},"":{"ha":542,"x_min":146,"x_max":397,"o":"m 190 706 q 183 706 190 706 q 161 728 177 706 q 146 766 146 750 q 165 803 146 783 q 202 824 184 824 q 235 804 221 824 q 249 765 249 784 q 226 725 249 745 q 190 706 204 706 m 339 706 q 332 706 339 706 q 310 728 325 706 q 296 766 296 750 q 314 803 296 783 q 351 824 333 824 q 383 804 369 824 q 397 765 397 784 q 375 725 397 745 q 339 706 352 706 z "},"":{"ha":1122,"x_min":61,"x_max":1061,"o":"m 78 192 q 61 328 61 258 q 79 462 61 397 q 128 582 96 527 q 207 684 160 637 q 309 763 253 730 q 568 832 427 832 q 921 684 778 832 q 1044 462 1010 590 q 1061 329 1061 397 q 1044 197 1061 262 q 997 77 1028 133 q 922 -26 967 21 q 824 -107 878 -73 q 567 -178 710 -178 q 202 -32 346 -178 q 78 192 112 60 m 144 469 q 122 328 122 401 q 144 186 122 255 q 205 61 165 117 q 300 -37 245 5 q 568 -124 413 -124 q 735 -88 656 -124 q 873 7 815 -53 q 966 153 931 68 q 1000 320 1000 237 q 980 469 1000 402 q 921 591 959 536 q 830 688 882 647 q 567 777 719 777 q 302 689 416 777 q 144 469 187 601 m 284 126 q 270 146 284 126 q 241 214 255 166 q 227 312 227 262 q 237 404 227 362 q 267 480 248 447 q 313 540 287 513 q 369 587 339 568 q 433 619 399 606 q 558 645 497 645 q 665 636 619 645 q 735 618 712 628 q 779 599 759 609 q 800 589 798 589 l 800 492 q 797 469 800 469 q 787 476 793 469 q 773 493 782 482 q 751 515 764 503 q 721 540 739 528 q 681 563 703 553 q 573 586 633 586 q 466 565 513 586 q 387 507 419 543 q 319 328 319 431 q 427 105 319 194 q 590 47 496 47 q 747 98 683 47 q 795 149 776 121 q 816 176 813 176 q 818 153 818 176 l 818 76 q 656 1 759 23 q 558 -8 612 -8 q 448 8 503 -8 q 353 55 393 25 q 284 126 313 85 z "},"":{"ha":497,"x_min":61,"x_max":424,"o":"m 264 1011 q 319 943 300 1011 l 331 1006 q 357 1025 333 1025 l 368 1025 q 384 1023 381 1025 q 388 1015 388 1020 q 378 947 388 1009 q 349 703 349 758 q 362 647 349 647 q 384 664 370 647 q 403 686 398 680 l 424 669 q 330 566 380 601 q 300 554 313 554 q 275 635 275 554 q 280 732 275 649 q 212 622 236 652 q 158 573 187 591 q 119 554 130 554 q 101 557 108 554 q 87 568 94 559 q 74 589 79 576 q 61 666 61 619 q 65 739 61 712 q 78 791 68 765 q 190 962 113 884 q 264 1011 238 1011 m 163 880 q 154 863 163 880 q 131 800 144 846 q 118 716 118 753 q 131 655 118 678 q 162 632 144 632 q 214 682 179 632 q 278 794 250 732 q 306 885 306 857 q 281 937 306 913 q 239 961 256 961 q 202 938 223 961 q 163 880 182 915 z "},"":{"ha":528,"x_min":56,"x_max":472,"o":"m 239 300 l 450 485 l 472 460 l 343 300 l 472 142 l 450 115 l 239 300 m 56 300 l 267 485 l 289 460 l 160 300 l 289 142 l 267 115 l 56 300 z "},"":{"ha":1000,"x_min":111,"x_max":889,"o":"m 111 286 l 111 367 l 889 367 l 889 -46 l 807 -46 l 807 286 l 111 286 z "},"":{"ha":437,"x_min":47,"x_max":390,"o":"m 47 335 l 47 418 l 390 519 l 390 435 l 47 335 z "},"":{"ha":696,"x_min":61,"x_max":635,"o":"m 144 554 q 125 573 144 554 q 83 646 106 593 q 61 759 61 700 q 83 872 61 818 q 144 966 106 927 q 235 1028 182 1005 q 342 1052 289 1052 q 439 1037 395 1052 q 519 995 484 1022 q 580 932 554 968 q 635 758 635 856 q 558 554 635 637 q 347 468 480 468 q 235 491 289 468 q 144 554 182 514 m 227 977 q 198 960 227 977 q 137 883 170 942 q 104 757 104 825 q 137 633 104 690 q 227 544 170 577 q 353 511 283 511 q 478 544 423 511 q 563 633 534 577 q 592 748 592 689 q 573 855 592 808 q 522 937 554 902 q 351 1013 451 1013 q 227 977 284 1013 m 219 633 q 239 637 239 633 l 239 903 q 235 912 239 910 q 221 914 232 914 l 201 914 l 203 947 l 317 947 q 427 920 393 947 q 461 846 461 893 q 394 764 461 786 l 485 645 q 502 633 493 633 l 515 633 l 517 600 l 447 600 l 340 753 l 332 753 l 293 754 l 293 639 q 294 634 293 635 q 300 633 295 633 l 333 633 l 332 600 l 205 600 l 205 633 l 219 633 m 293 783 q 331 782 298 782 q 399 839 399 782 q 373 893 399 872 q 301 914 348 914 q 294 911 296 914 q 293 897 293 909 l 293 783 z "},"":{"ha":542,"x_min":153,"x_max":392,"o":"m 153 725 l 153 790 l 392 790 l 392 725 l 153 725 z "},"":{"ha":458,"x_min":61,"x_max":397,"o":"m 84 760 q 72 779 84 760 q 61 844 61 799 q 84 929 61 890 q 145 990 106 967 q 229 1013 183 1013 q 314 990 275 1013 q 375 929 352 967 q 397 850 397 890 q 384 779 397 810 q 348 726 371 748 q 229 676 299 676 q 145 699 183 676 q 84 760 106 721 m 146 928 q 128 911 146 928 q 111 844 111 893 q 146 760 111 795 q 229 725 180 725 q 313 760 278 725 q 349 844 349 795 q 313 928 349 893 q 229 963 278 963 q 146 928 180 963 z "},"":{"ha":1007,"x_min":111,"x_max":896,"o":"m 111 -32 l 111 50 l 896 50 l 896 -32 l 111 -32 m 111 401 l 111 482 q 447 478 381 482 l 469 476 q 463 779 463 532 l 545 779 q 539 500 545 563 l 537 476 q 896 482 608 482 l 896 401 q 559 406 626 401 l 537 407 q 545 104 545 352 l 463 104 q 468 386 463 323 l 469 407 q 111 401 413 401 z "},"":{"ha":536,"x_min":48,"x_max":467,"o":"z "},"":{"ha":546,"x_min":62,"x_max":476,"o":"z "},"":{"ha":542,"x_min":236,"x_max":394,"o":"m 236 650 l 307 847 l 394 847 l 275 650 l 236 650 z "},"":{"ha":719,"x_min":24,"x_max":668,"o":"m 482 -29 q 426 62 426 -29 q 440 173 426 96 q 454 253 454 250 q 451 257 454 257 q 443 249 448 257 q 428 223 437 240 q 405 184 418 206 q 327 82 373 133 q 157 -25 230 -25 q 132 -16 142 -25 q 116 5 121 -6 q 109 25 112 16 q 103 35 105 35 q 95 7 101 35 q 79 -102 79 -65 q 87 -163 79 -138 q 103 -208 95 -189 q 111 -232 111 -228 q 110 -240 111 -236 q 106 -251 109 -245 q 98 -263 102 -258 q 64 -276 85 -276 q 33 -260 42 -276 q 24 -197 24 -244 q 36 -90 24 -150 q 74 58 49 -29 q 143 345 113 197 q 178 509 173 494 q 193 525 183 525 q 218 520 201 525 q 251 493 251 511 q 220 305 251 480 q 189 112 189 130 q 191 86 189 95 q 219 61 196 61 q 275 87 241 61 q 340 155 309 114 q 405 248 372 196 q 507 442 463 342 q 533 502 527 483 q 541 522 539 520 q 560 525 546 525 q 595 517 574 525 q 615 502 615 510 q 593 406 615 494 q 528 100 528 140 q 538 77 528 86 q 563 68 548 68 q 593 82 578 68 q 616 113 608 96 q 651 157 637 157 q 668 138 668 157 q 659 97 668 119 q 632 54 650 76 q 593 13 615 32 q 482 -29 542 -29 z "},"":{"ha":974,"x_min":61,"x_max":922,"o":"m 826 -229 l 836 -194 q 703 -118 836 -149 q 578 -92 642 -104 q 335 -28 404 -60 q 214 54 267 3 q 127 170 160 105 q 61 474 61 300 q 214 831 61 690 q 439 948 307 917 q 561 964 504 964 q 653 957 618 964 q 707 939 689 950 q 744 901 744 918 q 736 878 744 885 q 720 871 729 871 q 696 878 711 871 q 667 895 682 886 q 560 920 627 920 l 482 912 l 482 -19 q 587 -35 530 -31 q 684 -45 645 -40 q 756 -54 723 -49 q 820 -70 789 -60 q 874 -94 852 -81 q 922 -180 922 -125 q 906 -239 922 -213 q 864 -265 890 -265 q 826 -229 826 -265 m 292 60 q 431 -8 345 15 l 431 899 q 292 830 346 878 l 292 60 z "},"":{"ha":279,"x_min":89,"x_max":192,"o":"m 137 406 q 128 406 137 406 q 104 427 120 406 q 89 465 89 449 q 107 502 89 481 q 144 522 126 522 q 177 502 162 522 q 192 466 192 483 q 180 436 192 450 q 137 406 155 406 z "},"":{"ha":542,"x_min":208,"x_max":437,"o":"m 275 -92 l 297 -90 q 430 -150 401 -90 q 437 -189 437 -166 q 429 -231 437 -211 q 405 -264 420 -251 q 371 -287 391 -278 q 298 -306 335 -306 q 208 -288 234 -306 l 237 -254 q 302 -268 275 -268 q 348 -248 330 -268 q 367 -202 367 -228 q 359 -164 367 -176 q 337 -144 351 -151 q 286 -132 311 -132 q 250 -133 260 -132 l 236 -110 l 280 10 l 310 10 l 275 -92 z "},"":{"ha":443,"x_min":70,"x_max":374,"o":"z "},"":{"ha":444,"x_min":61,"x_max":383,"o":"m 61 710 q 150 943 61 845 q 271 1014 212 1014 q 370 940 343 1014 q 383 862 383 904 q 371 775 383 820 q 339 692 360 731 q 292 622 318 653 q 175 554 236 554 q 115 575 141 554 q 61 710 61 619 m 144 678 q 207 597 164 597 q 257 634 232 597 q 297 726 282 672 q 311 818 311 781 q 307 879 311 855 q 296 926 303 903 q 243 978 278 978 q 161 886 201 978 q 136 770 136 826 q 144 678 136 714 z "},"":{"ha":528,"x_min":56,"x_max":472,"o":"m 239 142 l 368 300 l 239 460 l 261 485 l 472 300 l 261 115 l 239 142 m 56 142 l 185 300 l 56 460 l 78 485 l 289 300 l 78 115 l 56 142 z "},"":{"ha":1225,"x_min":70,"x_max":1162,"o":"m 697 167 q 685 174 685 167 q 722 226 685 186 q 796 305 759 265 q 1061 607 906 424 q 1077 617 1069 617 q 1082 593 1086 617 l 1058 244 l 1162 244 l 1136 167 l 1053 167 l 1040 -14 l 958 -14 l 971 167 l 697 167 m 791 244 l 976 244 l 993 474 l 791 244 m 247 -52 l 965 972 l 1036 972 l 318 -52 l 247 -52 z "},"":{"ha":1290,"x_min":70,"x_max":1221,"o":"m 1133 76 q 1149 81 1133 76 q 1187 93 1164 85 q 1215 100 1210 100 q 1221 91 1221 100 q 1210 45 1221 81 q 1194 7 1199 10 q 1188 3 1190 3 q 1146 0 1183 0 l 825 0 q 803 6 803 0 q 820 29 803 12 q 862 70 836 45 q 920 127 889 96 q 984 198 952 159 q 1042 275 1015 236 q 1100 439 1100 363 q 1045 537 1100 511 q 993 549 1020 549 q 945 544 966 549 q 912 531 923 538 q 892 516 900 524 q 866 498 874 498 q 857 513 857 498 q 872 544 858 527 q 908 576 885 562 q 1037 608 960 608 q 1160 564 1114 608 q 1206 448 1206 519 q 1112 248 1206 360 q 953 100 1052 178 q 905 57 906 62 q 947 53 905 53 q 1046 60 988 53 q 1133 76 1103 67 m 247 -52 l 965 972 l 1036 972 l 318 -52 l 247 -52 z "},"":{"ha":1272,"x_min":62,"x_max":1210,"o":"m 745 167 q 732 174 732 167 q 769 226 733 186 q 843 305 806 265 q 1108 607 954 424 q 1125 617 1116 617 q 1129 593 1133 617 l 1106 244 l 1210 244 l 1183 167 l 1100 167 l 1087 -14 l 1006 -14 l 1018 167 l 745 167 m 839 244 l 1024 244 l 1040 474 l 839 244 m 294 -52 l 1013 972 l 1083 972 l 365 -52 l 294 -52 z "},"":{"ha":505,"x_min":50,"x_max":379,"o":"m 222 74 q 276 81 231 74 q 340 87 320 87 q 360 71 360 87 q 340 29 360 51 q 261 -13 304 -13 q 157 36 215 -13 q 50 237 50 124 q 101 329 50 271 q 151 382 124 354 q 207 439 179 410 q 257 496 234 468 q 308 607 308 559 q 298 660 308 645 q 278 694 278 688 q 294 711 278 711 q 356 656 323 711 q 379 572 379 616 q 366 497 379 528 q 332 439 353 467 q 285 383 311 412 q 234 326 260 354 q 188 269 209 297 q 140 161 140 206 q 165 95 140 116 q 222 74 189 74 m 294 794 q 287 794 294 794 q 259 820 279 794 q 239 860 239 845 q 263 901 239 875 q 303 926 287 926 q 338 900 319 926 q 357 857 357 873 q 334 818 357 841 q 294 794 310 794 z "},"":{"ha":909,"x_min":28,"x_max":868,"o":"m 397 1208 l 494 1208 l 567 1011 l 517 1011 l 397 1208 m 28 0 l 28 44 l 50 44 q 92 54 79 44 q 135 118 112 67 l 525 949 l 550 949 l 746 160 q 774 66 767 78 q 791 50 782 54 q 828 44 801 44 l 868 44 l 868 0 l 545 0 l 545 44 l 585 44 q 641 49 627 44 q 655 67 655 53 q 651 97 655 81 l 590 357 l 314 357 l 205 122 q 186 68 186 79 q 203 49 186 53 q 274 44 221 44 l 300 44 l 297 0 l 28 0 m 336 411 l 578 411 l 490 761 l 336 411 z "},"":{"ha":909,"x_min":28,"x_max":868,"o":"m 504 1011 l 576 1208 l 674 1208 l 554 1011 l 504 1011 m 28 0 l 28 44 l 50 44 q 92 54 79 44 q 135 118 112 67 l 525 949 l 550 949 l 746 160 q 774 66 767 78 q 791 50 782 54 q 828 44 801 44 l 868 44 l 868 0 l 545 0 l 545 44 l 585 44 q 641 49 627 44 q 655 67 655 53 q 651 97 655 81 l 590 357 l 314 357 l 205 122 q 186 68 186 79 q 203 49 186 53 q 274 44 221 44 l 300 44 l 297 0 l 28 0 m 336 411 l 578 411 l 490 761 l 336 411 z "},"":{"ha":909,"x_min":28,"x_max":868,"o":"m 532 1138 l 447 1038 l 394 1038 q 506 1203 438 1099 l 588 1203 q 699 1038 637 1125 l 618 1038 q 571 1092 599 1059 q 532 1138 543 1124 m 28 0 l 28 44 l 50 44 q 92 54 79 44 q 135 118 112 67 l 525 949 l 550 949 l 746 160 q 774 66 767 78 q 791 50 782 54 q 828 44 801 44 l 868 44 l 868 0 l 545 0 l 545 44 l 585 44 q 641 49 627 44 q 655 67 655 53 q 651 97 655 81 l 590 357 l 314 357 l 205 122 q 186 68 186 79 q 203 49 186 53 q 274 44 221 44 l 300 44 l 297 0 l 28 0 m 336 411 l 578 411 l 490 761 l 336 411 z "},"":{"ha":909,"x_min":28,"x_max":868,"o":"m 371 1047 q 373 1056 372 1050 q 378 1076 374 1061 q 388 1105 382 1091 q 402 1136 393 1119 q 421 1164 411 1153 q 475 1193 445 1193 q 536 1177 506 1193 l 578 1154 q 621 1140 605 1140 q 649 1147 638 1140 q 668 1162 661 1153 q 692 1203 684 1182 l 711 1197 q 660 1091 699 1131 q 610 1067 636 1067 q 556 1079 584 1067 l 513 1100 q 463 1114 485 1114 q 429 1106 441 1114 q 411 1088 418 1099 q 390 1042 396 1065 l 371 1047 m 28 0 l 28 44 l 50 44 q 92 54 79 44 q 135 118 112 67 l 525 949 l 550 949 l 746 160 q 774 66 767 78 q 791 50 782 54 q 828 44 801 44 l 868 44 l 868 0 l 545 0 l 545 44 l 585 44 q 641 49 627 44 q 655 67 655 53 q 651 97 655 81 l 590 357 l 314 357 l 205 122 q 186 68 186 79 q 203 49 186 53 q 274 44 221 44 l 300 44 l 297 0 l 28 0 m 336 411 l 578 411 l 490 761 l 336 411 z "},"":{"ha":909,"x_min":28,"x_max":868,"o":"m 28 0 l 28 44 l 50 44 q 92 54 79 44 q 135 118 112 67 l 525 949 l 550 949 l 746 160 q 774 66 767 78 q 791 50 782 54 q 828 44 801 44 l 868 44 l 868 0 l 545 0 l 545 44 l 585 44 q 641 49 627 44 q 655 67 655 53 q 651 97 655 81 l 590 357 l 314 357 l 205 122 q 186 68 186 79 q 203 49 186 53 q 274 44 221 44 l 300 44 l 297 0 l 28 0 m 336 411 l 578 411 l 490 761 l 336 411 m 434 1065 q 428 1065 434 1065 q 399 1088 421 1065 q 376 1126 376 1111 q 401 1164 376 1141 q 440 1186 426 1186 q 475 1162 455 1186 q 494 1123 494 1137 q 471 1087 494 1108 q 434 1065 448 1065 m 639 1065 q 632 1065 639 1065 q 603 1088 625 1065 q 581 1126 581 1111 q 605 1164 581 1141 q 644 1186 629 1186 q 678 1162 658 1186 q 699 1122 699 1137 q 675 1087 699 1108 q 639 1065 652 1065 z "},"":{"ha":909,"x_min":28,"x_max":868,"o":"m 28 0 l 28 44 l 50 44 q 92 54 79 44 q 135 118 112 67 l 525 949 l 550 949 l 746 160 q 774 66 767 78 q 791 50 782 54 q 828 44 801 44 l 868 44 l 868 0 l 545 0 l 545 44 l 585 44 q 641 49 627 44 q 655 67 655 53 q 651 97 655 81 l 590 357 l 314 357 l 205 122 q 186 68 186 79 q 203 49 186 53 q 274 44 221 44 l 300 44 l 297 0 l 28 0 m 336 411 l 578 411 l 490 761 l 336 411 z "},"":{"ha":1336,"x_min":14,"x_max":1267,"o":"m 942 881 l 896 882 q 866 879 873 882 q 858 863 859 876 l 830 553 l 1081 553 q 1117 558 1110 553 q 1128 589 1125 564 l 1135 657 l 1165 655 l 1143 371 l 1110 372 q 1117 475 1117 466 q 1074 498 1117 498 l 825 498 l 793 129 q 790 82 790 93 q 797 67 790 71 q 824 64 803 64 l 844 64 q 1131 69 1099 64 q 1172 76 1163 74 q 1187 84 1181 79 q 1201 104 1197 91 q 1210 132 1206 117 q 1217 159 1215 148 q 1229 211 1226 198 l 1264 204 l 1217 0 l 598 0 l 602 44 l 633 44 q 678 50 669 44 q 693 86 690 57 l 718 357 l 400 357 l 217 122 q 183 68 183 78 q 201 49 183 53 q 271 44 218 44 l 297 44 l 294 0 l 14 0 l 14 44 l 36 44 q 81 61 62 44 q 135 118 101 77 l 740 850 q 751 871 751 864 q 721 882 751 882 l 645 882 l 645 926 l 1267 926 l 1267 758 l 1236 757 l 1235 829 q 1222 861 1234 853 q 1192 871 1209 869 q 1140 876 1174 874 q 942 881 1092 879 m 447 411 l 722 411 l 758 797 l 447 411 z "},"":{"ha":951,"x_min":62,"x_max":854,"o":"m 471 -92 l 493 -90 q 625 -150 597 -90 q 633 -189 633 -166 q 625 -231 633 -211 q 601 -264 616 -251 q 568 -287 587 -278 q 494 -306 531 -306 q 404 -288 432 -306 l 433 -254 q 498 -268 471 -268 q 544 -248 526 -268 q 563 -202 563 -228 q 555 -164 563 -176 q 533 -144 547 -151 q 481 -132 507 -132 q 446 -133 456 -132 l 432 -110 l 467 -15 q 122 165 224 -7 q 62 399 62 264 q 185 769 62 609 q 441 934 282 897 q 567 947 497 947 q 705 927 637 947 q 814 873 774 907 q 854 801 854 840 q 845 760 854 786 q 803 710 828 710 q 770 755 781 710 q 758 802 763 786 q 739 834 754 818 q 700 867 724 851 q 557 903 645 903 q 375 848 464 903 q 232 691 288 795 q 174 443 174 585 q 199 274 174 352 q 269 144 225 197 q 497 33 362 33 q 681 87 594 33 q 741 134 727 117 q 768 181 754 151 q 782 213 781 211 l 812 213 q 787 89 804 168 q 775 68 784 76 q 731 39 766 59 q 497 -15 637 -14 l 471 -92 z "},"":{"ha":760,"x_min":22,"x_max":690,"o":"m 286 1207 l 383 1207 l 455 1009 l 406 1009 l 286 1207 m 22 0 l 25 44 l 57 44 q 101 50 93 44 q 117 86 114 57 q 177 746 166 634 q 188 866 188 857 q 179 879 188 875 q 144 882 171 882 l 68 882 l 68 926 l 690 926 l 690 758 l 660 757 l 659 829 q 645 861 658 853 q 615 871 633 869 q 564 876 597 874 q 426 880 517 879 q 316 882 336 882 q 290 879 296 882 q 282 863 283 876 l 254 553 l 504 553 q 541 558 533 553 q 551 589 548 564 l 558 657 l 589 655 l 567 371 l 533 372 q 540 475 540 466 q 497 498 540 498 l 249 498 l 217 129 q 214 82 214 93 q 220 67 214 71 q 247 64 227 64 l 268 64 q 606 81 570 64 q 653 211 629 91 l 688 204 l 640 0 l 22 0 z "},"":{"ha":760,"x_min":22,"x_max":690,"o":"m 393 1009 l 465 1207 l 563 1207 l 443 1009 l 393 1009 m 22 0 l 25 44 l 57 44 q 101 50 93 44 q 117 86 114 57 q 177 746 166 634 q 188 866 188 857 q 179 879 188 875 q 144 882 171 882 l 68 882 l 68 926 l 690 926 l 690 758 l 660 757 l 659 829 q 645 861 658 853 q 615 871 633 869 q 564 876 597 874 q 426 880 517 879 q 316 882 336 882 q 290 879 296 882 q 282 863 283 876 l 254 553 l 504 553 q 541 558 533 553 q 551 589 548 564 l 558 657 l 589 655 l 567 371 l 533 372 q 540 475 540 466 q 497 498 540 498 l 249 498 l 217 129 q 214 82 214 93 q 220 67 214 71 q 247 64 227 64 l 268 64 q 606 81 570 64 q 653 211 629 91 l 688 204 l 640 0 l 22 0 z "},"":{"ha":760,"x_min":22,"x_max":690,"o":"m 421 1136 l 336 1036 l 283 1036 q 394 1201 327 1097 l 476 1201 q 588 1036 526 1123 l 507 1036 q 460 1090 488 1057 q 421 1136 432 1123 m 22 0 l 25 44 l 57 44 q 101 50 93 44 q 117 86 114 57 q 177 746 166 634 q 188 866 188 857 q 179 879 188 875 q 144 882 171 882 l 68 882 l 68 926 l 690 926 l 690 758 l 660 757 l 659 829 q 645 861 658 853 q 615 871 633 869 q 564 876 597 874 q 426 880 517 879 q 316 882 336 882 q 290 879 296 882 q 282 863 283 876 l 254 553 l 504 553 q 541 558 533 553 q 551 589 548 564 l 558 657 l 589 655 l 567 371 l 533 372 q 540 475 540 466 q 497 498 540 498 l 249 498 l 217 129 q 214 82 214 93 q 220 67 214 71 q 247 64 227 64 l 268 64 q 606 81 570 64 q 653 211 629 91 l 688 204 l 640 0 l 22 0 z "},"":{"ha":760,"x_min":22,"x_max":690,"o":"m 22 0 l 25 44 l 57 44 q 101 50 93 44 q 117 86 114 57 q 177 746 166 634 q 188 866 188 857 q 179 879 188 875 q 144 882 171 882 l 68 882 l 68 926 l 690 926 l 690 758 l 660 757 l 659 829 q 645 861 658 853 q 615 871 633 869 q 564 876 597 874 q 426 880 517 879 q 316 882 336 882 q 290 879 296 882 q 282 863 283 876 l 254 553 l 504 553 q 541 558 533 553 q 551 589 548 564 l 558 657 l 589 655 l 567 371 l 533 372 q 540 475 540 466 q 497 498 540 498 l 249 498 l 217 129 q 214 82 214 93 q 220 67 214 71 q 247 64 227 64 l 268 64 q 606 81 570 64 q 653 211 629 91 l 688 204 l 640 0 l 22 0 m 323 1064 q 316 1064 323 1064 q 287 1086 310 1064 q 265 1124 265 1109 q 290 1162 265 1140 q 329 1184 315 1184 q 363 1160 343 1184 q 383 1121 383 1136 q 360 1085 383 1106 q 323 1064 336 1064 m 527 1064 q 521 1064 527 1064 q 492 1086 514 1064 q 470 1124 470 1109 q 494 1162 470 1140 q 532 1184 518 1184 q 567 1160 547 1184 q 588 1121 588 1135 q 564 1085 588 1106 q 527 1064 541 1064 z "},"":{"ha":424,"x_min":29,"x_max":397,"o":"m 109 1207 l 205 1207 l 278 1009 l 228 1009 l 109 1207 m 29 0 l 31 44 l 61 44 q 111 51 104 44 q 120 65 117 57 q 128 108 125 77 l 199 828 q 200 856 200 839 q 191 878 200 873 q 150 882 182 882 l 85 882 l 86 926 l 397 926 l 394 882 q 364 882 376 882 q 342 881 352 882 q 329 881 333 881 q 319 879 326 880 q 312 876 313 877 q 306 871 310 874 q 302 864 303 867 q 299 856 301 861 q 297 844 298 850 q 296 830 297 839 l 225 114 q 222 74 222 80 q 223 64 222 69 q 227 55 223 59 q 234 49 230 51 q 248 46 238 47 q 296 44 260 44 l 354 44 l 353 0 l 29 0 z "},"":{"ha":424,"x_min":29,"x_max":397,"o":"m 215 1009 l 288 1207 l 385 1207 l 266 1009 l 215 1009 m 29 0 l 31 44 l 61 44 q 111 51 104 44 q 120 65 117 57 q 128 108 125 77 l 199 828 q 200 856 200 839 q 191 878 200 873 q 150 882 182 882 l 85 882 l 86 926 l 397 926 l 394 882 q 364 882 376 882 q 342 881 352 882 q 329 881 333 881 q 319 879 326 880 q 312 876 313 877 q 306 871 310 874 q 302 864 303 867 q 299 856 301 861 q 297 844 298 850 q 296 830 297 839 l 225 114 q 222 74 222 80 q 223 64 222 69 q 227 55 223 59 q 234 49 230 51 q 248 46 238 47 q 296 44 260 44 l 354 44 l 353 0 l 29 0 z "},"":{"ha":424,"x_min":29,"x_max":410,"o":"m 243 1136 l 158 1036 l 105 1036 q 217 1201 149 1097 l 299 1201 q 410 1036 348 1123 l 329 1036 q 282 1090 310 1057 q 243 1136 254 1123 m 29 0 l 31 44 l 61 44 q 111 51 104 44 q 120 65 117 57 q 128 108 125 77 l 199 828 q 200 856 200 839 q 191 878 200 873 q 150 882 182 882 l 85 882 l 86 926 l 397 926 l 394 882 q 364 882 376 882 q 342 881 352 882 q 329 881 333 881 q 319 879 326 880 q 312 876 313 877 q 306 871 310 874 q 302 864 303 867 q 299 856 301 861 q 297 844 298 850 q 296 830 297 839 l 225 114 q 222 74 222 80 q 223 64 222 69 q 227 55 223 59 q 234 49 230 51 q 248 46 238 47 q 296 44 260 44 l 354 44 l 353 0 l 29 0 z "},"":{"ha":424,"x_min":29,"x_max":410,"o":"m 29 0 l 31 44 l 61 44 q 111 51 104 44 q 120 65 117 57 q 128 108 125 77 l 199 828 q 200 856 200 839 q 191 878 200 873 q 150 882 182 882 l 85 882 l 86 926 l 397 926 l 394 882 q 364 882 376 882 q 342 881 352 882 q 329 881 333 881 q 319 879 326 880 q 312 876 313 877 q 306 871 310 874 q 302 864 303 867 q 299 856 301 861 q 297 844 298 850 q 296 830 297 839 l 225 114 q 222 74 222 80 q 223 64 222 69 q 227 55 223 59 q 234 49 230 51 q 248 46 238 47 q 296 44 260 44 l 354 44 l 353 0 l 29 0 m 145 1064 q 139 1064 145 1064 q 110 1086 132 1064 q 87 1124 87 1109 q 112 1162 87 1140 q 151 1184 137 1184 q 186 1160 166 1184 q 205 1121 205 1136 q 182 1085 205 1106 q 145 1064 159 1064 m 350 1064 q 343 1064 350 1064 q 314 1086 336 1064 q 292 1124 292 1109 q 316 1162 292 1140 q 355 1184 340 1184 q 389 1160 369 1184 q 410 1121 410 1135 q 387 1085 410 1106 q 350 1064 363 1064 z "},"":{"ha":1012,"x_min":31,"x_max":943,"o":"m 144 497 l 174 858 q 163 879 174 875 q 111 882 153 882 l 53 882 l 56 926 l 425 926 q 714 890 619 926 q 801 840 766 869 q 869 764 837 810 q 943 518 943 659 q 905 323 943 420 q 720 89 847 177 q 390 0 592 0 l 31 0 l 33 44 l 58 44 q 102 51 94 44 q 113 86 111 57 l 140 443 l 52 443 l 56 497 l 144 497 m 221 194 q 215 104 215 125 q 216 76 215 83 q 219 65 217 70 q 225 56 222 60 q 234 51 228 53 q 247 47 241 48 q 264 45 253 46 q 315 44 283 44 l 406 44 q 717 170 604 44 q 832 498 832 298 q 729 782 832 676 q 451 882 630 882 l 313 882 q 281 877 286 882 q 274 846 274 871 l 246 497 l 532 497 l 528 443 l 242 443 l 221 194 z "},"":{"ha":1039,"x_min":42,"x_max":1025,"o":"m 386 1046 q 388 1054 387 1049 q 393 1074 389 1059 q 403 1103 398 1089 q 417 1134 408 1117 q 436 1163 426 1151 q 490 1192 460 1192 q 551 1175 521 1192 l 593 1153 q 637 1139 620 1139 q 665 1145 653 1139 q 684 1161 676 1152 q 707 1201 699 1180 l 726 1196 q 675 1089 714 1129 q 625 1065 652 1065 q 571 1078 599 1065 l 528 1099 q 478 1112 500 1112 q 445 1105 456 1112 q 426 1087 433 1097 q 406 1040 411 1063 l 386 1046 m 243 772 q 192 71 192 158 q 221 45 192 46 q 233 44 225 44 l 310 44 l 308 0 l 44 0 l 47 44 l 78 44 q 126 50 120 44 q 134 64 132 56 q 140 104 139 75 l 201 818 q 183 840 194 827 q 169 858 173 853 q 157 869 164 863 q 145 877 149 875 q 131 880 142 878 q 112 882 120 882 l 42 882 l 44 926 l 258 926 l 812 144 l 861 645 q 870 728 864 673 q 882 850 882 830 q 873 876 882 870 q 835 882 864 882 l 767 882 l 768 926 l 1025 926 l 1022 882 l 987 882 q 942 875 948 882 q 935 864 937 867 q 932 854 933 861 q 912 678 925 819 l 844 10 q 837 -21 842 -19 q 826 -24 833 -24 q 815 -20 820 -24 q 797 1 810 -16 l 243 772 z "},"":{"ha":1011,"x_min":62,"x_max":942,"o":"m 407 1207 l 504 1207 l 576 1009 l 526 1009 l 407 1207 m 62 413 q 78 557 62 487 q 123 686 94 627 q 195 795 152 746 q 291 880 238 845 q 545 953 402 953 q 814 854 709 953 q 942 522 942 734 q 848 198 942 348 q 685 40 787 100 q 446 -22 581 -22 q 117 166 222 -22 q 62 413 62 265 m 176 438 q 193 291 176 360 q 238 175 209 223 q 304 93 266 126 q 476 28 378 28 q 644 83 563 28 q 774 245 723 137 q 828 511 828 356 q 701 846 828 738 q 529 908 626 908 q 361 856 443 908 q 230 699 281 804 q 176 438 176 592 z "},"":{"ha":1011,"x_min":62,"x_max":942,"o":"m 514 1009 l 586 1207 l 683 1207 l 564 1009 l 514 1009 m 62 413 q 78 557 62 487 q 123 686 94 627 q 195 795 152 746 q 291 880 238 845 q 545 953 402 953 q 814 854 709 953 q 942 522 942 734 q 848 198 942 348 q 685 40 787 100 q 446 -22 581 -22 q 117 166 222 -22 q 62 413 62 265 m 176 438 q 193 291 176 360 q 238 175 209 223 q 304 93 266 126 q 476 28 378 28 q 644 83 563 28 q 774 245 723 137 q 828 511 828 356 q 701 846 828 738 q 529 908 626 908 q 361 856 443 908 q 230 699 281 804 q 176 438 176 592 z "},"":{"ha":1011,"x_min":62,"x_max":942,"o":"m 542 1136 l 457 1036 l 404 1036 q 515 1201 448 1097 l 597 1201 q 708 1036 647 1123 l 628 1036 q 581 1090 608 1057 q 542 1136 553 1123 m 62 413 q 78 557 62 487 q 123 686 94 627 q 195 795 152 746 q 291 880 238 845 q 545 953 402 953 q 814 854 709 953 q 942 522 942 734 q 848 198 942 348 q 685 40 787 100 q 446 -22 581 -22 q 117 166 222 -22 q 62 413 62 265 m 176 438 q 193 291 176 360 q 238 175 209 223 q 304 93 266 126 q 476 28 378 28 q 644 83 563 28 q 774 245 723 137 q 828 511 828 356 q 701 846 828 738 q 529 908 626 908 q 361 856 443 908 q 230 699 281 804 q 176 438 176 592 z "},"":{"ha":1011,"x_min":62,"x_max":942,"o":"m 380 1046 q 382 1054 381 1049 q 388 1074 383 1059 q 397 1103 392 1089 q 411 1134 402 1117 q 430 1163 420 1151 q 485 1192 454 1192 q 546 1175 515 1192 l 587 1153 q 631 1139 614 1139 q 659 1145 647 1139 q 678 1161 670 1152 q 701 1201 693 1180 l 721 1196 q 670 1089 709 1129 q 620 1065 646 1065 q 565 1078 593 1065 l 522 1099 q 472 1112 494 1112 q 439 1105 450 1112 q 420 1087 427 1097 q 400 1040 405 1063 l 380 1046 m 62 413 q 78 557 62 487 q 123 686 94 627 q 195 795 152 746 q 291 880 238 845 q 545 953 402 953 q 814 854 709 953 q 942 522 942 734 q 848 198 942 348 q 685 40 787 100 q 446 -22 581 -22 q 117 166 222 -22 q 62 413 62 265 m 176 438 q 193 291 176 360 q 238 175 209 223 q 304 93 266 126 q 476 28 378 28 q 644 83 563 28 q 774 245 723 137 q 828 511 828 356 q 701 846 828 738 q 529 908 626 908 q 361 856 443 908 q 230 699 281 804 q 176 438 176 592 z "},"":{"ha":1011,"x_min":62,"x_max":942,"o":"m 62 413 q 78 557 62 487 q 123 686 94 627 q 195 795 152 746 q 291 880 238 845 q 545 953 402 953 q 814 854 709 953 q 942 522 942 734 q 848 198 942 348 q 685 40 787 100 q 446 -22 581 -22 q 117 166 222 -22 q 62 413 62 265 m 176 438 q 193 291 176 360 q 238 175 209 223 q 304 93 266 126 q 476 28 378 28 q 644 83 563 28 q 774 245 723 137 q 828 511 828 356 q 701 846 828 738 q 529 908 626 908 q 361 856 443 908 q 230 699 281 804 q 176 438 176 592 m 444 1064 q 437 1064 444 1064 q 408 1086 430 1064 q 386 1124 386 1109 q 411 1162 386 1140 q 450 1184 435 1184 q 484 1160 464 1184 q 504 1121 504 1136 q 480 1085 504 1106 q 444 1064 457 1064 m 648 1064 q 641 1064 648 1064 q 613 1086 635 1064 q 590 1124 590 1109 q 615 1162 590 1140 q 653 1184 639 1184 q 688 1160 667 1184 q 708 1121 708 1135 q 685 1085 708 1106 q 648 1064 662 1064 z "},"":{"ha":818,"x_min":83,"x_max":735,"o":"m 83 58 q 345 314 300 275 l 360 327 q 83 594 342 335 l 142 651 q 408 375 379 414 q 676 651 430 405 l 735 594 q 473 339 515 374 l 458 327 q 735 58 488 305 l 676 1 q 421 262 466 212 l 408 278 q 142 1 379 238 l 83 58 z "},"":{"ha":1011,"x_min":62,"x_max":942,"o":"m 62 413 q 195 795 62 642 q 545 953 332 953 q 726 914 646 953 l 778 1003 l 822 978 l 771 889 q 923 665 884 812 q 942 532 942 597 q 931 410 942 466 q 900 300 921 354 q 848 198 878 247 q 776 110 818 150 q 685 40 734 69 q 446 -22 581 -22 q 268 18 347 -22 l 185 -125 l 140 -100 l 223 44 q 105 191 148 98 q 62 413 62 283 m 176 442 q 271 126 176 240 l 692 853 q 529 908 620 908 q 361 856 443 908 q 230 699 281 804 q 176 442 176 592 m 308 89 q 476 28 381 28 q 644 83 563 28 q 774 245 723 137 q 828 511 828 356 q 729 818 828 710 l 308 89 z "},"":{"ha":971,"x_min":42,"x_max":929,"o":"m 362 1207 l 459 1207 l 532 1009 l 482 1009 l 362 1207 m 690 -26 q 669 4 669 -26 q 670 20 669 9 q 675 149 673 86 q 640 85 666 122 q 386 -31 559 -31 q 164 31 220 -31 q 126 97 135 62 q 114 204 114 154 q 136 537 114 255 q 158 839 158 820 q 155 868 158 859 q 144 879 152 877 q 118 882 137 882 l 42 882 l 43 926 l 378 926 l 375 882 l 310 882 q 266 863 271 882 q 261 839 263 854 q 217 236 217 282 q 221 165 217 190 q 238 114 225 140 q 270 71 250 89 q 397 31 314 31 q 635 156 557 31 q 672 245 665 203 q 683 303 680 286 q 688 367 688 341 l 722 814 q 724 848 724 825 q 714 876 724 870 q 669 882 704 882 l 598 882 l 600 926 l 929 926 l 929 882 l 868 882 q 830 864 837 882 q 820 746 827 855 q 800 481 812 637 q 783 269 788 325 q 773 119 773 155 q 779 74 773 83 q 798 65 785 65 q 882 104 811 65 l 897 70 q 772 5 838 36 q 690 -26 706 -26 z "},"":{"ha":971,"x_min":42,"x_max":929,"o":"m 469 1009 l 542 1207 l 639 1207 l 519 1009 l 469 1009 m 690 -26 q 669 4 669 -26 q 670 20 669 9 q 675 149 673 86 q 640 85 666 122 q 386 -31 559 -31 q 164 31 220 -31 q 126 97 135 62 q 114 204 114 154 q 136 537 114 255 q 158 839 158 820 q 155 868 158 859 q 144 879 152 877 q 118 882 137 882 l 42 882 l 43 926 l 378 926 l 375 882 l 310 882 q 266 863 271 882 q 261 839 263 854 q 217 236 217 282 q 221 165 217 190 q 238 114 225 140 q 270 71 250 89 q 397 31 314 31 q 635 156 557 31 q 672 245 665 203 q 683 303 680 286 q 688 367 688 341 l 722 814 q 724 848 724 825 q 714 876 724 870 q 669 882 704 882 l 598 882 l 600 926 l 929 926 l 929 882 l 868 882 q 830 864 837 882 q 820 746 827 855 q 800 481 812 637 q 783 269 788 325 q 773 119 773 155 q 779 74 773 83 q 798 65 785 65 q 882 104 811 65 l 897 70 q 772 5 838 36 q 690 -26 706 -26 z "},"":{"ha":971,"x_min":42,"x_max":929,"o":"m 497 1136 l 412 1036 l 359 1036 q 471 1201 403 1097 l 553 1201 q 664 1036 602 1123 l 583 1036 q 536 1090 564 1057 q 497 1136 508 1123 m 690 -26 q 669 4 669 -26 q 670 20 669 9 q 675 149 673 86 q 640 85 666 122 q 386 -31 559 -31 q 164 31 220 -31 q 126 97 135 62 q 114 204 114 154 q 136 537 114 255 q 158 839 158 820 q 155 868 158 859 q 144 879 152 877 q 118 882 137 882 l 42 882 l 43 926 l 378 926 l 375 882 l 310 882 q 266 863 271 882 q 261 839 263 854 q 217 236 217 282 q 221 165 217 190 q 238 114 225 140 q 270 71 250 89 q 397 31 314 31 q 635 156 557 31 q 672 245 665 203 q 683 303 680 286 q 688 367 688 341 l 722 814 q 724 848 724 825 q 714 876 724 870 q 669 882 704 882 l 598 882 l 600 926 l 929 926 l 929 882 l 868 882 q 830 864 837 882 q 820 746 827 855 q 800 481 812 637 q 783 269 788 325 q 773 119 773 155 q 779 74 773 83 q 798 65 785 65 q 882 104 811 65 l 897 70 q 772 5 838 36 q 690 -26 706 -26 z "},"":{"ha":971,"x_min":42,"x_max":929,"o":"m 690 -26 q 669 4 669 -26 q 670 20 669 9 q 675 149 673 86 q 640 85 666 122 q 386 -31 559 -31 q 164 31 220 -31 q 126 97 135 62 q 114 204 114 154 q 136 537 114 255 q 158 839 158 820 q 155 868 158 859 q 144 879 152 877 q 118 882 137 882 l 42 882 l 43 926 l 378 926 l 375 882 l 310 882 q 266 863 271 882 q 261 839 263 854 q 217 236 217 282 q 221 165 217 190 q 238 114 225 140 q 270 71 250 89 q 397 31 314 31 q 635 156 557 31 q 672 245 665 203 q 683 303 680 286 q 688 367 688 341 l 722 814 q 724 848 724 825 q 714 876 724 870 q 669 882 704 882 l 598 882 l 600 926 l 929 926 l 929 882 l 868 882 q 830 864 837 882 q 820 746 827 855 q 800 481 812 637 q 783 269 788 325 q 773 119 773 155 q 779 74 773 83 q 798 65 785 65 q 882 104 811 65 l 897 70 q 772 5 838 36 q 690 -26 706 -26 m 399 1064 q 393 1064 399 1064 q 364 1086 386 1064 q 341 1124 341 1109 q 366 1162 341 1140 q 405 1184 391 1184 q 440 1160 420 1184 q 459 1121 459 1136 q 436 1085 459 1106 q 399 1064 413 1064 m 604 1064 q 597 1064 604 1064 q 568 1086 590 1064 q 546 1124 546 1109 q 570 1162 546 1140 q 609 1184 594 1184 q 643 1160 623 1184 q 664 1121 664 1135 q 641 1085 664 1106 q 604 1064 617 1064 z "},"":{"ha":808,"x_min":14,"x_max":794,"o":"m 393 1009 l 465 1207 l 563 1207 l 443 1009 l 393 1009 m 396 108 l 394 74 q 405 50 394 55 q 442 44 419 44 l 512 44 l 511 0 l 150 0 l 153 44 l 215 44 q 271 55 258 44 q 286 105 283 66 l 310 442 l 115 835 q 89 874 100 866 q 50 882 77 882 l 14 882 l 15 926 l 321 926 l 317 882 l 276 882 q 240 878 251 882 q 229 859 229 874 q 248 804 229 844 q 268 763 267 765 q 269 760 268 762 q 271 757 270 759 l 394 504 l 589 821 q 607 863 607 850 q 596 879 607 876 q 558 882 585 882 l 524 882 l 524 926 l 794 926 l 793 882 l 750 882 q 707 869 724 882 q 635 778 684 851 l 418 447 l 396 108 z "},"":{"ha":771,"x_min":28,"x_max":729,"o":"m 126 108 l 180 846 q 174 876 180 870 q 131 882 165 882 l 67 882 l 68 926 l 385 926 l 383 882 q 343 882 358 882 q 318 881 327 882 q 306 881 309 881 q 297 879 302 880 q 289 876 291 877 q 285 871 288 874 q 281 864 281 867 q 279 856 281 862 q 277 844 278 849 q 276 830 277 840 l 270 739 l 397 739 q 645 678 560 739 q 729 502 729 617 q 574 250 729 340 q 361 194 480 194 q 232 207 292 194 l 227 126 q 225 102 226 114 q 223 83 223 90 q 224 69 223 75 q 227 59 225 63 q 233 52 229 55 q 241 48 237 50 q 253 45 245 46 q 288 44 265 44 l 347 44 l 347 0 l 28 0 l 31 44 l 76 44 q 114 51 109 44 q 121 65 119 57 q 126 108 125 78 m 235 244 q 325 239 279 239 q 412 249 370 239 q 484 276 455 259 q 536 314 513 292 q 573 359 559 336 q 595 406 586 381 q 610 482 610 447 q 603 543 610 516 q 585 590 596 570 q 557 625 574 609 q 522 652 540 642 q 481 671 504 663 q 438 683 458 679 q 393 690 418 688 q 320 694 357 694 q 274 689 282 694 q 265 664 266 684 l 235 244 z "},"":{"ha":725,"x_min":0,"x_max":683,"o":"m 99 -358 q 78 -358 99 -358 q 28 -339 57 -358 q 0 -291 0 -320 q 12 -242 0 -261 q 37 -223 23 -223 q 57 -226 51 -223 q 68 -235 63 -229 q 76 -245 73 -241 q 83 -259 78 -249 q 143 -310 109 -310 q 197 -193 181 -310 q 216 35 205 -125 q 231 258 227 196 q 241 399 236 319 q 275 738 261 669 q 305 839 289 807 q 353 903 320 870 q 504 975 425 975 q 571 955 544 975 q 617 910 598 936 q 636 863 636 885 q 634 828 636 840 q 625 803 631 817 q 614 779 618 789 q 598 751 609 770 q 507 531 507 588 q 532 448 507 487 q 576 384 557 409 q 614 333 595 359 q 648 280 633 307 q 683 176 683 221 q 668 100 683 132 q 628 45 653 69 q 483 -10 570 -10 q 370 24 395 -10 q 357 72 357 38 q 390 140 357 140 q 418 114 408 140 q 467 46 439 61 q 503 39 483 39 q 574 68 548 39 q 600 129 600 96 q 591 185 600 162 q 568 230 582 208 q 537 274 554 252 q 502 321 519 297 q 471 368 485 345 q 439 460 439 421 q 452 539 439 499 q 483 620 465 579 q 519 698 501 660 q 564 806 564 789 q 561 836 564 823 q 550 863 558 848 q 532 890 543 878 q 475 918 507 918 q 426 909 443 918 q 395 879 409 900 q 372 823 381 859 q 341 609 353 754 q 315 245 329 464 q 291 -83 301 26 q 252 -258 280 -192 q 173 -345 225 -323 q 99 -358 141 -358 z "},"":{"ha":515,"x_min":35,"x_max":488,"o":"m 226 847 l 310 847 l 332 650 l 293 650 l 226 847 m 333 -15 q 303 85 303 -15 q 310 207 303 119 q 228 75 264 120 q 156 8 192 31 q 107 -15 120 -15 q 85 -12 94 -15 q 67 2 76 -8 q 51 28 57 12 q 35 124 35 67 q 39 215 35 182 q 56 281 44 249 q 231 525 111 426 q 284 555 267 555 q 314 547 301 555 q 334 526 326 538 q 358 471 350 500 l 372 549 q 404 572 376 572 l 418 572 q 439 569 434 572 q 443 559 443 567 q 431 475 443 552 q 394 171 394 242 q 411 100 394 100 q 430 111 421 100 q 442 125 439 121 q 452 136 446 129 q 463 149 458 143 l 488 129 q 371 0 422 37 q 333 -15 349 -15 m 144 354 q 136 335 144 354 q 116 270 127 316 q 105 181 105 223 q 122 110 105 139 q 158 82 139 82 q 208 121 176 82 q 269 211 240 159 q 319 318 298 263 q 340 398 340 373 q 325 445 340 423 q 290 480 310 467 q 256 493 270 493 q 222 475 241 493 q 182 425 202 457 q 144 354 162 393 z "},"":{"ha":515,"x_min":35,"x_max":488,"o":"m 292 650 l 362 847 l 450 847 l 331 650 l 292 650 m 333 -15 q 303 85 303 -15 q 310 207 303 119 q 228 75 264 120 q 156 8 192 31 q 107 -15 120 -15 q 85 -12 94 -15 q 67 2 76 -8 q 51 28 57 12 q 35 124 35 67 q 39 215 35 182 q 56 281 44 249 q 231 525 111 426 q 284 555 267 555 q 314 547 301 555 q 334 526 326 538 q 358 471 350 500 l 372 549 q 404 572 376 572 l 418 572 q 439 569 434 572 q 443 559 443 567 q 431 475 443 552 q 394 171 394 242 q 411 100 394 100 q 430 111 421 100 q 442 125 439 121 q 452 136 446 129 q 463 149 458 143 l 488 129 q 371 0 422 37 q 333 -15 349 -15 m 144 354 q 136 335 144 354 q 116 270 127 316 q 105 181 105 223 q 122 110 105 139 q 158 82 139 82 q 208 121 176 82 q 269 211 240 159 q 319 318 298 263 q 340 398 340 373 q 325 445 340 423 q 290 480 310 467 q 256 493 270 493 q 222 475 241 493 q 182 425 202 457 q 144 354 162 393 z "},"":{"ha":515,"x_min":35,"x_max":488,"o":"m 207 650 q 306 844 275 772 l 354 844 q 424 650 381 751 l 358 650 q 333 724 345 682 q 318 777 321 766 q 251 650 288 714 l 207 650 m 333 -15 q 303 85 303 -15 q 310 207 303 119 q 228 75 264 120 q 156 8 192 31 q 107 -15 120 -15 q 85 -12 94 -15 q 67 2 76 -8 q 51 28 57 12 q 35 124 35 67 q 39 215 35 182 q 56 281 44 249 q 231 525 111 426 q 284 555 267 555 q 314 547 301 555 q 334 526 326 538 q 358 471 350 500 l 372 549 q 404 572 376 572 l 418 572 q 439 569 434 572 q 443 559 443 567 q 431 475 443 552 q 394 171 394 242 q 411 100 394 100 q 430 111 421 100 q 442 125 439 121 q 452 136 446 129 q 463 149 458 143 l 488 129 q 371 0 422 37 q 333 -15 349 -15 m 144 354 q 136 335 144 354 q 116 270 127 316 q 105 181 105 223 q 122 110 105 139 q 158 82 139 82 q 208 121 176 82 q 269 211 240 159 q 319 318 298 263 q 340 398 340 373 q 325 445 340 423 q 290 480 310 467 q 256 493 270 493 q 222 475 241 493 q 182 425 202 457 q 144 354 162 393 z "},"":{"ha":515,"x_min":35,"x_max":488,"o":"m 257 738 q 205 665 222 738 l 190 669 q 230 787 198 739 q 276 815 250 815 q 323 800 302 815 l 358 778 q 396 764 379 764 q 449 825 429 764 l 465 821 q 380 690 439 690 q 339 701 359 690 l 304 724 q 257 738 281 738 m 333 -15 q 303 85 303 -15 q 310 207 303 119 q 228 75 264 120 q 156 8 192 31 q 107 -15 120 -15 q 85 -12 94 -15 q 67 2 76 -8 q 51 28 57 12 q 35 124 35 67 q 39 215 35 182 q 56 281 44 249 q 231 525 111 426 q 284 555 267 555 q 314 547 301 555 q 334 526 326 538 q 358 471 350 500 l 372 549 q 404 572 376 572 l 418 572 q 439 569 434 572 q 443 559 443 567 q 431 475 443 552 q 394 171 394 242 q 411 100 394 100 q 430 111 421 100 q 442 125 439 121 q 452 136 446 129 q 463 149 458 143 l 488 129 q 371 0 422 37 q 333 -15 349 -15 m 144 354 q 136 335 144 354 q 116 270 127 316 q 105 181 105 223 q 122 110 105 139 q 158 82 139 82 q 208 121 176 82 q 269 211 240 159 q 319 318 298 263 q 340 398 340 373 q 325 445 340 423 q 290 480 310 467 q 256 493 270 493 q 222 475 241 493 q 182 425 202 457 q 144 354 162 393 z "},"":{"ha":515,"x_min":35,"x_max":488,"o":"m 333 -15 q 303 85 303 -15 q 310 207 303 119 q 228 75 264 120 q 156 8 192 31 q 107 -15 120 -15 q 85 -12 94 -15 q 67 2 76 -8 q 51 28 57 12 q 35 124 35 67 q 39 215 35 182 q 56 281 44 249 q 231 525 111 426 q 284 555 267 555 q 314 547 301 555 q 334 526 326 538 q 358 471 350 500 l 372 549 q 404 572 376 572 l 418 572 q 439 569 434 572 q 443 559 443 567 q 431 475 443 552 q 394 171 394 242 q 411 100 394 100 q 430 111 421 100 q 442 125 439 121 q 452 136 446 129 q 463 149 458 143 l 488 129 q 371 0 422 37 q 333 -15 349 -15 m 144 354 q 136 335 144 354 q 116 270 127 316 q 105 181 105 223 q 122 110 105 139 q 158 82 139 82 q 208 121 176 82 q 269 211 240 159 q 319 318 298 263 q 340 398 340 373 q 325 445 340 423 q 290 480 310 467 q 256 493 270 493 q 222 475 241 493 q 182 425 202 457 q 144 354 162 393 m 246 706 q 239 706 246 706 q 217 728 232 706 q 201 766 201 750 q 221 803 201 783 q 258 824 240 824 q 290 804 276 824 q 304 765 304 784 q 282 725 304 745 q 246 706 259 706 m 394 706 q 388 706 394 706 q 366 728 381 706 q 351 766 351 750 q 370 803 351 783 q 407 824 388 824 q 439 804 425 824 q 453 765 453 784 q 430 725 453 745 q 394 706 408 706 z "},"":{"ha":515,"x_min":35,"x_max":488,"o":"m 352 647 q 330 647 352 647 q 272 677 307 647 q 236 741 236 706 q 252 802 236 775 q 294 847 268 829 q 357 865 320 865 q 427 831 393 865 q 461 754 461 797 q 429 679 461 711 q 352 647 396 647 m 295 791 q 292 785 295 791 q 286 769 289 779 q 283 740 283 758 q 302 705 283 721 q 349 689 320 689 q 412 754 412 689 q 369 818 412 805 q 344 821 359 821 q 315 812 329 821 q 295 791 301 804 m 333 -15 q 303 85 303 -15 q 310 207 303 119 q 228 75 264 120 q 156 8 192 31 q 107 -15 120 -15 q 85 -12 94 -15 q 67 2 76 -8 q 51 28 57 12 q 35 124 35 67 q 39 215 35 182 q 56 281 44 249 q 231 525 111 426 q 284 555 267 555 q 314 547 301 555 q 334 526 326 538 q 358 471 350 500 l 372 549 q 404 572 376 572 l 418 572 q 439 569 434 572 q 443 559 443 567 q 431 475 443 552 q 394 171 394 242 q 411 100 394 100 q 430 111 421 100 q 442 125 439 121 q 452 136 446 129 q 463 149 458 143 l 488 129 q 371 0 422 37 q 333 -15 349 -15 m 144 354 q 136 335 144 354 q 116 270 127 316 q 105 181 105 223 q 122 110 105 139 q 158 82 139 82 q 208 121 176 82 q 269 211 240 159 q 319 318 298 263 q 340 398 340 373 q 325 445 340 423 q 290 480 310 467 q 256 493 270 493 q 222 475 241 493 q 182 425 202 457 q 144 354 162 393 z "},"":{"ha":679,"x_min":35,"x_max":659,"o":"m 51 28 q 47 37 51 28 q 39 73 44 45 q 35 142 35 101 q 39 215 35 182 q 56 281 44 249 q 231 525 111 426 q 283 555 267 555 q 310 545 299 555 q 329 519 321 534 q 356 454 346 488 l 372 549 q 404 572 376 572 l 418 572 q 439 569 434 572 q 443 560 443 567 q 437 535 443 553 q 422 492 431 517 q 410 451 414 467 q 484 522 439 490 q 549 553 528 553 q 592 542 570 553 q 632 516 614 531 q 650 493 650 501 q 626 456 650 485 q 567 390 603 427 q 396 235 479 297 q 452 92 396 122 q 483 85 466 85 q 635 168 546 85 q 637 171 636 170 l 659 139 q 479 10 562 47 q 427 -5 444 -5 q 398 -1 410 -5 q 372 13 386 3 q 347 40 358 24 q 321 143 321 76 q 327 246 321 209 q 217 61 283 145 q 156 8 192 31 q 107 -15 120 -15 q 85 -12 94 -15 q 67 2 76 -8 q 51 28 57 12 m 144 354 q 136 335 144 354 q 116 270 127 316 q 105 181 105 223 q 122 110 105 139 q 158 82 139 82 q 208 121 176 82 q 269 211 240 159 q 319 318 298 263 q 340 398 340 373 q 325 445 340 423 q 290 480 310 467 q 256 493 270 493 q 222 475 241 493 q 182 425 202 457 q 144 354 162 393 m 394 265 q 414 284 395 266 q 455 323 433 302 q 500 369 477 345 q 555 437 555 424 q 550 462 555 450 q 535 481 544 474 q 500 493 517 493 q 466 478 484 493 q 432 437 448 463 q 394 276 394 376 l 394 265 z "},"":{"ha":385,"x_min":28,"x_max":364,"o":"m 121 -92 l 143 -90 q 275 -150 247 -90 q 283 -191 283 -166 q 270 -240 283 -216 q 235 -277 257 -263 q 149 -306 191 -306 q 54 -288 82 -306 l 83 -254 q 148 -268 121 -268 q 194 -248 176 -268 q 213 -202 213 -228 q 205 -164 213 -176 q 183 -144 197 -151 q 132 -132 158 -132 q 96 -133 106 -132 l 82 -110 l 119 -10 q 89 5 101 -6 q 28 153 28 54 q 71 378 28 260 q 214 541 117 504 q 290 555 250 555 q 347 542 330 555 q 364 511 364 528 q 332 458 364 458 q 292 472 317 458 q 205 497 244 497 q 156 456 181 497 q 116 354 132 415 q 100 249 100 293 q 105 179 100 205 q 119 135 111 153 q 138 105 127 117 q 160 86 149 92 q 180 81 171 81 q 201 83 190 81 q 221 89 211 85 q 241 99 230 93 q 260 110 251 104 q 278 123 268 115 q 294 136 287 131 q 308 149 300 141 q 320 160 316 157 q 330 170 324 164 q 336 176 336 176 l 356 160 q 349 151 353 157 q 331 129 345 145 q 304 98 318 113 q 270 64 291 83 q 231 31 250 45 q 149 -10 186 -3 l 121 -92 z "},"":{"ha":389,"x_min":28,"x_max":368,"o":"m 182 847 l 265 847 l 288 650 l 249 650 l 182 847 m 55 40 q 49 47 55 40 q 36 82 43 55 q 28 160 28 108 q 44 285 28 212 q 76 394 60 358 q 100 443 93 431 q 115 466 107 456 q 130 482 124 476 q 146 496 135 489 q 161 507 156 504 q 178 518 165 510 q 202 532 190 525 q 258 553 235 553 q 302 542 280 553 q 342 516 324 531 q 360 493 360 501 q 336 456 360 485 q 277 390 312 427 q 105 235 189 297 q 161 92 105 122 q 193 85 176 85 q 345 168 256 85 q 347 171 346 170 l 368 139 q 189 10 271 47 q 137 -5 154 -5 q 107 -1 119 -5 q 81 13 95 3 q 55 40 66 24 m 104 265 q 124 284 104 266 q 165 323 143 302 q 210 369 187 345 q 265 435 265 424 q 247 479 265 464 q 211 493 229 493 q 175 478 193 493 q 141 437 157 463 q 104 276 104 376 l 104 265 z "},"":{"ha":389,"x_min":28,"x_max":406,"o":"m 247 650 l 318 847 l 406 847 l 286 650 l 247 650 m 55 40 q 49 47 55 40 q 36 82 43 55 q 28 160 28 108 q 44 285 28 212 q 76 394 60 358 q 100 443 93 431 q 115 466 107 456 q 130 482 124 476 q 146 496 135 489 q 161 507 156 504 q 178 518 165 510 q 202 532 190 525 q 258 553 235 553 q 302 542 280 553 q 342 516 324 531 q 360 493 360 501 q 336 456 360 485 q 277 390 312 427 q 105 235 189 297 q 161 92 105 122 q 193 85 176 85 q 345 168 256 85 q 347 171 346 170 l 368 139 q 189 10 271 47 q 137 -5 154 -5 q 107 -1 119 -5 q 81 13 95 3 q 55 40 66 24 m 104 265 q 124 284 104 266 q 165 323 143 302 q 210 369 187 345 q 265 435 265 424 q 247 479 265 464 q 211 493 229 493 q 175 478 193 493 q 141 437 157 463 q 104 276 104 376 l 104 265 z "},"":{"ha":389,"x_min":28,"x_max":379,"o":"m 162 650 q 261 844 231 772 l 310 844 q 379 650 337 751 l 314 650 q 288 724 300 682 q 274 777 277 766 q 207 650 243 714 l 162 650 m 55 40 q 49 47 55 40 q 36 82 43 55 q 28 160 28 108 q 44 285 28 212 q 76 394 60 358 q 100 443 93 431 q 115 466 107 456 q 130 482 124 476 q 146 496 135 489 q 161 507 156 504 q 178 518 165 510 q 202 532 190 525 q 258 553 235 553 q 302 542 280 553 q 342 516 324 531 q 360 493 360 501 q 336 456 360 485 q 277 390 312 427 q 105 235 189 297 q 161 92 105 122 q 193 85 176 85 q 345 168 256 85 q 347 171 346 170 l 368 139 q 189 10 271 47 q 137 -5 154 -5 q 107 -1 119 -5 q 81 13 95 3 q 55 40 66 24 m 104 265 q 124 284 104 266 q 165 323 143 302 q 210 369 187 345 q 265 435 265 424 q 247 479 265 464 q 211 493 229 493 q 175 478 193 493 q 141 437 157 463 q 104 276 104 376 l 104 265 z "},"":{"ha":389,"x_min":28,"x_max":408,"o":"m 55 40 q 49 47 55 40 q 36 82 43 55 q 28 160 28 108 q 44 285 28 212 q 76 394 60 358 q 100 443 93 431 q 115 466 107 456 q 130 482 124 476 q 146 496 135 489 q 161 507 156 504 q 178 518 165 510 q 202 532 190 525 q 258 553 235 553 q 302 542 280 553 q 342 516 324 531 q 360 493 360 501 q 336 456 360 485 q 277 390 312 427 q 105 235 189 297 q 161 92 105 122 q 193 85 176 85 q 345 168 256 85 q 347 171 346 170 l 368 139 q 189 10 271 47 q 137 -5 154 -5 q 107 -1 119 -5 q 81 13 95 3 q 55 40 66 24 m 104 265 q 124 284 104 266 q 165 323 143 302 q 210 369 187 345 q 265 435 265 424 q 247 479 265 464 q 211 493 229 493 q 175 478 193 493 q 141 437 157 463 q 104 276 104 376 l 104 265 m 201 706 q 195 706 201 706 q 172 728 188 706 q 157 766 157 750 q 176 803 157 783 q 214 824 195 824 q 246 804 232 824 q 260 765 260 784 q 237 725 260 745 q 201 706 215 706 m 350 706 q 343 706 350 706 q 322 728 336 706 q 307 766 307 750 q 325 803 307 783 q 362 824 344 824 q 394 804 380 824 q 408 765 408 784 q 386 725 408 745 q 350 706 363 706 z "},"":{"ha":339,"x_min":28,"x_max":325,"o":"m 107 847 l 190 847 l 213 650 l 174 650 l 107 847 m 231 535 l 199 142 q 209 110 199 110 q 284 195 228 110 l 303 223 l 325 205 q 256 99 298 143 q 126 -7 156 -7 q 103 24 103 -7 q 112 120 103 35 q 140 468 140 381 q 124 490 140 490 q 55 471 105 490 l 39 464 l 28 498 q 215 555 188 555 q 231 535 231 555 z "},"":{"ha":339,"x_min":28,"x_max":331,"o":"m 172 650 l 243 847 l 331 847 l 211 650 l 172 650 m 231 535 l 199 142 q 209 110 199 110 q 284 195 228 110 l 303 223 l 325 205 q 256 99 298 143 q 126 -7 156 -7 q 103 24 103 -7 q 112 120 103 35 q 140 468 140 381 q 124 490 140 490 q 55 471 105 490 l 39 464 l 28 498 q 215 555 188 555 q 231 535 231 555 z "},"":{"ha":339,"x_min":28,"x_max":325,"o":"m 87 650 q 186 844 156 772 l 235 844 q 304 650 262 751 l 239 650 q 213 724 225 682 q 199 777 202 766 q 132 650 169 714 l 87 650 m 231 535 l 199 142 q 209 110 199 110 q 284 195 228 110 l 303 223 l 325 205 q 256 99 298 143 q 126 -7 156 -7 q 103 24 103 -7 q 112 120 103 35 q 140 468 140 381 q 124 490 140 490 q 55 471 105 490 l 39 464 l 28 498 q 215 555 188 555 q 231 535 231 555 z "},"":{"ha":339,"x_min":28,"x_max":333,"o":"m 231 535 l 199 142 q 209 110 199 110 q 284 195 228 110 l 303 223 l 325 205 q 256 99 298 143 q 126 -7 156 -7 q 103 24 103 -7 q 112 120 103 35 q 140 468 140 381 q 124 490 140 490 q 55 471 105 490 l 39 464 l 28 498 q 215 555 188 555 q 231 535 231 555 m 126 706 q 120 706 126 706 q 97 728 113 706 q 82 766 82 750 q 101 803 82 783 q 139 824 120 824 q 171 804 157 824 q 185 765 185 784 q 162 725 185 745 q 126 706 140 706 m 275 706 q 268 706 275 706 q 247 728 261 706 q 232 766 232 750 q 250 803 232 783 q 287 824 269 824 q 319 804 306 824 q 333 765 333 784 q 311 725 333 745 q 275 706 289 706 z "},"":{"ha":451,"x_min":28,"x_max":449,"o":"m 327 765 q 421 360 421 555 q 362 132 421 230 q 273 24 324 65 q 175 -17 221 -17 q 96 10 129 -17 q 28 178 28 65 q 136 466 28 343 q 246 545 193 532 q 293 551 270 551 q 325 550 316 551 q 271 742 307 653 l 132 683 l 114 729 l 251 786 q 128 975 195 907 l 196 975 q 306 810 248 923 l 431 863 l 449 818 l 327 765 m 168 430 q 158 411 168 430 q 134 341 148 393 q 121 236 121 289 q 131 137 121 183 q 163 64 142 92 q 212 36 183 36 q 272 83 241 36 q 322 198 303 129 q 340 313 340 267 q 336 389 340 359 q 321 448 331 419 q 294 494 312 476 q 256 512 277 512 q 212 489 235 512 q 168 430 188 467 z "},"":{"ha":571,"x_min":21,"x_max":550,"o":"m 278 738 q 227 665 243 738 l 211 669 q 251 787 219 739 q 297 815 271 815 q 345 800 323 815 l 379 778 q 417 764 400 764 q 470 825 450 764 l 486 821 q 401 690 460 690 q 360 701 380 690 l 325 724 q 278 738 302 738 m 85 19 q 104 277 96 138 q 113 452 113 417 q 97 488 113 488 q 46 472 87 488 l 33 467 l 21 496 q 66 513 27 498 q 193 554 170 554 q 211 532 211 554 q 206 484 211 524 q 189 264 190 363 q 445 553 352 553 q 478 461 478 553 q 464 286 478 402 q 450 141 450 170 q 461 111 450 111 q 515 186 473 111 q 526 205 522 198 l 550 193 q 493 97 528 144 q 425 20 459 49 q 372 -10 391 -10 q 353 22 353 -10 q 371 190 353 54 q 389 388 389 326 q 367 450 389 450 q 318 411 352 450 q 249 313 285 371 q 200 219 214 254 q 182 163 186 183 q 176 130 177 144 q 174 84 175 116 q 170 33 172 53 q 133 -1 167 -1 l 111 -1 q 91 3 98 -1 q 85 19 84 8 z "},"":{"ha":458,"x_min":28,"x_max":431,"o":"m 204 847 l 288 847 l 310 650 l 271 650 l 204 847 m 28 178 q 136 466 28 343 q 290 557 215 557 q 403 490 365 557 q 431 372 431 442 q 408 233 431 302 q 348 109 385 164 q 265 19 312 54 q 173 -17 217 -17 q 96 10 129 -17 q 28 178 28 65 m 168 430 q 158 411 168 430 q 134 341 148 393 q 121 236 121 289 q 131 137 121 183 q 163 64 142 92 q 212 36 183 36 q 272 83 241 36 q 322 198 303 129 q 340 313 340 267 q 336 389 340 359 q 321 448 331 419 q 294 494 312 476 q 256 512 277 512 q 212 489 235 512 q 168 430 188 467 z "},"":{"ha":458,"x_min":28,"x_max":431,"o":"m 270 650 l 340 847 l 428 847 l 309 650 l 270 650 m 28 178 q 136 466 28 343 q 290 557 215 557 q 403 490 365 557 q 431 372 431 442 q 408 233 431 302 q 348 109 385 164 q 265 19 312 54 q 173 -17 217 -17 q 96 10 129 -17 q 28 178 28 65 m 168 430 q 158 411 168 430 q 134 341 148 393 q 121 236 121 289 q 131 137 121 183 q 163 64 142 92 q 212 36 183 36 q 272 83 241 36 q 322 198 303 129 q 340 313 340 267 q 336 389 340 359 q 321 448 331 419 q 294 494 312 476 q 256 512 277 512 q 212 489 235 512 q 168 430 188 467 z "},"":{"ha":458,"x_min":28,"x_max":431,"o":"m 185 650 q 283 844 253 772 l 332 844 q 401 650 359 751 l 336 650 q 311 724 322 682 q 296 777 299 766 q 229 650 266 714 l 185 650 m 28 178 q 136 466 28 343 q 290 557 215 557 q 403 490 365 557 q 431 372 431 442 q 408 233 431 302 q 348 109 385 164 q 265 19 312 54 q 173 -17 217 -17 q 96 10 129 -17 q 28 178 28 65 m 168 430 q 158 411 168 430 q 134 341 148 393 q 121 236 121 289 q 131 137 121 183 q 163 64 142 92 q 212 36 183 36 q 272 83 241 36 q 322 198 303 129 q 340 313 340 267 q 336 389 340 359 q 321 448 331 419 q 294 494 312 476 q 256 512 277 512 q 212 489 235 512 q 168 430 188 467 z "},"":{"ha":458,"x_min":28,"x_max":443,"o":"m 235 738 q 183 665 200 738 l 168 669 q 208 787 176 739 q 254 815 228 815 q 301 800 280 815 l 336 778 q 374 764 357 764 q 427 825 407 764 l 443 821 q 358 690 417 690 q 317 701 337 690 l 282 724 q 235 738 259 738 m 28 178 q 136 466 28 343 q 290 557 215 557 q 403 490 365 557 q 431 372 431 442 q 408 233 431 302 q 348 109 385 164 q 265 19 312 54 q 173 -17 217 -17 q 96 10 129 -17 q 28 178 28 65 m 168 430 q 158 411 168 430 q 134 341 148 393 q 121 236 121 289 q 131 137 121 183 q 163 64 142 92 q 212 36 183 36 q 272 83 241 36 q 322 198 303 129 q 340 313 340 267 q 336 389 340 359 q 321 448 331 419 q 294 494 312 476 q 256 512 277 512 q 212 489 235 512 q 168 430 188 467 z "},"":{"ha":458,"x_min":28,"x_max":431,"o":"m 28 178 q 136 466 28 343 q 290 557 215 557 q 403 490 365 557 q 431 372 431 442 q 408 233 431 302 q 348 109 385 164 q 265 19 312 54 q 173 -17 217 -17 q 96 10 129 -17 q 28 178 28 65 m 168 430 q 158 411 168 430 q 134 341 148 393 q 121 236 121 289 q 131 137 121 183 q 163 64 142 92 q 212 36 183 36 q 272 83 241 36 q 322 198 303 129 q 340 313 340 267 q 336 389 340 359 q 321 448 331 419 q 294 494 312 476 q 256 512 277 512 q 212 489 235 512 q 168 430 188 467 m 224 706 q 217 706 224 706 q 195 728 210 706 q 179 766 179 750 q 199 803 179 783 q 236 824 218 824 q 268 804 254 824 q 282 765 282 784 q 260 725 282 745 q 224 706 237 706 m 372 706 q 366 706 372 706 q 344 728 359 706 q 329 766 329 750 q 348 803 329 783 q 385 824 366 824 q 417 804 403 824 q 431 765 431 784 q 408 725 431 745 q 372 706 386 706 z "},"":{"ha":1005,"x_min":97,"x_max":908,"o":"m 443 50 q 431 62 443 50 q 418 108 418 74 q 443 168 418 142 q 503 193 469 193 q 562 168 537 193 q 586 108 586 143 q 562 50 586 74 q 503 25 537 25 q 443 50 468 25 m 443 485 q 431 498 443 485 q 418 545 418 510 q 443 603 418 579 q 503 628 468 628 q 562 603 537 628 q 586 544 586 579 q 562 485 586 510 q 503 460 537 460 q 443 485 469 460 m 97 286 l 97 367 l 908 367 l 908 286 l 97 286 z "},"":{"ha":458,"x_min":14,"x_max":431,"o":"m 385 517 q 431 367 431 465 q 408 233 431 302 q 348 109 385 164 q 265 19 312 54 q 173 -17 217 -17 q 95 11 129 -17 l 48 -67 l 14 -48 l 67 42 q 28 178 28 96 q 136 466 28 343 q 290 557 215 557 q 354 542 326 557 l 383 592 l 417 572 l 385 517 m 168 430 q 158 411 168 430 q 134 341 148 393 q 121 241 121 289 q 129 151 121 193 l 313 468 q 256 512 289 512 q 212 489 235 512 q 168 430 188 467 m 144 99 q 210 36 170 36 q 272 83 241 36 q 322 198 303 129 q 340 318 340 267 q 329 421 340 370 l 144 99 z "},"":{"ha":657,"x_min":35,"x_max":629,"o":"m 261 847 l 345 847 l 367 650 l 328 650 l 261 847 m 149 -13 q 115 67 115 -13 q 131 251 115 113 q 147 453 147 389 q 129 485 147 485 q 113 480 121 485 l 50 453 l 35 490 q 149 536 86 514 q 231 558 212 558 q 254 529 254 558 q 244 460 254 514 q 224 319 234 407 q 215 168 215 232 q 232 103 215 103 q 270 129 244 103 q 325 199 295 156 q 380 292 354 243 q 443 482 443 407 l 443 512 q 452 544 443 534 q 483 554 460 554 l 517 554 q 531 549 525 554 q 535 526 537 543 q 524 419 534 509 q 503 135 503 226 q 518 108 503 108 q 549 134 528 108 q 588 184 571 159 l 604 210 l 629 192 q 620 176 628 190 q 604 148 613 162 q 580 114 595 134 q 505 28 548 70 q 446 -14 463 -14 q 410 53 410 -14 q 419 174 410 84 q 431 318 428 265 q 369 200 403 256 q 303 106 335 144 q 242 43 271 68 q 149 -13 178 -13 z "},"":{"ha":657,"x_min":35,"x_max":629,"o":"m 327 650 l 397 847 l 485 847 l 366 650 l 327 650 m 149 -13 q 115 67 115 -13 q 131 251 115 113 q 147 453 147 389 q 129 485 147 485 q 113 480 121 485 l 50 453 l 35 490 q 149 536 86 514 q 231 558 212 558 q 254 529 254 558 q 244 460 254 514 q 224 319 234 407 q 215 168 215 232 q 232 103 215 103 q 270 129 244 103 q 325 199 295 156 q 380 292 354 243 q 443 482 443 407 l 443 512 q 452 544 443 534 q 483 554 460 554 l 517 554 q 531 549 525 554 q 535 526 537 543 q 524 419 534 509 q 503 135 503 226 q 518 108 503 108 q 549 134 528 108 q 588 184 571 159 l 604 210 l 629 192 q 620 176 628 190 q 604 148 613 162 q 580 114 595 134 q 505 28 548 70 q 446 -14 463 -14 q 410 53 410 -14 q 419 174 410 84 q 431 318 428 265 q 369 200 403 256 q 303 106 335 144 q 242 43 271 68 q 149 -13 178 -13 z "},"":{"ha":657,"x_min":35,"x_max":629,"o":"m 242 650 q 340 844 310 772 l 389 844 q 458 650 416 751 l 393 650 q 368 724 379 682 q 353 777 356 766 q 286 650 323 714 l 242 650 m 149 -13 q 115 67 115 -13 q 131 251 115 113 q 147 453 147 389 q 129 485 147 485 q 113 480 121 485 l 50 453 l 35 490 q 149 536 86 514 q 231 558 212 558 q 254 529 254 558 q 244 460 254 514 q 224 319 234 407 q 215 168 215 232 q 232 103 215 103 q 270 129 244 103 q 325 199 295 156 q 380 292 354 243 q 443 482 443 407 l 443 512 q 452 544 443 534 q 483 554 460 554 l 517 554 q 531 549 525 554 q 535 526 537 543 q 524 419 534 509 q 503 135 503 226 q 518 108 503 108 q 549 134 528 108 q 588 184 571 159 l 604 210 l 629 192 q 620 176 628 190 q 604 148 613 162 q 580 114 595 134 q 505 28 548 70 q 446 -14 463 -14 q 410 53 410 -14 q 419 174 410 84 q 431 318 428 265 q 369 200 403 256 q 303 106 335 144 q 242 43 271 68 q 149 -13 178 -13 z "},"":{"ha":657,"x_min":35,"x_max":629,"o":"m 149 -13 q 115 67 115 -13 q 131 251 115 113 q 147 453 147 389 q 129 485 147 485 q 113 480 121 485 l 50 453 l 35 490 q 149 536 86 514 q 231 558 212 558 q 254 529 254 558 q 244 460 254 514 q 224 319 234 407 q 215 168 215 232 q 232 103 215 103 q 270 129 244 103 q 325 199 295 156 q 380 292 354 243 q 443 482 443 407 l 443 512 q 452 544 443 534 q 483 554 460 554 l 517 554 q 531 549 525 554 q 535 526 537 543 q 524 419 534 509 q 503 135 503 226 q 518 108 503 108 q 549 134 528 108 q 588 184 571 159 l 604 210 l 629 192 q 620 176 628 190 q 604 148 613 162 q 580 114 595 134 q 505 28 548 70 q 446 -14 463 -14 q 410 53 410 -14 q 419 174 410 84 q 431 318 428 265 q 369 200 403 256 q 303 106 335 144 q 242 43 271 68 q 149 -13 178 -13 m 281 706 q 274 706 281 706 q 252 728 267 706 q 236 766 236 750 q 255 803 236 783 q 293 824 275 824 q 325 804 311 824 q 339 765 339 784 q 317 725 339 745 q 281 706 294 706 m 429 706 q 422 706 429 706 q 401 728 416 706 q 386 766 386 750 q 405 803 386 783 q 441 824 423 824 q 474 804 460 824 q 488 765 488 784 q 465 725 488 745 q 429 706 443 706 z "},"":{"ha":534,"x_min":-3,"x_max":500,"o":"m 300 650 l 371 847 l 458 847 l 339 650 l 300 650 m 414 471 q 383 525 414 516 l 385 549 q 433 551 407 551 l 442 551 q 488 545 476 551 q 500 510 500 539 q 472 378 500 481 q 397 148 444 275 q 149 -339 299 -125 q 145 -343 148 -340 q 142 -347 143 -346 q 140 -350 141 -348 q 136 -353 138 -352 q 133 -356 135 -354 q 129 -358 131 -357 q 124 -359 126 -359 q 111 -361 119 -361 l -3 -361 l -3 -329 q 20 -324 7 -327 q 39 -320 33 -322 q 54 -314 44 -319 q 74 -301 64 -309 q 222 -127 164 -224 q 279 -1 279 -31 q 247 151 279 28 q 179 367 214 274 q 129 460 145 460 q 91 425 114 460 q 67 387 75 400 q 53 365 59 374 l 21 385 q 30 399 21 386 q 48 429 38 413 q 102 499 76 471 q 181 557 156 557 q 223 526 206 557 q 255 444 240 495 q 281 350 271 392 q 312 230 292 308 q 342 114 332 152 q 414 471 414 289 z "},"":{"ha":512,"x_min":-29,"x_max":492,"o":"m 185 -315 l 310 -307 l 308 -345 l -29 -376 l -29 -336 q 7 -333 -14 -335 q 35 -331 28 -331 q 51 -328 42 -330 q 62 -324 60 -326 q 67 -318 64 -323 q 70 -309 70 -313 q 71 -298 70 -305 q 114 273 105 174 q 135 509 124 372 q 164 908 164 855 q 144 928 164 928 q 57 906 124 928 l 48 943 q 237 989 206 989 q 268 969 268 989 q 244 730 268 949 q 204 379 221 510 q 406 549 323 549 q 468 512 445 549 q 492 409 492 475 q 433 174 492 295 q 346 46 398 100 q 258 -8 294 -8 q 189 21 221 -8 l 179 31 l 158 -280 q 167 -313 158 -310 q 185 -315 175 -315 m 203 301 q 195 273 203 301 q 188 188 188 246 q 208 92 188 130 q 255 54 229 54 q 304 68 281 54 q 346 108 326 82 q 383 165 367 133 q 419 313 419 235 q 408 394 419 358 q 345 464 387 464 q 268 412 311 464 q 203 301 219 356 z "},"":{"ha":534,"x_min":-3,"x_max":500,"o":"m 414 471 q 383 525 414 516 l 385 549 q 433 551 407 551 l 442 551 q 488 545 476 551 q 500 510 500 539 q 472 378 500 481 q 397 148 444 275 q 149 -339 299 -125 q 145 -343 148 -340 q 142 -347 143 -346 q 140 -350 141 -348 q 136 -353 138 -352 q 133 -356 135 -354 q 129 -358 131 -357 q 124 -359 126 -359 q 111 -361 119 -361 l -3 -361 l -3 -329 q 20 -324 7 -327 q 39 -320 33 -322 q 54 -314 44 -319 q 74 -301 64 -309 q 222 -127 164 -224 q 279 -1 279 -31 q 247 151 279 28 q 179 367 214 274 q 129 460 145 460 q 91 425 114 460 q 67 387 75 400 q 53 365 59 374 l 21 385 q 30 399 21 386 q 48 429 38 413 q 102 499 76 471 q 181 557 156 557 q 223 526 206 557 q 255 444 240 495 q 281 350 271 392 q 312 230 292 308 q 342 114 332 152 q 414 471 414 289 m 254 706 q 248 706 254 706 q 225 728 241 706 q 210 766 210 750 q 229 803 210 783 q 267 824 248 824 q 299 804 285 824 q 313 765 313 784 q 290 725 313 745 q 254 706 268 706 m 403 706 q 396 706 403 706 q 375 728 389 706 q 360 766 360 750 q 378 803 360 783 q 415 824 397 824 q 447 804 433 824 q 461 765 461 784 q 439 725 461 745 q 403 706 416 706 z "},"":{"ha":909,"x_min":28,"x_max":868,"o":"m 385 1095 l 385 1161 l 704 1161 l 704 1095 l 385 1095 m 28 0 l 28 44 l 50 44 q 92 54 79 44 q 135 118 112 67 l 525 949 l 550 949 l 746 160 q 774 66 767 78 q 791 50 782 54 q 828 44 801 44 l 868 44 l 868 0 l 545 0 l 545 44 l 585 44 q 641 49 627 44 q 655 67 655 53 q 651 97 655 81 l 590 357 l 314 357 l 205 122 q 186 68 186 79 q 203 49 186 53 q 274 44 221 44 l 300 44 l 297 0 l 28 0 m 336 411 l 578 411 l 490 761 l 336 411 z "},"":{"ha":515,"x_min":35,"x_max":488,"o":"m 208 725 l 208 790 l 447 790 l 447 725 l 208 725 m 333 -15 q 303 85 303 -15 q 310 207 303 119 q 228 75 264 120 q 156 8 192 31 q 107 -15 120 -15 q 85 -12 94 -15 q 67 2 76 -8 q 51 28 57 12 q 35 124 35 67 q 39 215 35 182 q 56 281 44 249 q 231 525 111 426 q 284 555 267 555 q 314 547 301 555 q 334 526 326 538 q 358 471 350 500 l 372 549 q 404 572 376 572 l 418 572 q 439 569 434 572 q 443 559 443 567 q 431 475 443 552 q 394 171 394 242 q 411 100 394 100 q 430 111 421 100 q 442 125 439 121 q 452 136 446 129 q 463 149 458 143 l 488 129 q 371 0 422 37 q 333 -15 349 -15 m 144 354 q 136 335 144 354 q 116 270 127 316 q 105 181 105 223 q 122 110 105 139 q 158 82 139 82 q 208 121 176 82 q 269 211 240 159 q 319 318 298 263 q 340 398 340 373 q 325 445 340 423 q 290 480 310 467 q 256 493 270 493 q 222 475 241 493 q 182 425 202 457 q 144 354 162 393 z "},"":{"ha":909,"x_min":28,"x_max":868,"o":"m 643 1192 l 642 1203 l 676 1203 l 676 1193 q 539 1042 676 1042 q 415 1105 450 1042 q 397 1171 397 1136 l 399 1203 l 468 1203 l 468 1191 q 492 1127 468 1145 q 552 1111 513 1111 q 617 1132 591 1111 q 643 1192 643 1153 m 28 0 l 28 44 l 50 44 q 92 54 79 44 q 135 118 112 67 l 525 949 l 550 949 l 746 160 q 774 66 767 78 q 791 50 782 54 q 828 44 801 44 l 868 44 l 868 0 l 545 0 l 545 44 l 585 44 q 641 49 627 44 q 655 67 655 53 q 651 97 655 81 l 590 357 l 314 357 l 205 122 q 186 68 186 79 q 203 49 186 53 q 274 44 221 44 l 300 44 l 297 0 l 28 0 m 336 411 l 578 411 l 490 761 l 336 411 z "},"":{"ha":515,"x_min":35,"x_max":488,"o":"m 226 740 q 221 785 221 761 q 226 839 221 809 l 275 839 q 274 807 274 818 q 334 722 274 722 q 430 839 394 722 l 454 839 q 454 836 454 839 q 403 703 441 747 q 314 659 366 659 q 226 740 247 659 m 333 -15 q 303 85 303 -15 q 310 207 303 119 q 228 75 264 120 q 156 8 192 31 q 107 -15 120 -15 q 85 -12 94 -15 q 67 2 76 -8 q 51 28 57 12 q 35 124 35 67 q 39 215 35 182 q 56 281 44 249 q 231 525 111 426 q 284 555 267 555 q 314 547 301 555 q 334 526 326 538 q 358 471 350 500 l 372 549 q 404 572 376 572 l 418 572 q 439 569 434 572 q 443 559 443 567 q 431 475 443 552 q 394 171 394 242 q 411 100 394 100 q 430 111 421 100 q 442 125 439 121 q 452 136 446 129 q 463 149 458 143 l 488 129 q 371 0 422 37 q 333 -15 349 -15 m 144 354 q 136 335 144 354 q 116 270 127 316 q 105 181 105 223 q 122 110 105 139 q 158 82 139 82 q 208 121 176 82 q 269 211 240 159 q 319 318 298 263 q 340 398 340 373 q 325 445 340 423 q 290 480 310 467 q 256 493 270 493 q 222 475 241 493 q 182 425 202 457 q 144 354 162 393 z "},"":{"ha":909,"x_min":28,"x_max":868,"o":"m 553 -203 q 637 -299 553 -299 q 728 -257 683 -299 l 740 -282 q 632 -355 700 -332 q 579 -364 605 -364 q 487 -329 519 -364 q 455 -254 455 -295 q 467 -183 455 -213 q 496 -130 478 -153 q 535 -82 513 -106 q 578 -39 558 -58 q 640 28 628 7 q 653 70 653 50 q 647 115 653 90 l 590 357 l 314 357 l 205 122 q 186 68 186 79 q 203 49 186 53 q 274 44 221 44 l 300 44 l 297 0 l 28 0 l 28 44 l 50 44 q 92 54 79 44 q 135 118 112 67 l 525 949 l 550 949 l 746 160 q 774 66 767 78 q 791 50 782 54 q 828 44 801 44 l 868 44 l 868 0 l 735 0 q 589 -98 652 0 q 553 -203 553 -153 m 336 411 l 578 411 l 490 761 l 336 411 z "},"":{"ha":515,"x_min":35,"x_max":488,"o":"m 307 21 l 303 85 q 310 207 303 119 q 228 75 264 120 q 156 8 192 31 q 107 -15 120 -15 q 85 -12 94 -15 q 67 2 76 -8 q 51 28 57 12 q 35 124 35 67 q 39 215 35 182 q 56 281 44 249 q 231 525 111 426 q 284 555 267 555 q 314 547 301 555 q 334 526 326 538 q 358 471 350 500 l 372 549 q 404 572 376 572 l 418 572 q 439 569 434 572 q 443 559 443 567 q 431 475 443 552 q 394 171 394 242 q 411 100 394 100 q 430 111 421 100 q 442 125 439 121 q 452 136 446 129 q 463 149 458 143 l 488 129 q 467 102 484 125 q 410 33 433 56 q 350 -19 386 11 q 310 -53 313 -50 q 228 -199 228 -124 q 269 -290 228 -266 q 301 -299 283 -299 q 403 -257 358 -299 l 415 -282 q 307 -355 375 -332 q 252 -364 280 -364 q 202 -355 224 -364 q 166 -333 179 -346 q 144 -301 153 -319 q 131 -238 131 -272 q 153 -165 131 -205 q 280 -28 195 -92 q 307 21 307 -8 m 144 354 q 136 335 144 354 q 116 270 127 316 q 105 181 105 223 q 122 110 105 139 q 158 82 139 82 q 208 121 176 82 q 269 211 240 159 q 319 318 298 263 q 340 398 340 373 q 325 445 340 423 q 290 480 310 467 q 256 493 270 493 q 222 475 241 493 q 182 425 202 457 q 144 354 162 393 z "},"":{"ha":951,"x_min":62,"x_max":854,"o":"m 529 1009 l 602 1207 l 699 1207 l 579 1009 l 529 1009 m 62 390 q 70 496 62 447 q 93 593 78 545 q 131 685 108 641 q 185 769 155 730 q 254 841 215 809 q 340 897 294 874 q 558 947 436 947 q 705 927 637 947 q 814 873 774 907 q 854 801 854 840 q 845 760 854 786 q 803 710 828 710 q 770 755 781 710 q 758 802 763 786 q 739 834 754 818 q 700 867 724 851 q 557 903 645 903 q 375 848 464 903 q 232 691 288 795 q 174 443 174 585 q 199 274 174 352 q 269 144 225 197 q 497 33 362 33 q 681 87 594 33 q 741 134 727 117 q 768 181 754 151 q 782 213 781 211 l 812 213 q 787 89 804 168 q 775 68 784 76 q 730 39 766 59 q 489 -15 631 -15 q 125 159 234 -15 q 62 390 62 260 z "},"":{"ha":385,"x_min":28,"x_max":408,"o":"m 250 650 l 321 847 l 408 847 l 289 650 l 250 650 m 364 511 q 332 458 364 458 q 292 472 317 458 q 205 497 244 497 q 156 456 181 497 q 116 354 132 415 q 100 249 100 293 q 105 179 100 205 q 119 135 111 153 q 138 105 127 117 q 160 86 149 92 q 180 81 171 81 q 201 83 190 81 q 221 89 211 85 q 241 99 230 93 q 260 110 251 104 q 278 123 268 115 q 294 136 287 131 q 308 149 300 141 q 320 160 316 157 q 330 170 324 164 q 336 176 336 176 l 356 160 q 176 -1 265 35 q 139 -11 152 -11 q 120 -10 126 -11 q 111 -8 115 -9 q 103 -4 107 -7 q 28 153 28 38 q 71 378 28 260 q 214 541 117 504 q 290 555 250 555 q 347 542 330 555 q 364 511 364 528 z "},"":{"ha":951,"x_min":62,"x_max":854,"o":"m 557 1136 l 472 1036 l 419 1036 q 531 1201 463 1097 l 613 1201 q 724 1036 662 1123 l 643 1036 q 596 1090 624 1057 q 557 1136 568 1123 m 62 390 q 70 496 62 447 q 93 593 78 545 q 131 685 108 641 q 185 769 155 730 q 254 841 215 809 q 340 897 294 874 q 558 947 436 947 q 705 927 637 947 q 814 873 774 907 q 854 801 854 840 q 845 760 854 786 q 803 710 828 710 q 770 755 781 710 q 758 802 763 786 q 739 834 754 818 q 700 867 724 851 q 557 903 645 903 q 375 848 464 903 q 232 691 288 795 q 174 443 174 585 q 199 274 174 352 q 269 144 225 197 q 497 33 362 33 q 681 87 594 33 q 741 134 727 117 q 768 181 754 151 q 782 213 781 211 l 812 213 q 787 89 804 168 q 775 68 784 76 q 730 39 766 59 q 489 -15 631 -15 q 125 159 234 -15 q 62 390 62 260 z "},"":{"ha":385,"x_min":28,"x_max":382,"o":"m 165 650 q 264 844 233 772 l 312 844 q 382 650 340 751 l 316 650 q 291 724 303 682 q 276 777 279 766 q 210 650 246 714 l 165 650 m 364 511 q 332 458 364 458 q 292 472 317 458 q 205 497 244 497 q 156 456 181 497 q 116 354 132 415 q 100 249 100 293 q 105 179 100 205 q 119 135 111 153 q 138 105 127 117 q 160 86 149 92 q 180 81 171 81 q 201 83 190 81 q 221 89 211 85 q 241 99 230 93 q 260 110 251 104 q 278 123 268 115 q 294 136 287 131 q 308 149 300 141 q 320 160 316 157 q 330 170 324 164 q 336 176 336 176 l 356 160 q 176 -1 265 35 q 139 -11 152 -11 q 120 -10 126 -11 q 111 -8 115 -9 q 103 -4 107 -7 q 28 153 28 38 q 71 378 28 260 q 214 541 117 504 q 290 555 250 555 q 347 542 330 555 q 364 511 364 528 z "},"":{"ha":951,"x_min":62,"x_max":854,"o":"m 569 1064 q 562 1064 569 1064 q 534 1086 556 1064 q 511 1124 511 1109 q 536 1162 511 1140 q 574 1184 560 1184 q 609 1160 588 1184 q 629 1121 629 1135 q 606 1085 629 1106 q 569 1064 583 1064 m 62 390 q 70 496 62 447 q 93 593 78 545 q 131 685 108 641 q 185 769 155 730 q 254 841 215 809 q 340 897 294 874 q 558 947 436 947 q 705 927 637 947 q 814 873 774 907 q 854 801 854 840 q 845 760 854 786 q 803 710 828 710 q 770 755 781 710 q 758 802 763 786 q 739 834 754 818 q 700 867 724 851 q 557 903 645 903 q 375 848 464 903 q 232 691 288 795 q 174 443 174 585 q 199 274 174 352 q 269 144 225 197 q 497 33 362 33 q 681 87 594 33 q 741 134 727 117 q 768 181 754 151 q 782 213 781 211 l 812 213 q 787 89 804 168 q 775 68 784 76 q 730 39 766 59 q 489 -15 631 -15 q 125 159 234 -15 q 62 390 62 260 z "},"":{"ha":385,"x_min":28,"x_max":364,"o":"m 275 706 q 268 706 275 706 q 246 728 261 706 q 231 766 231 750 q 249 803 231 783 q 286 824 268 824 q 319 804 304 824 q 333 765 333 784 q 311 725 333 745 q 275 706 289 706 m 364 511 q 332 458 364 458 q 292 472 317 458 q 205 497 244 497 q 156 456 181 497 q 116 354 132 415 q 100 249 100 293 q 105 179 100 205 q 119 135 111 153 q 138 105 127 117 q 160 86 149 92 q 180 81 171 81 q 201 83 190 81 q 221 89 211 85 q 241 99 230 93 q 260 110 251 104 q 278 123 268 115 q 294 136 287 131 q 308 149 300 141 q 320 160 316 157 q 330 170 324 164 q 336 176 336 176 l 356 160 q 176 -1 265 35 q 139 -11 152 -11 q 120 -10 126 -11 q 111 -8 115 -9 q 103 -4 107 -7 q 28 153 28 38 q 71 378 28 260 q 214 541 117 504 q 290 555 250 555 q 347 542 330 555 q 364 511 364 528 z "},"":{"ha":951,"x_min":62,"x_max":854,"o":"m 407 1201 l 488 1201 l 574 1101 l 659 1201 l 711 1201 q 600 1036 668 1140 l 518 1036 q 407 1201 466 1119 m 62 390 q 70 496 62 447 q 93 593 78 545 q 131 685 108 641 q 185 769 155 730 q 254 841 215 809 q 340 897 294 874 q 558 947 436 947 q 705 927 637 947 q 814 873 774 907 q 854 801 854 840 q 845 760 854 786 q 803 710 828 710 q 770 755 781 710 q 758 802 763 786 q 739 834 754 818 q 700 867 724 851 q 557 903 645 903 q 375 848 464 903 q 232 691 288 795 q 174 443 174 585 q 199 274 174 352 q 269 144 225 197 q 497 33 362 33 q 681 87 594 33 q 741 134 727 117 q 768 181 754 151 q 782 213 781 211 l 812 213 q 787 89 804 168 q 775 68 784 76 q 730 39 766 59 q 489 -15 631 -15 q 125 159 234 -15 q 62 390 62 260 z "},"":{"ha":385,"x_min":28,"x_max":400,"o":"m 400 844 q 301 650 332 723 l 253 650 q 183 844 225 744 l 249 844 q 274 769 263 809 q 289 718 286 730 q 355 844 320 783 l 400 844 m 364 511 q 332 458 364 458 q 292 472 317 458 q 205 497 244 497 q 156 456 181 497 q 116 354 132 415 q 100 249 100 293 q 105 179 100 205 q 119 135 111 153 q 138 105 127 117 q 160 86 149 92 q 180 81 171 81 q 201 83 190 81 q 221 89 211 85 q 241 99 230 93 q 260 110 251 104 q 278 123 268 115 q 294 136 287 131 q 308 149 300 141 q 320 160 316 157 q 330 170 324 164 q 336 176 336 176 l 356 160 q 176 -1 265 35 q 139 -11 152 -11 q 120 -10 126 -11 q 111 -8 115 -9 q 103 -4 107 -7 q 28 153 28 38 q 71 378 28 260 q 214 541 117 504 q 290 555 250 555 q 347 542 330 555 q 364 511 364 528 z "},"":{"ha":1012,"x_min":31,"x_max":943,"o":"m 374 1201 l 454 1201 l 540 1101 l 625 1201 l 678 1201 q 567 1036 634 1140 l 485 1036 q 374 1201 432 1119 m 31 0 l 33 44 l 58 44 q 102 51 94 44 q 113 86 111 57 q 161 695 149 548 q 174 865 174 855 q 163 879 174 875 q 111 882 153 882 l 53 882 l 56 926 l 425 926 q 714 890 619 926 q 801 840 766 869 q 869 764 837 810 q 943 518 943 659 q 905 323 943 420 q 720 89 847 177 q 390 0 592 0 l 31 0 m 231 321 q 227 272 231 321 q 219 166 223 223 q 215 96 215 109 q 216 76 215 83 q 219 65 217 70 q 225 56 222 60 q 234 51 228 53 q 247 47 241 48 q 264 45 253 46 q 315 44 283 44 l 406 44 q 717 170 604 44 q 832 498 832 298 q 729 782 832 676 q 451 882 630 882 l 313 882 q 283 879 290 882 q 274 848 276 876 q 261 696 272 821 q 245 495 251 571 q 231 321 238 418 z "},"":{"ha":519,"x_min":28,"x_max":612,"o":"m 508 729 l 532 936 l 612 928 l 547 722 l 508 729 m 406 301 q 403 269 406 301 q 397 202 400 237 q 394 135 394 166 q 407 103 394 103 q 469 170 431 103 l 482 192 l 506 179 q 482 131 506 166 q 394 28 440 69 q 328 -14 348 -14 q 313 18 313 -14 q 328 208 313 95 l 333 247 q 242 94 311 182 q 105 -13 158 -13 q 46 41 69 -13 q 28 161 28 85 q 54 310 28 237 q 118 433 79 383 q 265 551 209 551 q 298 538 283 551 q 320 510 313 525 q 333 477 327 495 q 342 455 340 459 l 361 867 l 361 893 q 348 930 361 930 q 251 915 335 930 l 246 947 q 353 967 279 954 q 435 981 427 981 q 461 958 461 981 l 417 411 q 406 301 413 364 m 97 244 q 167 90 97 90 q 213 116 185 90 q 265 180 240 142 q 307 269 290 219 q 325 364 325 320 l 325 386 q 267 496 325 462 q 241 504 253 504 q 211 492 228 504 q 180 460 194 479 q 136 389 152 423 q 109 311 120 355 q 97 244 97 267 z "},"":{"ha":1012,"x_min":31,"x_max":943,"o":"m 144 497 l 174 858 q 163 879 174 875 q 111 882 153 882 l 53 882 l 56 926 l 425 926 q 714 890 619 926 q 801 840 766 869 q 869 764 837 810 q 943 518 943 659 q 905 323 943 420 q 720 89 847 177 q 390 0 592 0 l 31 0 l 33 44 l 58 44 q 102 51 94 44 q 113 86 111 57 l 140 443 l 52 443 l 56 497 l 144 497 m 221 194 q 215 104 215 125 q 216 76 215 83 q 219 65 217 70 q 225 56 222 60 q 234 51 228 53 q 247 47 241 48 q 264 45 253 46 q 315 44 283 44 l 406 44 q 717 170 604 44 q 832 498 832 298 q 729 782 832 676 q 451 882 630 882 l 313 882 q 281 877 286 882 q 274 846 274 871 l 246 497 l 532 497 l 528 443 l 242 443 l 221 194 z "},"":{"ha":519,"x_min":28,"x_max":510,"o":"m 406 301 q 403 269 406 301 q 397 202 400 237 q 394 135 394 166 q 407 103 394 103 q 469 170 431 103 l 482 192 l 506 179 q 482 131 506 166 q 394 28 440 69 q 328 -14 348 -14 q 313 18 313 -14 q 328 208 313 95 l 333 247 q 242 94 311 182 q 105 -13 158 -13 q 46 41 69 -13 q 28 161 28 85 q 54 310 28 237 q 118 433 79 383 q 265 551 209 551 q 298 538 283 551 q 320 510 313 525 q 333 477 327 495 q 342 455 340 459 l 353 690 l 160 690 l 164 744 l 356 744 l 361 867 l 361 893 q 348 930 361 930 q 251 915 335 930 l 246 947 q 353 967 279 954 q 435 981 427 981 q 461 958 461 981 l 445 744 l 510 744 l 506 690 l 440 690 l 417 411 q 406 301 413 364 m 97 244 q 167 90 97 90 q 213 116 185 90 q 265 180 240 142 q 307 269 290 219 q 325 364 325 320 l 325 386 q 267 496 325 462 q 241 504 253 504 q 211 492 228 504 q 180 460 194 479 q 136 389 152 423 q 109 311 120 355 q 97 244 97 267 z "},"":{"ha":760,"x_min":22,"x_max":690,"o":"m 274 1093 l 274 1160 l 593 1160 l 593 1093 l 274 1093 m 22 0 l 25 44 l 57 44 q 101 50 93 44 q 117 86 114 57 q 177 746 166 634 q 188 866 188 857 q 179 879 188 875 q 144 882 171 882 l 68 882 l 68 926 l 690 926 l 690 758 l 660 757 l 659 829 q 645 861 658 853 q 615 871 633 869 q 564 876 597 874 q 426 880 517 879 q 316 882 336 882 q 290 879 296 882 q 282 863 283 876 l 254 553 l 504 553 q 541 558 533 553 q 551 589 548 564 l 558 657 l 589 655 l 567 371 l 533 372 q 540 475 540 466 q 497 498 540 498 l 249 498 l 217 129 q 214 82 214 93 q 220 67 214 71 q 247 64 227 64 l 268 64 q 606 81 570 64 q 653 211 629 91 l 688 204 l 640 0 l 22 0 z "},"":{"ha":389,"x_min":28,"x_max":403,"o":"m 164 725 l 164 790 l 403 790 l 403 725 l 164 725 m 55 40 q 49 47 55 40 q 36 82 43 55 q 28 160 28 108 q 44 285 28 212 q 76 394 60 358 q 100 443 93 431 q 115 466 107 456 q 130 482 124 476 q 146 496 135 489 q 161 507 156 504 q 178 518 165 510 q 202 532 190 525 q 258 553 235 553 q 302 542 280 553 q 342 516 324 531 q 360 493 360 501 q 336 456 360 485 q 277 390 312 427 q 105 235 189 297 q 161 92 105 122 q 193 85 176 85 q 345 168 256 85 q 347 171 346 170 l 368 139 q 189 10 271 47 q 137 -5 154 -5 q 107 -1 119 -5 q 81 13 95 3 q 55 40 66 24 m 104 265 q 124 284 104 266 q 165 323 143 302 q 210 369 187 345 q 265 435 265 424 q 247 479 265 464 q 211 493 229 493 q 175 478 193 493 q 141 437 157 463 q 104 276 104 376 l 104 265 z "},"":{"ha":760,"x_min":22,"x_max":690,"o":"m 532 1190 l 531 1201 l 565 1201 l 565 1192 q 428 1040 565 1040 q 304 1103 339 1040 q 286 1169 286 1134 l 288 1201 l 357 1201 l 357 1189 q 380 1125 357 1143 q 441 1109 402 1109 q 506 1131 480 1109 q 532 1190 532 1152 m 22 0 l 25 44 l 57 44 q 101 50 93 44 q 117 86 114 57 q 177 746 166 634 q 188 866 188 857 q 179 879 188 875 q 144 882 171 882 l 68 882 l 68 926 l 690 926 l 690 758 l 660 757 l 659 829 q 645 861 658 853 q 615 871 633 869 q 564 876 597 874 q 426 880 517 879 q 316 882 336 882 q 290 879 296 882 q 282 863 283 876 l 254 553 l 504 553 q 541 558 533 553 q 551 589 548 564 l 558 657 l 589 655 l 567 371 l 533 372 q 540 475 540 466 q 497 498 540 498 l 249 498 l 217 129 q 214 82 214 93 q 220 67 214 71 q 247 64 227 64 l 268 64 q 606 81 570 64 q 653 211 629 91 l 688 204 l 640 0 l 22 0 z "},"":{"ha":389,"x_min":28,"x_max":410,"o":"m 182 740 q 176 785 176 761 q 182 839 176 809 l 231 839 q 229 807 229 818 q 290 722 229 722 q 386 839 350 722 l 410 839 q 409 836 410 839 q 359 703 397 747 q 269 659 321 659 q 182 740 203 659 m 55 40 q 49 47 55 40 q 36 82 43 55 q 28 160 28 108 q 44 285 28 212 q 76 394 60 358 q 100 443 93 431 q 115 466 107 456 q 130 482 124 476 q 146 496 135 489 q 161 507 156 504 q 178 518 165 510 q 202 532 190 525 q 258 553 235 553 q 302 542 280 553 q 342 516 324 531 q 360 493 360 501 q 336 456 360 485 q 277 390 312 427 q 105 235 189 297 q 161 92 105 122 q 193 85 176 85 q 345 168 256 85 q 347 171 346 170 l 368 139 q 189 10 271 47 q 137 -5 154 -5 q 107 -1 119 -5 q 81 13 95 3 q 55 40 66 24 m 104 265 q 124 284 104 266 q 165 323 143 302 q 210 369 187 345 q 265 435 265 424 q 247 479 265 464 q 211 493 229 493 q 175 478 193 493 q 141 437 157 463 q 104 276 104 376 l 104 265 z "},"":{"ha":760,"x_min":22,"x_max":690,"o":"m 433 1064 q 426 1064 433 1064 q 397 1086 419 1064 q 375 1124 375 1109 q 399 1162 375 1140 q 438 1184 424 1184 q 473 1160 452 1184 q 493 1121 493 1135 q 470 1085 493 1106 q 433 1064 446 1064 m 22 0 l 25 44 l 57 44 q 101 50 93 44 q 117 86 114 57 q 177 746 166 634 q 188 866 188 857 q 179 879 188 875 q 144 882 171 882 l 68 882 l 68 926 l 690 926 l 690 758 l 660 757 l 659 829 q 645 861 658 853 q 615 871 633 869 q 564 876 597 874 q 426 880 517 879 q 316 882 336 882 q 290 879 296 882 q 282 863 283 876 l 254 553 l 504 553 q 541 558 533 553 q 551 589 548 564 l 558 657 l 589 655 l 567 371 l 533 372 q 540 475 540 466 q 497 498 540 498 l 249 498 l 217 129 q 214 82 214 93 q 220 67 214 71 q 247 64 227 64 l 268 64 q 606 81 570 64 q 653 211 629 91 l 688 204 l 640 0 l 22 0 z "},"":{"ha":389,"x_min":28,"x_max":368,"o":"m 272 706 q 266 706 272 706 q 243 728 259 706 q 228 766 228 750 q 246 803 228 783 q 283 824 265 824 q 316 804 301 824 q 331 765 331 784 q 308 725 331 745 q 272 706 286 706 m 55 40 q 49 47 55 40 q 36 82 43 55 q 28 160 28 108 q 44 285 28 212 q 76 394 60 358 q 100 443 93 431 q 115 466 107 456 q 130 482 124 476 q 146 496 135 489 q 161 507 156 504 q 178 518 165 510 q 202 532 190 525 q 258 553 235 553 q 302 542 280 553 q 342 516 324 531 q 360 493 360 501 q 336 456 360 485 q 277 390 312 427 q 105 235 189 297 q 161 92 105 122 q 193 85 176 85 q 345 168 256 85 q 347 171 346 170 l 368 139 q 189 10 271 47 q 137 -5 154 -5 q 107 -1 119 -5 q 81 13 95 3 q 55 40 66 24 m 104 265 q 124 284 104 266 q 165 323 143 302 q 210 369 187 345 q 265 435 265 424 q 247 479 265 464 q 211 493 229 493 q 175 478 193 493 q 141 437 157 463 q 104 276 104 376 l 104 265 z "},"":{"ha":760,"x_min":22,"x_max":690,"o":"m 515 -299 q 617 -257 572 -299 l 629 -282 q 520 -355 589 -332 q 467 -364 494 -364 q 413 -355 439 -364 q 367 -330 387 -346 q 322 -231 322 -294 q 519 0 322 -93 l 22 0 l 25 44 l 57 44 q 101 50 93 44 q 117 86 114 57 q 177 746 166 634 q 188 866 188 857 q 179 879 188 875 q 144 882 171 882 l 68 882 l 68 926 l 690 926 l 690 758 l 660 757 l 659 829 q 645 861 658 853 q 615 871 633 869 q 564 876 597 874 q 426 880 517 879 q 316 882 336 882 q 290 879 296 882 q 282 863 283 876 l 254 553 l 504 553 q 541 558 533 553 q 551 589 548 564 l 558 657 l 589 655 l 567 371 l 533 372 q 540 475 540 466 q 497 498 540 498 l 249 498 l 217 129 q 214 82 214 93 q 220 67 214 71 q 247 64 227 64 l 268 64 q 606 81 570 64 q 653 211 629 91 l 688 204 l 640 0 l 593 0 q 526 -27 562 0 q 468 -76 489 -54 q 419 -185 419 -127 q 465 -282 419 -248 q 515 -299 487 -299 z "},"":{"ha":389,"x_min":1,"x_max":368,"o":"m 299 -257 l 311 -282 q 202 -355 271 -332 q 148 -364 176 -364 q 93 -356 119 -364 q 45 -332 66 -348 q 1 -232 1 -299 q 172 3 1 -130 q 132 -5 144 -5 q 107 -1 119 -5 q 81 13 95 3 q 55 40 66 24 q 28 144 28 76 q 86 415 28 288 q 146 496 111 471 q 176 517 162 509 q 202 532 190 525 q 258 553 235 553 q 302 542 280 553 q 342 516 324 531 q 360 493 360 501 q 336 456 360 485 q 277 390 312 427 q 105 235 189 297 q 161 92 105 122 q 193 85 176 85 q 345 168 256 85 q 347 171 346 170 l 368 139 l 189 -22 q 99 -172 99 -101 q 116 -249 99 -221 q 200 -299 147 -299 q 299 -257 254 -299 m 104 265 q 124 284 104 266 q 165 323 143 302 q 210 369 187 345 q 265 435 265 424 q 247 479 265 464 q 211 493 229 493 q 175 478 193 493 q 141 437 157 463 q 104 276 104 376 l 104 265 z "},"":{"ha":760,"x_min":22,"x_max":690,"o":"m 271 1201 l 351 1201 l 437 1101 l 522 1201 l 575 1201 q 464 1036 531 1140 l 382 1036 q 271 1201 330 1119 m 22 0 l 25 44 l 57 44 q 101 50 93 44 q 117 86 114 57 q 177 746 166 634 q 188 866 188 857 q 179 879 188 875 q 144 882 171 882 l 68 882 l 68 926 l 690 926 l 690 758 l 660 757 l 659 829 q 645 861 658 853 q 615 871 633 869 q 564 876 597 874 q 426 880 517 879 q 316 882 336 882 q 290 879 296 882 q 282 863 283 876 l 254 553 l 504 553 q 541 558 533 553 q 551 589 548 564 l 558 657 l 589 655 l 567 371 l 533 372 q 540 475 540 466 q 497 498 540 498 l 249 498 l 217 129 q 214 82 214 93 q 220 67 214 71 q 247 64 227 64 l 268 64 q 606 81 570 64 q 653 211 629 91 l 688 204 l 640 0 l 22 0 z "},"":{"ha":389,"x_min":28,"x_max":397,"o":"m 397 844 q 298 650 329 723 l 250 650 q 180 844 222 744 l 246 844 q 272 769 261 809 q 286 718 283 730 q 353 844 317 783 l 397 844 m 55 40 q 49 47 55 40 q 36 82 43 55 q 28 160 28 108 q 44 285 28 212 q 76 394 60 358 q 100 443 93 431 q 115 466 107 456 q 130 482 124 476 q 146 496 135 489 q 161 507 156 504 q 178 518 165 510 q 202 532 190 525 q 258 553 235 553 q 302 542 280 553 q 342 516 324 531 q 360 493 360 501 q 336 456 360 485 q 277 390 312 427 q 105 235 189 297 q 161 92 105 122 q 193 85 176 85 q 345 168 256 85 q 347 171 346 170 l 368 139 q 189 10 271 47 q 137 -5 154 -5 q 107 -1 119 -5 q 81 13 95 3 q 55 40 66 24 m 104 265 q 124 284 104 266 q 165 323 143 302 q 210 369 187 345 q 265 435 265 424 q 247 479 265 464 q 211 493 229 493 q 175 478 193 493 q 141 437 157 463 q 104 276 104 376 l 104 265 z "},"":{"ha":996,"x_min":62,"x_max":912,"o":"m 561 1136 l 476 1036 l 424 1036 q 535 1201 467 1097 l 617 1201 q 728 1036 666 1123 l 647 1036 q 600 1090 628 1057 q 561 1136 572 1123 m 127 168 q 110 196 127 168 q 78 288 93 224 q 62 419 62 352 q 77 550 62 487 q 121 672 93 613 q 195 781 150 731 q 295 869 239 832 q 578 949 414 949 q 683 934 616 949 q 783 901 750 920 q 826 876 816 883 q 842 860 837 869 q 850 820 850 848 l 850 806 q 845 690 850 761 l 843 668 l 815 667 q 793 762 810 730 q 761 814 776 794 q 661 881 726 859 q 544 903 597 903 q 438 884 491 903 q 345 834 386 866 q 272 759 304 802 q 218 667 239 716 q 174 480 174 566 q 185 333 174 394 q 217 230 197 273 q 264 151 237 186 q 322 94 292 116 q 385 58 352 72 q 524 31 447 31 q 658 73 601 31 q 722 189 716 115 l 738 388 l 565 388 l 568 432 l 912 432 l 910 388 l 832 388 l 801 -1 l 777 0 q 748 56 767 53 q 727 48 740 57 q 701 32 714 39 q 664 13 688 24 q 618 -5 639 1 q 488 -19 566 -19 q 336 5 410 -19 q 211 70 261 29 q 127 168 161 111 z "},"":{"ha":539,"x_min":-46,"x_max":528,"o":"m 188 650 q 286 844 256 772 l 335 844 q 404 650 362 751 l 339 650 q 313 724 325 682 q 299 777 302 766 q 232 650 269 714 l 188 650 m 162 131 q 103 61 103 96 q 112 44 103 50 q 129 33 122 37 q 148 25 136 30 q 169 18 159 21 q 194 11 179 15 q 221 5 210 7 q 250 -1 232 2 q 321 -15 279 -7 q 488 -157 488 -45 q 445 -266 488 -218 q 331 -340 401 -314 q 194 -365 260 -365 q 90 -355 129 -365 q 26 -330 51 -345 q -16 -294 1 -314 q -46 -225 -46 -257 q -39 -174 -46 -193 q -22 -143 -33 -155 q 1 -123 -12 -132 q 26 -110 14 -114 q 74 -99 55 -100 l 82 -128 q 36 -163 51 -133 q 31 -193 31 -175 q 42 -232 31 -210 q 75 -274 54 -255 q 203 -317 123 -317 q 299 -298 253 -317 q 371 -250 344 -280 q 399 -191 399 -220 q 374 -146 399 -162 q 323 -123 350 -130 q 274 -110 297 -116 q 235 -100 252 -104 q 188 -86 218 -95 q 141 -69 158 -77 q 101 -50 123 -62 q 66 -26 78 -38 q 36 33 36 2 q 102 125 36 80 q 128 142 111 131 q 74 195 93 158 q 56 271 56 232 q 67 352 56 311 q 99 431 78 393 q 147 499 120 469 q 283 565 208 565 q 349 553 322 565 q 391 535 376 542 q 463 518 428 518 q 490 535 477 518 l 500 546 l 528 532 q 507 483 521 517 q 486 441 493 449 q 469 432 480 432 q 408 440 452 432 q 411 392 411 415 q 403 333 411 370 q 377 260 395 297 q 336 194 360 223 q 201 126 281 126 q 162 131 183 126 m 205 487 q 193 472 205 487 q 163 410 180 457 q 146 323 146 362 q 155 256 146 284 q 178 210 164 228 q 233 171 207 171 q 281 205 259 171 q 329 388 329 276 q 306 478 329 438 q 257 517 282 517 q 205 487 231 517 z "},"":{"ha":996,"x_min":62,"x_max":912,"o":"m 672 1190 l 671 1201 l 706 1201 l 706 1192 q 568 1040 706 1040 q 444 1103 479 1040 q 427 1169 427 1134 l 428 1201 l 497 1201 l 497 1189 q 521 1125 497 1143 q 581 1109 542 1109 q 646 1131 620 1109 q 672 1190 672 1152 m 127 168 q 110 196 127 168 q 78 288 93 224 q 62 419 62 352 q 77 550 62 487 q 121 672 93 613 q 195 781 150 731 q 295 869 239 832 q 578 949 414 949 q 683 934 616 949 q 783 901 750 920 q 826 876 816 883 q 842 860 837 869 q 850 820 850 848 l 850 806 q 845 690 850 761 l 843 668 l 815 667 q 793 762 810 730 q 761 814 776 794 q 661 881 726 859 q 544 903 597 903 q 438 884 491 903 q 345 834 386 866 q 272 759 304 802 q 218 667 239 716 q 174 480 174 566 q 185 333 174 394 q 217 230 197 273 q 264 151 237 186 q 322 94 292 116 q 385 58 352 72 q 524 31 447 31 q 658 73 601 31 q 722 189 716 115 l 738 388 l 565 388 l 568 432 l 912 432 l 910 388 l 832 388 l 801 -1 l 777 0 q 748 56 767 53 q 727 48 740 57 q 701 32 714 39 q 664 13 688 24 q 618 -5 639 1 q 488 -19 566 -19 q 336 5 410 -19 q 211 70 261 29 q 127 168 161 111 z "},"":{"ha":539,"x_min":-46,"x_max":528,"o":"m 207 740 q 201 785 201 761 q 207 839 201 809 l 256 839 q 254 807 254 818 q 315 722 254 722 q 411 839 375 722 l 435 839 q 434 836 435 839 q 384 703 422 747 q 294 659 346 659 q 207 740 228 659 m 162 131 q 103 61 103 96 q 112 44 103 50 q 129 33 122 37 q 148 25 136 30 q 169 18 159 21 q 194 11 179 15 q 221 5 210 7 q 250 -1 232 2 q 321 -15 279 -7 q 488 -157 488 -45 q 445 -266 488 -218 q 331 -340 401 -314 q 194 -365 260 -365 q 90 -355 129 -365 q 26 -330 51 -345 q -16 -294 1 -314 q -46 -225 -46 -257 q -39 -174 -46 -193 q -22 -143 -33 -155 q 1 -123 -12 -132 q 26 -110 14 -114 q 74 -99 55 -100 l 82 -128 q 36 -163 51 -133 q 31 -193 31 -175 q 42 -232 31 -210 q 75 -274 54 -255 q 203 -317 123 -317 q 299 -298 253 -317 q 371 -250 344 -280 q 399 -191 399 -220 q 374 -146 399 -162 q 323 -123 350 -130 q 274 -110 297 -116 q 235 -100 252 -104 q 188 -86 218 -95 q 141 -69 158 -77 q 101 -50 123 -62 q 66 -26 78 -38 q 36 33 36 2 q 102 125 36 80 q 128 142 111 131 q 74 195 93 158 q 56 271 56 232 q 67 352 56 311 q 99 431 78 393 q 147 499 120 469 q 283 565 208 565 q 349 553 322 565 q 391 535 376 542 q 463 518 428 518 q 490 535 477 518 l 500 546 l 528 532 q 507 483 521 517 q 486 441 493 449 q 469 432 480 432 q 408 440 452 432 q 411 392 411 415 q 403 333 411 370 q 377 260 395 297 q 336 194 360 223 q 201 126 281 126 q 162 131 183 126 m 205 487 q 193 472 205 487 q 163 410 180 457 q 146 323 146 362 q 155 256 146 284 q 178 210 164 228 q 233 171 207 171 q 281 205 259 171 q 329 388 329 276 q 306 478 329 438 q 257 517 282 517 q 205 487 231 517 z "},"":{"ha":996,"x_min":62,"x_max":912,"o":"m 573 1064 q 567 1064 573 1064 q 538 1086 560 1064 q 515 1124 515 1109 q 540 1162 515 1140 q 578 1184 564 1184 q 613 1160 592 1184 q 633 1121 633 1135 q 610 1085 633 1106 q 573 1064 587 1064 m 127 168 q 110 196 127 168 q 78 288 93 224 q 62 419 62 352 q 77 550 62 487 q 121 672 93 613 q 195 781 150 731 q 295 869 239 832 q 578 949 414 949 q 683 934 616 949 q 783 901 750 920 q 826 876 816 883 q 842 860 837 869 q 850 820 850 848 l 850 806 q 845 690 850 761 l 843 668 l 815 667 q 793 762 810 730 q 761 814 776 794 q 661 881 726 859 q 544 903 597 903 q 438 884 491 903 q 345 834 386 866 q 272 759 304 802 q 218 667 239 716 q 174 480 174 566 q 185 333 174 394 q 217 230 197 273 q 264 151 237 186 q 322 94 292 116 q 385 58 352 72 q 524 31 447 31 q 658 73 601 31 q 722 189 716 115 l 738 388 l 565 388 l 568 432 l 912 432 l 910 388 l 832 388 l 801 -1 l 777 0 q 748 56 767 53 q 727 48 740 57 q 701 32 714 39 q 664 13 688 24 q 618 -5 639 1 q 488 -19 566 -19 q 336 5 410 -19 q 211 70 261 29 q 127 168 161 111 z "},"":{"ha":539,"x_min":-46,"x_max":528,"o":"m 297 706 q 291 706 297 706 q 268 728 284 706 q 253 766 253 750 q 271 803 253 783 q 308 824 290 824 q 341 804 327 824 q 356 765 356 784 q 333 725 356 745 q 297 706 311 706 m 162 131 q 103 61 103 96 q 112 44 103 50 q 129 33 122 37 q 148 25 136 30 q 169 18 159 21 q 194 11 179 15 q 221 5 210 7 q 250 -1 232 2 q 321 -15 279 -7 q 488 -157 488 -45 q 445 -266 488 -218 q 331 -340 401 -314 q 194 -365 260 -365 q 90 -355 129 -365 q 26 -330 51 -345 q -16 -294 1 -314 q -46 -225 -46 -257 q -39 -174 -46 -193 q -22 -143 -33 -155 q 1 -123 -12 -132 q 26 -110 14 -114 q 74 -99 55 -100 l 82 -128 q 36 -163 51 -133 q 31 -193 31 -175 q 42 -232 31 -210 q 75 -274 54 -255 q 203 -317 123 -317 q 299 -298 253 -317 q 371 -250 344 -280 q 399 -191 399 -220 q 374 -146 399 -162 q 323 -123 350 -130 q 274 -110 297 -116 q 235 -100 252 -104 q 188 -86 218 -95 q 141 -69 158 -77 q 101 -50 123 -62 q 66 -26 78 -38 q 36 33 36 2 q 102 125 36 80 q 128 142 111 131 q 74 195 93 158 q 56 271 56 232 q 67 352 56 311 q 99 431 78 393 q 147 499 120 469 q 283 565 208 565 q 349 553 322 565 q 391 535 376 542 q 463 518 428 518 q 490 535 477 518 l 500 546 l 528 532 q 507 483 521 517 q 486 441 493 449 q 469 432 480 432 q 408 440 452 432 q 411 392 411 415 q 403 333 411 370 q 377 260 395 297 q 336 194 360 223 q 201 126 281 126 q 162 131 183 126 m 205 487 q 193 472 205 487 q 163 410 180 457 q 146 323 146 362 q 155 256 146 284 q 178 210 164 228 q 233 171 207 171 q 281 205 259 171 q 329 388 329 276 q 306 478 329 438 q 257 517 282 517 q 205 487 231 517 z "},"":{"ha":996,"x_min":62,"x_max":912,"o":"m 382 -279 q 404 -253 382 -274 q 447 -178 447 -215 q 424 -147 447 -156 q 401 -129 401 -138 q 425 -97 401 -119 q 461 -75 449 -75 q 489 -95 474 -75 q 504 -141 504 -115 q 495 -190 504 -166 q 473 -233 486 -215 q 444 -265 459 -251 q 397 -294 413 -294 q 382 -279 382 -294 m 127 168 q 110 196 127 168 q 78 288 93 224 q 62 419 62 352 q 77 550 62 487 q 121 672 93 613 q 195 781 150 731 q 295 869 239 832 q 578 949 414 949 q 683 934 616 949 q 783 901 750 920 q 826 876 816 883 q 842 860 837 869 q 850 820 850 848 l 850 806 q 845 690 850 761 l 843 668 l 815 667 q 793 762 810 730 q 761 814 776 794 q 661 881 726 859 q 544 903 597 903 q 438 884 491 903 q 345 834 386 866 q 272 759 304 802 q 218 667 239 716 q 174 480 174 566 q 185 333 174 394 q 217 230 197 273 q 264 151 237 186 q 322 94 292 116 q 385 58 352 72 q 524 31 447 31 q 658 73 601 31 q 722 189 716 115 l 738 388 l 565 388 l 568 432 l 912 432 l 910 388 l 832 388 l 801 -1 l 777 0 q 748 56 767 53 q 727 48 740 57 q 701 32 714 39 q 664 13 688 24 q 618 -5 639 1 q 488 -19 566 -19 q 336 5 410 -19 q 211 70 261 29 q 127 168 161 111 z "},"":{"ha":539,"x_min":-46,"x_max":528,"o":"m 379 851 q 357 826 379 846 q 314 751 314 788 q 337 720 314 729 q 360 701 360 711 q 337 670 360 691 q 301 649 313 649 q 272 668 288 649 q 257 713 257 687 q 266 763 257 738 q 288 805 275 787 q 317 838 302 823 q 363 867 348 867 q 379 851 379 867 m 162 131 q 103 61 103 96 q 112 44 103 50 q 129 33 122 37 q 148 25 136 30 q 169 18 159 21 q 194 11 179 15 q 221 5 210 7 q 250 -1 232 2 q 321 -15 279 -7 q 488 -157 488 -45 q 445 -266 488 -218 q 331 -340 401 -314 q 194 -365 260 -365 q 90 -355 129 -365 q 26 -330 51 -345 q -16 -294 1 -314 q -46 -225 -46 -257 q -39 -174 -46 -193 q -22 -143 -33 -155 q 1 -123 -12 -132 q 26 -110 14 -114 q 74 -99 55 -100 l 82 -128 q 36 -163 51 -133 q 31 -193 31 -175 q 42 -232 31 -210 q 75 -274 54 -255 q 203 -317 123 -317 q 299 -298 253 -317 q 371 -250 344 -280 q 399 -191 399 -220 q 374 -146 399 -162 q 323 -123 350 -130 q 274 -110 297 -116 q 235 -100 252 -104 q 188 -86 218 -95 q 141 -69 158 -77 q 101 -50 123 -62 q 66 -26 78 -38 q 36 33 36 2 q 102 125 36 80 q 128 142 111 131 q 74 195 93 158 q 56 271 56 232 q 67 352 56 311 q 99 431 78 393 q 147 499 120 469 q 283 565 208 565 q 349 553 322 565 q 391 535 376 542 q 463 518 428 518 q 490 535 477 518 l 500 546 l 528 532 q 507 483 521 517 q 486 441 493 449 q 469 432 480 432 q 408 440 452 432 q 411 392 411 415 q 403 333 411 370 q 377 260 395 297 q 336 194 360 223 q 201 126 281 126 q 162 131 183 126 m 205 487 q 193 472 205 487 q 163 410 180 457 q 146 323 146 362 q 155 256 146 284 q 178 210 164 228 q 233 171 207 171 q 281 205 259 171 q 329 388 329 276 q 306 478 329 438 q 257 517 282 517 q 205 487 231 517 z "},"":{"ha":979,"x_min":28,"x_max":951,"o":"m 512 1136 l 428 1036 l 375 1036 q 486 1201 418 1097 l 568 1201 q 679 1036 617 1123 l 598 1036 q 551 1090 579 1057 q 512 1136 524 1123 m 730 545 l 753 846 q 746 876 753 870 q 703 882 738 882 l 645 882 l 645 926 l 951 926 l 950 882 q 916 882 929 882 q 893 881 902 882 q 880 881 883 881 q 871 879 877 880 q 863 876 865 877 q 858 871 861 874 q 854 864 855 867 q 852 856 853 861 q 849 830 850 849 l 797 114 q 796 86 796 99 q 796 69 796 73 q 798 61 796 65 q 800 56 799 58 q 803 52 800 54 q 808 49 806 50 q 815 47 810 47 q 840 44 828 44 l 861 44 l 911 44 l 911 0 l 578 0 l 581 44 l 637 44 q 684 51 678 44 q 693 65 690 57 q 699 108 697 78 l 726 490 l 251 490 l 227 126 q 225 102 226 114 q 223 83 223 90 q 224 69 223 75 q 227 59 225 63 q 233 52 229 55 q 241 48 237 50 q 253 45 245 46 q 288 44 265 44 l 347 44 l 347 0 l 28 0 l 31 44 l 76 44 q 114 51 109 44 q 121 65 119 57 q 126 108 125 78 l 180 846 q 174 876 180 870 q 131 882 165 882 l 67 882 l 68 926 l 385 926 l 383 882 q 343 882 358 882 q 318 881 327 882 q 306 881 309 881 q 297 879 302 880 q 289 876 291 877 q 285 871 288 874 q 281 864 281 867 q 279 856 281 862 q 277 844 278 849 q 276 830 277 840 l 256 545 l 730 545 z "},"":{"ha":594,"x_min":35,"x_max":574,"o":"m 321 1136 l 236 1036 l 183 1036 q 294 1201 227 1097 l 376 1201 q 488 1036 426 1123 l 407 1036 q 360 1090 388 1057 q 321 1136 332 1123 m 140 904 q 129 929 140 929 q 40 908 115 929 l 35 940 q 141 966 77 952 q 219 981 204 981 q 235 968 235 981 q 222 827 235 956 q 172 264 182 398 q 371 524 286 457 q 424 547 401 547 q 475 403 475 547 q 460 254 475 348 q 446 132 446 160 q 455 104 446 104 q 531 182 474 104 l 553 214 l 574 199 q 475 70 535 129 q 401 0 415 10 q 374 -10 387 -10 q 356 17 356 -10 q 372 200 356 43 q 389 405 389 356 q 369 454 389 454 q 307 410 349 454 q 225 301 266 365 q 174 187 185 237 q 161 81 163 136 l 160 40 q 151 9 160 18 q 114 0 143 0 q 85 21 85 0 q 93 147 85 41 q 106 339 101 253 q 119 538 111 426 q 129 703 126 649 q 136 793 133 756 q 139 845 138 830 q 140 887 140 873 l 140 904 z "},"":{"ha":979,"x_min":28,"x_max":951,"o":"m 744 733 l 753 846 q 746 876 753 870 q 703 882 738 882 l 645 882 l 645 926 l 951 926 l 950 882 q 916 882 929 882 q 893 881 902 882 q 880 881 883 881 q 871 879 877 880 q 863 876 865 877 q 858 871 861 874 q 854 864 855 867 q 852 856 853 861 q 849 830 850 849 l 842 733 l 935 733 l 930 679 l 838 679 l 797 114 q 796 86 796 99 q 796 69 796 73 q 798 61 796 65 q 800 56 799 58 q 803 52 800 54 q 808 49 806 50 q 815 47 810 47 q 840 44 828 44 l 861 44 l 911 44 l 911 0 l 578 0 l 581 44 l 637 44 q 684 51 678 44 q 693 65 690 57 q 699 108 697 78 l 726 490 l 251 490 l 227 126 q 225 102 226 114 q 223 83 223 90 q 224 69 223 75 q 227 59 225 63 q 233 52 229 55 q 241 48 237 50 q 253 45 245 46 q 288 44 265 44 l 347 44 l 347 0 l 28 0 l 31 44 l 76 44 q 114 51 109 44 q 121 65 119 57 q 126 108 125 78 l 168 679 l 64 679 l 68 733 l 172 733 l 180 846 q 174 876 180 870 q 131 882 165 882 l 67 882 l 68 926 l 385 926 l 383 882 q 343 882 358 882 q 318 881 327 882 q 306 881 309 881 q 297 879 302 880 q 289 876 291 877 q 285 871 288 874 q 281 864 281 867 q 279 856 281 862 q 277 844 278 849 q 276 830 277 840 l 270 733 l 744 733 m 256 545 l 730 545 l 740 679 l 265 679 l 256 545 z "},"":{"ha":594,"x_min":35,"x_max":574,"o":"m 140 904 q 129 929 140 929 q 40 908 115 929 l 35 940 q 141 966 77 952 q 219 981 204 981 q 235 964 235 981 q 215 744 235 948 l 415 744 l 411 690 l 210 690 q 172 264 188 462 q 371 524 286 457 q 424 547 401 547 q 475 403 475 547 q 460 254 475 348 q 446 132 446 160 q 455 104 446 104 q 531 182 474 104 l 553 214 l 574 199 q 475 70 535 129 q 401 0 415 10 q 374 -10 387 -10 q 356 17 356 -10 q 372 200 356 43 q 389 405 389 356 q 369 454 389 454 q 307 410 349 454 q 225 301 266 365 q 174 187 185 237 q 161 81 163 136 l 160 40 q 151 9 160 18 q 114 0 143 0 q 85 21 85 0 l 128 690 l 44 690 l 48 744 l 132 744 q 140 877 140 865 l 140 904 z "},"":{"ha":424,"x_min":29,"x_max":422,"o":"m 82 1046 q 84 1054 83 1049 q 89 1074 85 1059 q 99 1103 94 1089 q 113 1134 104 1117 q 132 1163 122 1151 q 186 1192 156 1192 q 247 1175 217 1192 l 289 1153 q 332 1139 316 1139 q 360 1145 349 1139 q 379 1161 372 1152 q 403 1201 395 1180 l 422 1196 q 371 1089 410 1129 q 321 1065 348 1065 q 267 1078 295 1065 l 224 1099 q 174 1112 196 1112 q 140 1105 152 1112 q 122 1087 129 1097 q 101 1040 107 1063 l 82 1046 m 29 0 l 31 44 l 61 44 q 111 51 104 44 q 120 65 117 57 q 128 108 125 77 l 199 828 q 200 856 200 839 q 191 878 200 873 q 150 882 182 882 l 85 882 l 86 926 l 397 926 l 394 882 q 364 882 376 882 q 342 881 352 882 q 329 881 333 881 q 319 879 326 880 q 312 876 313 877 q 306 871 310 874 q 302 864 303 867 q 299 856 301 861 q 297 844 298 850 q 296 830 297 839 l 225 114 q 222 74 222 80 q 223 64 222 69 q 227 55 223 59 q 234 49 230 51 q 248 46 238 47 q 296 44 260 44 l 354 44 l 353 0 l 29 0 z "},"":{"ha":339,"x_min":28,"x_max":346,"o":"m 137 738 q 86 665 102 738 l 71 669 q 111 787 79 739 q 156 815 130 815 q 204 800 182 815 l 239 778 q 276 764 259 764 q 329 825 310 764 l 346 821 q 261 690 319 690 q 219 701 239 690 l 185 724 q 137 738 162 738 m 231 535 l 199 142 q 209 110 199 110 q 284 195 228 110 l 303 223 l 325 205 q 256 99 298 143 q 126 -7 156 -7 q 103 24 103 -7 q 112 120 103 35 q 140 468 140 381 q 124 490 140 490 q 55 471 105 490 l 39 464 l 28 498 q 215 555 188 555 q 231 535 231 555 z "},"":{"ha":424,"x_min":29,"x_max":415,"o":"m 96 1093 l 96 1160 l 415 1160 l 415 1093 l 96 1093 m 29 0 l 31 44 l 61 44 q 111 51 104 44 q 120 65 117 57 q 128 108 125 77 l 199 828 q 200 856 200 839 q 191 878 200 873 q 150 882 182 882 l 85 882 l 86 926 l 397 926 l 394 882 q 364 882 376 882 q 342 881 352 882 q 329 881 333 881 q 319 879 326 880 q 312 876 313 877 q 306 871 310 874 q 302 864 303 867 q 299 856 301 861 q 297 844 298 850 q 296 830 297 839 l 225 114 q 222 74 222 80 q 223 64 222 69 q 227 55 223 59 q 234 49 230 51 q 248 46 238 47 q 296 44 260 44 l 354 44 l 353 0 l 29 0 z "},"":{"ha":339,"x_min":28,"x_max":328,"o":"m 89 725 l 89 790 l 328 790 l 328 725 l 89 725 m 231 535 l 199 142 q 209 110 199 110 q 284 195 228 110 l 303 223 l 325 205 q 256 99 298 143 q 126 -7 156 -7 q 103 24 103 -7 q 112 120 103 35 q 140 468 140 381 q 124 490 140 490 q 55 471 105 490 l 39 464 l 28 498 q 215 555 188 555 q 231 535 231 555 z "},"":{"ha":424,"x_min":29,"x_max":397,"o":"m 354 1190 l 353 1201 l 388 1201 l 388 1192 q 250 1040 388 1040 q 126 1103 161 1040 q 109 1169 109 1134 l 110 1201 l 179 1201 l 179 1189 q 203 1125 179 1143 q 263 1109 224 1109 q 328 1131 302 1109 q 354 1190 354 1152 m 29 0 l 31 44 l 61 44 q 111 51 104 44 q 120 65 117 57 q 128 108 125 77 l 199 828 q 200 856 200 839 q 191 878 200 873 q 150 882 182 882 l 85 882 l 86 926 l 397 926 l 394 882 q 364 882 376 882 q 342 881 352 882 q 329 881 333 881 q 319 879 326 880 q 312 876 313 877 q 306 871 310 874 q 302 864 303 867 q 299 856 301 861 q 297 844 298 850 q 296 830 297 839 l 225 114 q 222 74 222 80 q 223 64 222 69 q 227 55 223 59 q 234 49 230 51 q 248 46 238 47 q 296 44 260 44 l 354 44 l 353 0 l 29 0 z "},"":{"ha":339,"x_min":28,"x_max":335,"o":"m 107 740 q 101 785 101 761 q 107 839 101 809 l 156 839 q 154 807 154 818 q 215 722 154 722 q 311 839 275 722 l 335 839 q 334 836 335 839 q 284 703 322 747 q 194 659 246 659 q 107 740 128 659 m 231 535 l 199 142 q 209 110 199 110 q 284 195 228 110 l 303 223 l 325 205 q 256 99 298 143 q 126 -7 156 -7 q 103 24 103 -7 q 112 120 103 35 q 140 468 140 381 q 124 490 140 490 q 55 471 105 490 l 39 464 l 28 498 q 215 555 188 555 q 231 535 231 555 z "},"":{"ha":424,"x_min":29,"x_max":397,"o":"m 166 -270 q 171 -276 166 -270 q 196 -291 177 -282 q 247 -299 215 -299 q 313 -271 279 -299 l 325 -290 q 270 -341 306 -321 q 202 -361 235 -361 q 149 -356 170 -361 q 110 -341 129 -352 q 77 -315 91 -330 q 46 -223 46 -280 q 66 -131 46 -169 q 157 0 96 -76 l 29 0 l 31 44 l 61 44 q 111 51 104 44 q 120 65 117 57 q 128 108 125 77 l 199 828 q 200 856 200 839 q 191 878 200 873 q 150 882 182 882 l 85 882 l 86 926 l 397 926 l 394 882 q 364 882 376 882 q 342 881 352 882 q 329 881 333 881 q 319 879 326 880 q 312 876 313 877 q 306 871 310 874 q 302 864 303 867 q 299 856 301 861 q 297 844 298 850 q 296 830 297 839 l 225 114 q 222 74 222 80 q 223 64 222 69 q 227 55 223 59 q 234 49 230 51 q 248 46 238 47 q 296 44 260 44 l 354 44 l 353 0 l 197 0 q 148 -86 163 -49 q 133 -155 133 -123 q 136 -204 133 -187 q 146 -239 139 -222 q 166 -270 154 -257 z "},"":{"ha":339,"x_min":28,"x_max":325,"o":"m 184 -291 q 235 -299 202 -299 q 300 -271 267 -299 l 313 -290 q 258 -341 294 -320 q 190 -361 222 -361 q 136 -356 157 -361 q 97 -341 116 -352 q 64 -315 78 -330 q 33 -223 33 -280 q 97 -77 33 -167 q 138 -21 121 -43 q 162 13 155 2 q 126 -7 139 -7 q 103 24 103 -7 q 112 120 103 35 q 140 468 140 381 q 124 490 140 490 q 55 471 105 490 l 39 464 l 28 498 q 215 555 188 555 q 231 535 231 555 l 199 142 q 209 110 199 110 q 284 195 228 110 l 303 223 l 325 205 q 304 166 319 190 q 262 105 289 141 q 213 39 235 70 q 169 -27 191 9 q 121 -168 121 -105 q 184 -291 121 -263 z "},"":{"ha":424,"x_min":29,"x_max":397,"o":"m 255 1064 q 248 1064 255 1064 q 220 1086 242 1064 q 197 1124 197 1109 q 222 1162 197 1140 q 260 1184 246 1184 q 295 1160 274 1184 q 315 1121 315 1135 q 292 1085 315 1106 q 255 1064 269 1064 m 29 0 l 31 44 l 61 44 q 111 51 104 44 q 120 65 117 57 q 128 108 125 77 l 199 828 q 200 856 200 839 q 191 878 200 873 q 150 882 182 882 l 85 882 l 86 926 l 397 926 l 394 882 q 364 882 376 882 q 342 881 352 882 q 329 881 333 881 q 319 879 326 880 q 312 876 313 877 q 306 871 310 874 q 302 864 303 867 q 299 856 301 861 q 297 844 298 850 q 296 830 297 839 l 225 114 q 222 74 222 80 q 223 64 222 69 q 227 55 223 59 q 234 49 230 51 q 248 46 238 47 q 296 44 260 44 l 354 44 l 353 0 l 29 0 z "},"":{"ha":339,"x_min":28,"x_max":325,"o":"m 231 535 l 199 142 q 209 110 199 110 q 284 195 228 110 l 303 223 l 325 205 q 256 99 298 143 q 126 -7 156 -7 q 103 24 103 -7 q 112 120 103 35 q 140 468 140 381 q 124 490 140 490 q 55 471 105 490 l 39 464 l 28 498 q 215 555 188 555 q 231 535 231 555 z "},"":{"ha":861,"x_min":29,"x_max":832,"o":"m 392 -365 q 362 -365 392 -365 q 298 -339 331 -365 q 265 -272 265 -313 q 285 -209 265 -232 q 329 -186 306 -186 q 348 -191 342 -186 q 355 -196 353 -195 q 359 -202 357 -198 q 363 -208 362 -206 q 366 -214 364 -209 q 369 -221 369 -219 q 372 -229 370 -222 q 382 -252 374 -235 q 440 -299 402 -299 q 504 -265 479 -299 q 519 -235 514 -252 q 539 -111 523 -217 q 565 114 555 -5 l 633 828 q 635 858 635 842 q 626 878 635 873 q 585 882 616 882 l 482 882 l 482 926 l 832 926 l 832 882 l 785 882 q 745 877 750 882 q 736 865 739 871 q 730 830 732 856 l 640 -113 q 620 -213 633 -189 q 591 -256 606 -237 q 555 -296 576 -275 q 509 -331 533 -316 q 392 -365 454 -365 m 29 0 l 31 44 l 61 44 q 111 51 104 44 q 120 65 117 57 q 128 108 125 77 l 199 828 q 200 856 200 839 q 191 878 200 873 q 150 882 182 882 l 85 882 l 86 926 l 397 926 l 394 882 q 364 882 376 882 q 342 881 352 882 q 329 881 333 881 q 319 879 326 880 q 312 876 313 877 q 306 871 310 874 q 302 864 303 867 q 299 856 301 861 q 297 844 298 850 q 296 830 297 839 l 225 114 q 222 74 222 80 q 223 64 222 69 q 227 55 223 59 q 234 49 230 51 q 248 46 238 47 q 296 44 260 44 l 354 44 l 353 0 l 29 0 z "},"":{"ha":668,"x_min":28,"x_max":626,"o":"m 571 558 q 585 535 585 558 q 578 455 585 529 q 552 114 558 222 q 495 -264 534 -193 q 374 -354 456 -335 q 331 -358 353 -358 q 281 -348 309 -358 q 235 -319 253 -338 q 217 -276 217 -300 q 230 -232 217 -252 q 261 -213 243 -213 q 287 -223 278 -213 q 301 -247 296 -233 q 313 -275 307 -261 q 362 -310 328 -310 q 430 -216 407 -310 q 468 139 448 -145 q 489 456 489 423 q 476 489 489 489 q 379 455 463 489 l 367 492 q 571 558 534 558 m 568 810 q 561 810 568 810 q 539 832 554 810 q 524 871 524 854 q 542 907 524 887 q 579 928 561 928 q 612 908 597 928 q 626 869 626 888 q 604 830 626 849 q 568 810 582 810 m 231 535 l 199 142 q 209 110 199 110 q 284 195 228 110 l 303 223 l 325 205 q 256 99 298 143 q 126 -7 156 -7 q 103 24 103 -7 q 112 120 103 35 q 140 468 140 381 q 124 490 140 490 q 55 471 105 490 l 39 464 l 28 498 q 215 555 188 555 q 231 535 231 555 m 239 810 q 232 810 239 810 q 210 832 225 810 q 195 871 195 854 q 213 907 195 887 q 250 928 232 928 q 283 908 268 928 q 297 869 297 888 q 275 830 297 849 q 239 810 253 810 z "},"":{"ha":451,"x_min":-144,"x_max":422,"o":"m 250 1142 l 165 1042 l 112 1042 q 223 1207 156 1103 l 306 1207 q 417 1042 355 1129 l 336 1042 q 289 1096 317 1063 q 250 1142 261 1128 m -17 -365 q -48 -365 -17 -365 q -111 -339 -78 -365 q -144 -272 -144 -313 q -124 -209 -144 -232 q -81 -186 -104 -186 q -62 -191 -67 -186 q -55 -196 -57 -195 q -50 -202 -53 -198 q -47 -208 -48 -206 q -43 -214 -45 -209 q -40 -221 -41 -219 q -37 -229 -40 -222 q -28 -252 -35 -235 q 31 -299 -7 -299 q 95 -265 70 -299 q 109 -235 104 -252 q 130 -111 114 -217 q 156 114 145 -5 l 223 828 q 225 858 225 842 q 216 878 225 873 q 175 882 207 882 l 72 882 l 72 926 l 422 926 l 422 882 l 375 882 q 335 877 341 882 q 327 865 330 871 q 321 830 323 856 l 231 -113 q 210 -213 223 -189 q 182 -256 196 -237 q 145 -296 167 -275 q 99 -331 123 -316 q -17 -365 44 -365 z "},"":{"ha":343,"x_min":-108,"x_max":308,"o":"m 92 650 q 190 844 160 772 l 239 844 q 308 650 266 751 l 243 650 q 218 724 229 682 q 203 777 206 766 q 136 650 173 714 l 92 650 m 246 558 q 260 535 260 558 q 253 455 260 529 q 227 114 233 222 q 170 -264 210 -194 q 50 -354 131 -335 q 6 -358 28 -358 q -44 -348 -16 -358 q -90 -319 -72 -338 q -108 -276 -108 -300 q -95 -232 -108 -252 q -64 -213 -81 -213 q -38 -223 -46 -213 q -23 -247 -29 -233 q -12 -275 -18 -261 q 38 -310 3 -310 q 105 -216 82 -310 q 143 139 123 -145 q 164 456 164 423 q 151 489 164 489 q 54 455 138 489 l 42 492 q 246 558 209 558 z "},"":{"ha":1017,"x_min":31,"x_max":1010,"o":"m 422 -306 q 445 -280 422 -300 q 488 -204 488 -241 q 465 -174 488 -183 q 441 -155 441 -164 q 465 -123 441 -145 q 502 -101 489 -101 q 529 -122 514 -101 q 545 -167 545 -142 q 536 -217 545 -193 q 513 -259 527 -241 q 485 -292 500 -277 q 438 -321 453 -321 q 422 -306 422 -321 m 31 0 l 31 44 l 61 44 q 111 51 104 44 q 120 65 117 57 q 126 108 124 77 l 185 828 q 186 856 186 839 q 177 878 186 873 q 136 882 168 882 l 85 882 l 85 926 l 385 926 l 383 882 q 351 882 363 882 q 328 881 338 882 q 315 881 318 881 q 305 879 311 880 q 297 876 299 877 q 292 871 295 874 q 288 864 288 868 q 285 856 287 861 q 282 830 283 849 l 250 436 l 738 825 q 756 840 746 832 q 772 852 767 848 q 779 858 777 856 q 785 864 782 861 q 789 872 789 868 q 750 882 789 882 l 707 882 l 707 926 l 1010 926 l 1007 882 l 949 882 q 900 874 917 882 q 867 855 882 865 q 782 792 835 833 l 433 522 q 873 44 780 44 l 950 44 l 947 0 l 708 0 q 357 465 556 180 l 246 380 l 223 114 q 222 84 222 99 q 223 64 222 69 q 227 55 223 59 q 234 49 230 51 q 248 46 238 47 q 296 44 260 44 l 354 44 l 354 0 l 31 0 z "},"":{"ha":564,"x_min":35,"x_max":550,"o":"m 192 -303 q 214 -277 192 -297 q 257 -201 257 -238 q 234 -171 257 -180 q 211 -152 211 -162 q 235 -121 211 -143 q 271 -99 259 -99 q 299 -119 284 -99 q 314 -164 314 -139 q 305 -214 314 -190 q 283 -257 296 -238 q 254 -289 269 -275 q 207 -318 223 -318 q 192 -303 192 -318 m 132 930 l 42 910 l 35 942 q 142 966 74 952 q 228 979 211 979 q 244 965 244 979 q 192 419 244 939 l 175 247 q 395 442 345 356 q 408 482 408 465 q 374 506 408 506 l 346 506 l 307 504 l 310 535 q 428 540 371 540 q 499 538 485 540 q 519 526 519 535 q 439 411 519 494 q 326 314 388 359 l 306 300 q 393 125 346 196 q 437 82 421 82 q 505 162 465 82 l 518 189 l 550 171 q 439 7 499 63 q 405 -11 420 -11 q 368 16 391 -11 q 323 83 345 44 q 251 228 276 168 l 239 256 l 172 210 q 162 76 164 111 l 161 36 q 153 6 161 14 q 110 -3 144 -3 q 76 17 76 -3 q 87 133 76 20 q 147 912 122 500 l 147 914 q 132 930 147 930 z "},"":{"ha":740,"x_min":28,"x_max":699,"o":"m 201 1009 l 274 1207 l 371 1207 l 252 1009 l 201 1009 m 699 197 l 643 0 l 28 0 l 29 44 l 70 44 q 115 51 106 44 q 126 86 124 57 q 180 860 180 849 q 126 882 180 882 l 58 882 l 61 926 l 388 926 l 388 882 l 323 882 q 284 872 290 882 q 276 843 277 860 q 250 458 275 825 q 225 79 225 92 q 288 54 225 54 q 470 64 350 54 q 605 80 589 74 q 628 100 622 85 q 647 154 635 114 q 663 207 659 194 l 699 197 z "},"":{"ha":318,"x_min":21,"x_max":313,"o":"m 143 1010 l 215 1207 l 313 1207 l 203 1025 l 143 1010 m 136 908 q 116 928 136 928 q 29 906 96 928 l 21 943 q 209 989 178 989 q 240 967 240 989 q 237 930 240 963 q 196 431 215 716 q 176 140 176 146 q 188 110 176 110 q 223 140 202 110 q 275 218 258 189 l 282 231 l 313 208 q 199 47 264 116 q 150 2 172 19 q 108 -14 127 -14 q 86 28 86 -14 l 136 908 z "},"":{"ha":740,"x_min":28,"x_max":699,"o":"m 265 -260 q 288 -234 265 -254 q 331 -158 331 -195 q 308 -128 331 -137 q 284 -109 284 -119 q 308 -78 284 -100 q 345 -56 332 -56 q 372 -76 357 -56 q 388 -121 388 -96 q 379 -171 388 -147 q 356 -213 370 -195 q 328 -246 343 -232 q 281 -275 296 -275 q 265 -260 265 -275 m 699 197 l 643 0 l 28 0 l 29 44 l 70 44 q 115 51 106 44 q 126 86 124 57 q 180 860 180 849 q 126 882 180 882 l 58 882 l 61 926 l 388 926 l 388 882 l 323 882 q 284 872 290 882 q 276 843 277 860 q 250 458 275 825 q 225 79 225 92 q 288 54 225 54 q 470 64 350 54 q 605 80 589 74 q 628 100 622 85 q 647 154 635 114 q 663 207 659 194 l 699 197 z "},"":{"ha":318,"x_min":21,"x_max":313,"o":"m 58 -303 q 81 -277 58 -297 q 124 -201 124 -238 q 101 -171 124 -180 q 78 -152 78 -162 q 102 -121 78 -143 q 138 -99 125 -99 q 166 -119 151 -99 q 181 -164 181 -139 q 172 -214 181 -190 q 149 -257 163 -238 q 121 -289 136 -275 q 74 -318 90 -318 q 58 -303 58 -318 m 136 908 q 116 928 136 928 q 29 906 96 928 l 21 943 q 209 989 178 989 q 240 967 240 989 q 237 930 240 963 q 196 431 215 716 q 176 140 176 146 q 188 110 176 110 q 223 140 202 110 q 275 218 258 189 l 282 231 l 313 208 q 199 47 264 116 q 150 2 172 19 q 108 -14 127 -14 q 86 28 86 -14 l 136 908 z "},"":{"ha":740,"x_min":28,"x_max":699,"o":"m 479 718 l 503 925 l 583 917 l 518 711 l 479 718 m 699 197 l 643 0 l 28 0 l 29 44 l 70 44 q 115 51 106 44 q 126 86 124 57 q 180 860 180 849 q 126 882 180 882 l 58 882 l 61 926 l 388 926 l 388 882 l 323 882 q 284 872 290 882 q 276 843 277 860 q 250 458 275 825 q 225 79 225 92 q 288 54 225 54 q 470 64 350 54 q 605 80 589 74 q 628 100 622 85 q 647 154 635 114 q 663 207 659 194 l 699 197 z "},"":{"ha":318,"x_min":21,"x_max":403,"o":"m 299 718 l 322 925 l 403 917 l 338 711 l 299 718 m 136 908 q 116 928 136 928 q 29 906 96 928 l 21 943 q 209 989 178 989 q 240 967 240 989 q 237 930 240 963 q 196 431 215 716 q 176 140 176 146 q 188 110 176 110 q 223 140 202 110 q 275 218 258 189 l 282 231 l 313 208 q 199 47 264 116 q 150 2 172 19 q 108 -14 127 -14 q 86 28 86 -14 l 136 908 z "},"":{"ha":740,"x_min":28,"x_max":699,"o":"m 569 406 q 560 406 569 406 q 536 427 552 406 q 521 465 521 449 q 539 502 521 481 q 576 522 558 522 q 609 502 594 522 q 624 466 624 483 q 612 436 624 450 q 569 406 587 406 m 699 197 l 643 0 l 28 0 l 29 44 l 70 44 q 115 51 106 44 q 126 86 124 57 q 180 860 180 849 q 126 882 180 882 l 58 882 l 61 926 l 388 926 l 388 882 l 323 882 q 284 872 290 882 q 276 843 277 860 q 250 458 275 825 q 225 79 225 92 q 288 54 225 54 q 470 64 350 54 q 605 80 589 74 q 628 100 622 85 q 647 154 635 114 q 663 207 659 194 l 699 197 z "},"":{"ha":576,"x_min":21,"x_max":489,"o":"m 435 406 q 426 406 435 406 q 402 427 417 406 q 386 465 386 449 q 405 502 386 481 q 441 522 423 522 q 474 502 460 522 q 489 466 489 483 q 477 436 489 450 q 435 406 452 406 m 136 908 q 116 928 136 928 q 29 906 96 928 l 21 943 q 209 989 178 989 q 240 967 240 989 q 237 930 240 963 q 196 431 215 716 q 176 140 176 146 q 188 110 176 110 q 223 140 202 110 q 275 218 258 189 l 282 231 l 313 208 q 199 47 264 116 q 150 2 172 19 q 108 -14 127 -14 q 86 28 86 -14 l 136 908 z "},"":{"ha":740,"x_min":28,"x_max":699,"o":"m 699 197 l 643 0 l 28 0 l 29 44 l 70 44 q 115 51 106 44 q 126 86 124 57 l 147 390 l 57 365 l 61 421 l 151 445 l 179 833 q 173 874 183 866 q 126 882 163 882 l 58 882 l 61 926 l 388 926 l 388 882 l 323 882 q 284 872 290 882 q 276 843 277 860 q 275 821 275 825 l 251 472 l 551 554 l 545 493 l 247 417 l 225 96 l 225 87 q 236 61 225 67 q 298 54 246 54 q 470 64 350 54 q 605 80 589 74 q 628 100 622 85 q 647 154 635 114 q 663 207 659 194 l 699 197 z "},"":{"ha":318,"x_min":15,"x_max":313,"o":"m 108 -14 q 86 28 86 -14 q 88 60 86 38 q 92 129 90 83 q 102 301 94 175 q 111 461 110 427 l 15 424 l 18 486 l 114 517 q 136 902 136 876 q 121 928 136 928 q 29 906 96 928 l 21 943 q 209 989 178 989 q 240 967 240 989 q 237 930 240 963 q 218 721 227 827 l 205 549 l 307 589 l 306 528 l 201 493 q 176 139 176 168 q 188 110 176 110 q 223 140 202 110 q 275 218 258 189 l 282 231 l 313 208 q 199 47 264 116 q 150 2 172 19 q 108 -14 127 -14 z "},"":{"ha":1039,"x_min":42,"x_max":1025,"o":"m 519 1009 l 592 1207 l 689 1207 l 570 1009 l 519 1009 m 243 772 q 192 71 192 158 q 221 45 192 46 q 233 44 225 44 l 310 44 l 308 0 l 44 0 l 47 44 l 78 44 q 126 50 120 44 q 134 64 132 56 q 140 104 139 75 l 201 818 q 183 840 194 827 q 169 858 173 853 q 157 869 164 863 q 145 877 149 875 q 131 880 142 878 q 112 882 120 882 l 42 882 l 44 926 l 258 926 l 812 144 l 861 645 q 870 728 864 673 q 882 850 882 830 q 873 876 882 870 q 835 882 864 882 l 767 882 l 768 926 l 1025 926 l 1022 882 l 987 882 q 942 875 948 882 q 935 864 937 867 q 932 854 933 861 q 912 678 925 819 l 844 10 q 837 -21 842 -19 q 826 -24 833 -24 q 815 -20 820 -24 q 797 1 810 -16 l 243 772 z "},"":{"ha":571,"x_min":21,"x_max":550,"o":"m 313 650 l 384 847 l 471 847 l 352 650 l 313 650 m 85 19 q 104 277 96 138 q 113 452 113 417 q 97 488 113 488 q 46 472 87 488 l 33 467 l 21 496 q 66 513 27 498 q 193 554 170 554 q 211 532 211 554 q 206 484 211 524 q 189 264 190 363 q 445 553 352 553 q 478 461 478 553 q 464 286 478 402 q 450 141 450 170 q 461 111 450 111 q 515 186 473 111 q 526 205 522 198 l 550 193 q 493 97 528 144 q 425 20 459 49 q 372 -10 391 -10 q 353 22 353 -10 q 371 190 353 54 q 389 388 389 326 q 367 450 389 450 q 318 411 352 450 q 249 313 285 371 q 200 219 214 254 q 182 163 186 183 q 176 130 177 144 q 174 84 175 116 q 170 33 172 53 q 133 -1 167 -1 l 111 -1 q 91 3 98 -1 q 85 19 84 8 z "},"":{"ha":1039,"x_min":42,"x_max":1025,"o":"m 441 -310 q 464 -284 441 -304 q 507 -208 507 -245 q 484 -178 507 -187 q 461 -159 461 -169 q 485 -127 461 -150 q 521 -105 509 -105 q 549 -126 534 -105 q 564 -171 564 -146 q 555 -221 564 -197 q 533 -263 546 -245 q 504 -296 519 -281 q 457 -325 473 -325 q 441 -310 441 -325 m 243 772 q 192 71 192 158 q 221 45 192 46 q 233 44 225 44 l 310 44 l 308 0 l 44 0 l 47 44 l 78 44 q 126 50 120 44 q 134 64 132 56 q 140 104 139 75 l 201 818 q 183 840 194 827 q 169 858 173 853 q 157 869 164 863 q 145 877 149 875 q 131 880 142 878 q 112 882 120 882 l 42 882 l 44 926 l 258 926 l 812 144 l 861 645 q 870 728 864 673 q 882 850 882 830 q 873 876 882 870 q 835 882 864 882 l 767 882 l 768 926 l 1025 926 l 1022 882 l 987 882 q 942 875 948 882 q 935 864 937 867 q 932 854 933 861 q 912 678 925 819 l 844 10 q 837 -21 842 -19 q 826 -24 833 -24 q 815 -20 820 -24 q 797 1 810 -16 l 243 772 z "},"":{"ha":571,"x_min":21,"x_max":550,"o":"m 196 -310 q 218 -284 196 -304 q 261 -208 261 -245 q 238 -178 261 -187 q 215 -159 215 -169 q 239 -127 215 -150 q 275 -105 263 -105 q 303 -126 288 -105 q 318 -171 318 -146 q 309 -221 318 -197 q 287 -263 300 -245 q 258 -296 273 -281 q 211 -325 227 -325 q 196 -310 196 -325 m 85 19 q 104 277 96 138 q 113 452 113 417 q 97 488 113 488 q 46 472 87 488 l 33 467 l 21 496 q 66 513 27 498 q 193 554 170 554 q 211 532 211 554 q 206 484 211 524 q 189 264 190 363 q 445 553 352 553 q 478 461 478 553 q 464 286 478 402 q 450 141 450 170 q 461 111 450 111 q 515 186 473 111 q 526 205 522 198 l 550 193 q 493 97 528 144 q 425 20 459 49 q 372 -10 391 -10 q 353 22 353 -10 q 371 190 353 54 q 389 388 389 326 q 367 450 389 450 q 318 411 352 450 q 249 313 285 371 q 200 219 214 254 q 182 163 186 183 q 176 130 177 144 q 174 84 175 116 q 170 33 172 53 q 133 -1 167 -1 l 111 -1 q 91 3 98 -1 q 85 19 84 8 z "},"":{"ha":1039,"x_min":42,"x_max":1025,"o":"m 397 1201 l 478 1201 l 564 1101 l 649 1201 l 702 1201 q 590 1036 658 1140 l 508 1036 q 397 1201 456 1119 m 243 772 q 192 71 192 158 q 221 45 192 46 q 233 44 225 44 l 310 44 l 308 0 l 44 0 l 47 44 l 78 44 q 126 50 120 44 q 134 64 132 56 q 140 104 139 75 l 201 818 q 183 840 194 827 q 169 858 173 853 q 157 869 164 863 q 145 877 149 875 q 131 880 142 878 q 112 882 120 882 l 42 882 l 44 926 l 258 926 l 812 144 l 861 645 q 870 728 864 673 q 882 850 882 830 q 873 876 882 870 q 835 882 864 882 l 767 882 l 768 926 l 1025 926 l 1022 882 l 987 882 q 942 875 948 882 q 935 864 937 867 q 932 854 933 861 q 912 678 925 819 l 844 10 q 837 -21 842 -19 q 826 -24 833 -24 q 815 -20 820 -24 q 797 1 810 -16 l 243 772 z "},"":{"ha":571,"x_min":21,"x_max":550,"o":"m 463 844 q 364 650 394 723 l 315 650 q 246 844 288 744 l 311 844 q 337 769 326 809 q 352 718 348 730 q 418 844 382 783 l 463 844 m 85 19 q 104 277 96 138 q 113 452 113 417 q 97 488 113 488 q 46 472 87 488 l 33 467 l 21 496 q 66 513 27 498 q 193 554 170 554 q 211 532 211 554 q 206 484 211 524 q 189 264 190 363 q 445 553 352 553 q 478 461 478 553 q 464 286 478 402 q 450 141 450 170 q 461 111 450 111 q 515 186 473 111 q 526 205 522 198 l 550 193 q 493 97 528 144 q 425 20 459 49 q 372 -10 391 -10 q 353 22 353 -10 q 371 190 353 54 q 389 388 389 326 q 367 450 389 450 q 318 411 352 450 q 249 313 285 371 q 200 219 214 254 q 182 163 186 183 q 176 130 177 144 q 174 84 175 116 q 170 33 172 53 q 133 -1 167 -1 l 111 -1 q 91 3 98 -1 q 85 19 84 8 z "},"":{"ha":908,"x_min":96,"x_max":887,"o":"m 422 19 q 442 277 433 138 q 450 452 450 417 q 435 488 450 488 q 384 472 425 488 l 371 467 l 358 496 q 404 513 364 498 q 530 554 508 554 q 549 532 549 554 q 544 484 549 524 q 526 264 527 363 q 782 553 689 553 q 815 461 815 553 q 801 286 815 402 q 787 141 787 170 q 799 111 787 111 q 853 186 810 111 q 864 205 860 198 l 887 193 q 831 97 865 144 q 762 20 796 49 q 709 -10 729 -10 q 690 22 690 -10 q 708 190 690 54 q 726 388 726 326 q 704 450 726 450 q 656 411 689 450 q 587 313 622 371 q 537 219 551 254 q 519 163 523 183 q 514 130 515 144 q 511 84 513 116 q 508 33 509 53 q 471 -1 505 -1 l 449 -1 q 428 3 436 -1 q 422 19 421 8 m 96 663 q 96 670 96 663 q 112 686 96 677 q 139 705 128 696 q 160 724 150 714 q 182 776 182 748 q 177 816 182 804 q 164 834 172 828 q 147 845 156 840 q 130 852 137 849 q 111 867 111 857 q 117 879 111 868 l 150 928 q 170 944 161 944 q 207 927 179 944 q 241 905 235 910 q 264 845 262 885 l 264 836 q 203 700 264 761 q 149 660 174 671 q 110 650 123 650 q 96 663 96 650 z "},"":{"ha":1011,"x_min":62,"x_max":942,"o":"m 394 1093 l 394 1160 l 714 1160 l 714 1093 l 394 1093 m 62 413 q 78 557 62 487 q 123 686 94 627 q 195 795 152 746 q 291 880 238 845 q 545 953 402 953 q 814 854 709 953 q 942 522 942 734 q 848 198 942 348 q 685 40 787 100 q 446 -22 581 -22 q 117 166 222 -22 q 62 413 62 265 m 176 438 q 193 291 176 360 q 238 175 209 223 q 304 93 266 126 q 476 28 378 28 q 644 83 563 28 q 774 245 723 137 q 828 511 828 356 q 701 846 828 738 q 529 908 626 908 q 361 856 443 908 q 230 699 281 804 q 176 438 176 592 z "},"":{"ha":458,"x_min":28,"x_max":431,"o":"m 186 725 l 186 790 l 425 790 l 425 725 l 186 725 m 28 178 q 136 466 28 343 q 290 557 215 557 q 403 490 365 557 q 431 372 431 442 q 408 233 431 302 q 348 109 385 164 q 265 19 312 54 q 173 -17 217 -17 q 96 10 129 -17 q 28 178 28 65 m 168 430 q 158 411 168 430 q 134 341 148 393 q 121 236 121 289 q 131 137 121 183 q 163 64 142 92 q 212 36 183 36 q 272 83 241 36 q 322 198 303 129 q 340 313 340 267 q 336 389 340 359 q 321 448 331 419 q 294 494 312 476 q 256 512 277 512 q 212 489 235 512 q 168 430 188 467 z "},"":{"ha":1011,"x_min":62,"x_max":942,"o":"m 653 1190 l 651 1201 l 686 1201 l 686 1192 q 548 1040 686 1040 q 425 1103 460 1040 q 407 1169 407 1134 l 408 1201 l 478 1201 l 478 1189 q 501 1125 478 1143 q 562 1109 523 1109 q 627 1131 601 1109 q 653 1190 653 1152 m 62 413 q 78 557 62 487 q 123 686 94 627 q 195 795 152 746 q 291 880 238 845 q 545 953 402 953 q 814 854 709 953 q 942 522 942 734 q 848 198 942 348 q 685 40 787 100 q 446 -22 581 -22 q 117 166 222 -22 q 62 413 62 265 m 176 438 q 193 291 176 360 q 238 175 209 223 q 304 93 266 126 q 476 28 378 28 q 644 83 563 28 q 774 245 723 137 q 828 511 828 356 q 701 846 828 738 q 529 908 626 908 q 361 856 443 908 q 230 699 281 804 q 176 438 176 592 z "},"":{"ha":458,"x_min":28,"x_max":432,"o":"m 204 740 q 199 785 199 761 q 204 839 199 809 l 253 839 q 252 807 252 818 q 312 722 252 722 q 408 839 372 722 l 432 839 q 432 836 432 839 q 381 703 419 747 q 292 659 343 659 q 204 740 225 659 m 28 178 q 136 466 28 343 q 290 557 215 557 q 403 490 365 557 q 431 372 431 442 q 408 233 431 302 q 348 109 385 164 q 265 19 312 54 q 173 -17 217 -17 q 96 10 129 -17 q 28 178 28 65 m 168 430 q 158 411 168 430 q 134 341 148 393 q 121 236 121 289 q 131 137 121 183 q 163 64 142 92 q 212 36 183 36 q 272 83 241 36 q 322 198 303 129 q 340 313 340 267 q 336 389 340 359 q 321 448 331 419 q 294 494 312 476 q 256 512 277 512 q 212 489 235 512 q 168 430 188 467 z "},"":{"ha":1011,"x_min":62,"x_max":942,"o":"m 62 413 q 78 557 62 487 q 123 686 94 627 q 195 795 152 746 q 291 880 238 845 q 545 953 402 953 q 814 854 709 953 q 942 522 942 734 q 848 198 942 348 q 685 40 787 100 q 446 -22 581 -22 q 117 166 222 -22 q 62 413 62 265 m 176 438 q 193 291 176 360 q 238 175 209 223 q 304 93 266 126 q 476 28 378 28 q 644 83 563 28 q 774 245 723 137 q 828 511 828 356 q 701 846 828 738 q 529 908 626 908 q 361 856 443 908 q 230 699 281 804 q 176 438 176 592 z "},"":{"ha":458,"x_min":28,"x_max":492,"o":"m 197 650 l 268 847 l 356 847 l 238 650 l 197 650 m 332 650 l 404 847 l 492 847 l 372 650 l 332 650 m 28 178 q 136 466 28 343 q 290 557 215 557 q 403 490 365 557 q 431 372 431 442 q 408 233 431 302 q 348 109 385 164 q 265 19 312 54 q 173 -17 217 -17 q 96 10 129 -17 q 28 178 28 65 m 168 430 q 158 411 168 430 q 134 341 148 393 q 121 236 121 289 q 131 137 121 183 q 163 64 142 92 q 212 36 183 36 q 272 83 241 36 q 322 198 303 129 q 340 313 340 267 q 336 389 340 359 q 321 448 331 419 q 294 494 312 476 q 256 512 277 512 q 212 489 235 512 q 168 430 188 467 z "},"":{"ha":1321,"x_min":62,"x_max":1251,"o":"m 927 881 l 881 882 q 851 879 858 882 q 843 863 844 876 l 815 553 l 1065 553 q 1102 558 1095 553 q 1113 589 1109 564 l 1119 657 l 1150 655 l 1128 371 l 1095 372 q 1101 475 1101 466 q 1058 498 1101 498 l 810 498 l 778 129 q 775 82 775 93 q 781 67 775 71 q 808 64 788 64 l 829 64 q 1116 69 1083 64 q 1157 76 1148 74 q 1172 84 1165 79 q 1186 104 1181 91 q 1195 132 1191 117 q 1202 159 1199 148 q 1214 211 1211 198 l 1249 204 l 1201 0 l 749 0 q 622 -7 716 0 q 476 -14 528 -14 q 381 -7 425 -14 q 295 16 337 0 q 219 56 254 32 q 155 114 184 80 q 105 192 125 149 q 62 413 62 282 q 195 788 62 641 q 545 939 331 939 l 810 926 l 1251 926 l 1251 758 l 1221 757 l 1219 829 q 1206 861 1219 853 q 1176 871 1194 869 q 1125 876 1159 874 q 927 881 1076 879 m 746 833 q 574 895 746 895 l 551 895 q 351 837 436 895 q 221 678 266 780 q 176 465 176 576 q 193 286 176 355 q 240 170 211 216 q 312 94 270 124 q 503 36 390 36 q 584 43 538 36 q 678 86 675 57 l 740 769 q 743 799 741 775 q 746 833 746 822 z "},"":{"ha":685,"x_min":28,"x_max":664,"o":"m 489 85 q 643 171 557 85 l 664 139 q 484 10 567 47 q 433 -5 450 -5 q 407 -3 416 -5 q 384 7 397 -1 q 361 27 372 15 q 328 111 336 56 q 257 18 299 53 q 172 -17 215 -17 q 96 10 129 -17 q 28 178 28 65 q 136 466 28 343 q 290 557 215 557 q 385 451 365 557 q 389 426 387 441 q 419 474 405 459 q 438 493 433 488 q 451 503 443 497 q 464 512 460 509 q 478 520 469 514 q 499 533 487 526 q 554 553 531 553 q 598 542 576 553 q 637 516 620 531 q 655 492 655 501 q 617 438 655 482 q 517 335 579 394 q 401 235 455 275 q 458 92 401 122 q 489 85 472 85 m 168 430 q 158 411 168 430 q 134 341 148 393 q 121 236 121 289 q 131 137 121 183 q 163 64 142 92 q 212 36 183 36 q 272 83 241 36 q 322 198 303 129 q 340 313 340 267 q 336 389 340 359 q 321 448 331 419 q 294 494 312 476 q 256 512 277 512 q 212 489 235 512 q 168 430 188 467 m 400 265 q 420 284 400 266 q 461 323 439 302 q 507 369 483 345 q 561 435 561 424 q 543 479 561 464 q 507 493 525 493 q 471 478 489 493 q 437 437 453 463 q 400 276 400 376 l 400 265 z "},"":{"ha":886,"x_min":26,"x_max":872,"o":"m 371 1009 l 443 1207 l 541 1207 l 421 1009 l 371 1009 m 222 70 q 253 44 222 44 l 370 44 l 367 0 l 26 0 l 28 44 l 68 44 q 114 51 104 44 q 125 86 123 57 q 166 670 153 484 q 179 860 179 856 q 178 868 179 864 q 174 874 177 871 q 166 879 171 877 q 153 881 162 880 q 107 882 140 882 l 65 882 l 65 926 l 407 926 q 704 775 637 926 q 725 694 725 729 q 723 641 725 659 q 714 603 721 624 q 696 563 707 582 q 665 525 685 544 q 621 490 646 505 q 478 442 564 455 l 722 103 q 774 51 754 58 q 810 44 794 44 l 872 44 l 869 0 l 642 0 q 530 163 579 78 q 439 323 482 247 q 376 433 397 398 l 357 433 q 262 441 305 433 l 247 443 l 223 96 l 222 70 m 250 478 q 348 472 288 472 q 537 518 479 472 q 589 585 570 544 q 608 670 608 626 q 589 752 608 713 q 535 819 571 790 q 322 882 459 882 q 287 879 297 882 q 276 863 277 875 l 250 478 z "},"":{"ha":464,"x_min":14,"x_max":450,"o":"m 254 647 l 325 845 l 413 845 l 293 647 l 254 647 m 121 -1 q 93 17 93 -1 q 128 460 125 365 q 108 490 128 490 q 77 482 97 490 q 41 467 57 474 q 24 460 25 460 l 14 492 q 210 558 169 558 q 227 541 227 558 q 205 359 227 507 l 197 311 q 319 505 251 426 q 389 553 359 553 q 414 533 400 553 q 450 445 450 486 q 432 404 450 404 q 414 413 424 404 q 364 439 384 439 q 319 420 343 439 q 275 370 294 401 q 185 67 197 243 q 182 22 183 35 q 153 -1 180 -1 l 121 -1 z "},"":{"ha":886,"x_min":26,"x_max":872,"o":"m 364 -312 q 386 -287 364 -307 q 429 -211 429 -248 q 406 -180 429 -190 q 383 -162 383 -171 q 407 -130 383 -152 q 444 -108 431 -108 q 471 -128 456 -108 q 486 -174 486 -149 q 477 -224 486 -199 q 455 -266 468 -248 q 426 -298 441 -284 q 379 -328 395 -328 q 364 -312 364 -328 m 222 70 q 253 44 222 44 l 370 44 l 367 0 l 26 0 l 28 44 l 68 44 q 114 51 104 44 q 125 86 123 57 q 166 670 153 484 q 179 860 179 856 q 178 868 179 864 q 174 874 177 871 q 166 879 171 877 q 153 881 162 880 q 107 882 140 882 l 65 882 l 65 926 l 407 926 q 704 775 637 926 q 725 694 725 729 q 723 641 725 659 q 714 603 721 624 q 696 563 707 582 q 665 525 685 544 q 621 490 646 505 q 478 442 564 455 l 722 103 q 774 51 754 58 q 810 44 794 44 l 872 44 l 869 0 l 642 0 q 530 163 579 78 q 439 323 482 247 q 376 433 397 398 l 357 433 q 262 441 305 433 l 247 443 l 223 96 l 222 70 m 250 478 q 348 472 288 472 q 537 518 479 472 q 589 585 570 544 q 608 670 608 626 q 589 752 608 713 q 535 819 571 790 q 322 882 459 882 q 287 879 297 882 q 276 863 277 875 l 250 478 z "},"":{"ha":464,"x_min":14,"x_max":450,"o":"m 53 -310 q 75 -284 53 -304 q 118 -208 118 -245 q 95 -178 118 -187 q 72 -159 72 -169 q 96 -127 72 -150 q 133 -105 120 -105 q 160 -126 145 -105 q 175 -171 175 -146 q 166 -221 175 -197 q 144 -263 157 -245 q 115 -296 131 -281 q 68 -325 84 -325 q 53 -310 53 -325 m 121 -1 q 93 17 93 -1 q 128 460 125 365 q 108 490 128 490 q 77 482 97 490 q 41 467 57 474 q 24 460 25 460 l 14 492 q 210 558 169 558 q 227 541 227 558 q 205 359 227 507 l 197 311 q 319 505 251 426 q 389 553 359 553 q 414 533 400 553 q 450 445 450 486 q 432 404 450 404 q 414 413 424 404 q 364 439 384 439 q 319 420 343 439 q 275 370 294 401 q 185 67 197 243 q 182 22 183 35 q 153 -1 180 -1 l 121 -1 z "},"":{"ha":886,"x_min":26,"x_max":872,"o":"m 249 1201 l 329 1201 l 415 1101 l 500 1201 l 553 1201 q 442 1036 509 1140 l 360 1036 q 249 1201 308 1119 m 222 70 q 253 44 222 44 l 370 44 l 367 0 l 26 0 l 28 44 l 68 44 q 114 51 104 44 q 125 86 123 57 q 166 670 153 484 q 179 860 179 856 q 178 868 179 864 q 174 874 177 871 q 166 879 171 877 q 153 881 162 880 q 107 882 140 882 l 65 882 l 65 926 l 407 926 q 704 775 637 926 q 725 694 725 729 q 723 641 725 659 q 714 603 721 624 q 696 563 707 582 q 665 525 685 544 q 621 490 646 505 q 478 442 564 455 l 722 103 q 774 51 754 58 q 810 44 794 44 l 872 44 l 869 0 l 642 0 q 530 163 579 78 q 439 323 482 247 q 376 433 397 398 l 357 433 q 262 441 305 433 l 247 443 l 223 96 l 222 70 m 250 478 q 348 472 288 472 q 537 518 479 472 q 589 585 570 544 q 608 670 608 626 q 589 752 608 713 q 535 819 571 790 q 322 882 459 882 q 287 879 297 882 q 276 863 277 875 l 250 478 z "},"":{"ha":464,"x_min":14,"x_max":450,"o":"m 404 842 q 306 647 336 720 l 257 647 q 188 842 230 741 l 253 842 q 279 767 268 806 q 293 715 290 727 q 360 842 324 780 l 404 842 m 121 -1 q 93 17 93 -1 q 128 460 125 365 q 108 490 128 490 q 77 482 97 490 q 41 467 57 474 q 24 460 25 460 l 14 492 q 210 558 169 558 q 227 541 227 558 q 205 359 227 507 l 197 311 q 319 505 251 426 q 389 553 359 553 q 414 533 400 553 q 450 445 450 486 q 432 404 450 404 q 414 413 424 404 q 364 439 384 439 q 319 420 343 439 q 275 370 294 401 q 185 67 197 243 q 182 22 183 35 q 153 -1 180 -1 l 121 -1 z "},"":{"ha":650,"x_min":14,"x_max":581,"o":"m 319 1009 l 392 1207 l 489 1207 l 370 1009 l 319 1009 m 53 -56 q 14 243 36 116 l 53 250 l 67 156 q 90 99 72 121 q 159 55 107 78 q 263 33 211 33 q 350 48 315 33 q 408 89 385 63 q 455 217 455 141 q 348 396 455 309 q 286 447 310 427 l 218 506 q 108 663 136 575 q 97 734 97 696 q 116 811 97 772 q 169 880 136 851 q 351 946 242 946 q 456 931 408 946 q 512 917 505 917 q 528 944 528 917 l 528 954 l 565 954 l 581 738 l 542 735 l 536 810 q 411 884 489 862 q 341 893 379 893 q 269 879 303 893 q 215 834 235 864 q 194 775 194 804 q 197 732 194 746 q 203 705 199 718 q 214 680 207 693 q 228 657 222 667 q 245 634 234 647 q 264 613 257 621 q 286 592 271 606 q 308 572 301 579 q 333 551 316 566 q 357 531 350 537 l 406 489 q 443 458 416 482 q 489 410 469 434 q 522 365 509 387 q 554 250 554 310 q 501 97 554 170 q 261 -15 419 -15 q 175 -8 201 -15 q 111 5 126 5 q 93 2 96 5 q 89 -11 89 -1 l 92 -54 l 53 -56 z "},"":{"ha":439,"x_min":35,"x_max":414,"o":"m 256 650 l 327 847 l 414 847 l 295 650 l 256 650 m 171 -10 q 89 0 123 -10 q 45 23 56 10 q 35 71 35 37 q 68 140 35 140 q 99 114 86 140 q 154 46 124 61 q 190 39 170 39 q 267 68 236 39 q 299 140 299 98 q 262 222 299 181 q 227 259 247 240 q 188 296 208 277 q 153 336 169 316 q 117 427 117 381 q 142 500 117 472 q 288 554 189 554 q 380 522 348 554 q 397 489 397 505 q 390 462 397 472 q 370 451 383 451 q 343 458 357 451 q 319 473 329 464 q 297 492 308 483 q 246 514 272 514 q 204 500 220 514 q 189 468 189 487 q 200 429 189 449 q 227 391 210 409 q 265 352 244 372 q 306 310 286 332 q 343 266 327 289 q 382 174 382 216 q 365 100 382 132 q 321 45 349 69 q 171 -10 258 -10 z "},"":{"ha":650,"x_min":14,"x_max":581,"o":"m 347 1136 l 262 1036 l 210 1036 q 321 1201 253 1097 l 403 1201 q 514 1036 452 1123 l 433 1036 q 386 1090 414 1057 q 347 1136 358 1123 m 53 -56 q 14 243 36 116 l 53 250 l 67 156 q 90 99 72 121 q 159 55 107 78 q 263 33 211 33 q 350 48 315 33 q 408 89 385 63 q 455 217 455 141 q 348 396 455 309 q 286 447 310 427 l 218 506 q 108 663 136 575 q 97 734 97 696 q 116 811 97 772 q 169 880 136 851 q 351 946 242 946 q 456 931 408 946 q 512 917 505 917 q 528 944 528 917 l 528 954 l 565 954 l 581 738 l 542 735 l 536 810 q 411 884 489 862 q 341 893 379 893 q 269 879 303 893 q 215 834 235 864 q 194 775 194 804 q 197 732 194 746 q 203 705 199 718 q 214 680 207 693 q 228 657 222 667 q 245 634 234 647 q 264 613 257 621 q 286 592 271 606 q 308 572 301 579 q 333 551 316 566 q 357 531 350 537 l 406 489 q 443 458 416 482 q 489 410 469 434 q 522 365 509 387 q 554 250 554 310 q 501 97 554 170 q 261 -15 419 -15 q 175 -8 201 -15 q 111 5 126 5 q 93 2 96 5 q 89 -11 89 -1 l 92 -54 l 53 -56 z "},"":{"ha":439,"x_min":35,"x_max":397,"o":"m 171 650 q 270 844 239 772 l 318 844 q 388 650 346 751 l 322 650 q 297 724 309 682 q 282 777 285 766 q 215 650 252 714 l 171 650 m 171 -10 q 89 0 123 -10 q 45 23 56 10 q 35 71 35 37 q 68 140 35 140 q 99 114 86 140 q 154 46 124 61 q 190 39 170 39 q 267 68 236 39 q 299 140 299 98 q 262 222 299 181 q 227 259 247 240 q 188 296 208 277 q 153 336 169 316 q 117 427 117 381 q 142 500 117 472 q 288 554 189 554 q 380 522 348 554 q 397 489 397 505 q 390 462 397 472 q 370 451 383 451 q 343 458 357 451 q 319 473 329 464 q 297 492 308 483 q 246 514 272 514 q 204 500 220 514 q 189 468 189 487 q 200 429 189 449 q 227 391 210 409 q 265 352 244 372 q 306 310 286 332 q 343 266 327 289 q 382 174 382 216 q 365 100 382 132 q 321 45 349 69 q 171 -10 258 -10 z "},"":{"ha":650,"x_min":14,"x_max":581,"o":"m 53 -56 q 14 243 36 116 l 53 250 l 67 156 q 90 99 72 121 q 159 55 107 78 q 263 33 211 33 q 350 48 315 33 q 408 89 385 63 q 455 217 455 141 q 348 396 455 309 q 286 447 310 427 l 218 506 q 108 663 136 575 q 97 734 97 696 q 116 811 97 772 q 169 880 136 851 q 351 946 242 946 q 456 931 408 946 q 512 917 505 917 q 528 944 528 917 l 528 954 l 565 954 l 581 738 l 542 735 l 536 810 q 411 884 489 862 q 341 893 379 893 q 269 879 303 893 q 215 834 235 864 q 194 775 194 804 q 197 732 194 746 q 203 705 199 718 q 214 680 207 693 q 228 657 222 667 q 245 634 234 647 q 264 613 257 621 q 286 592 271 606 q 308 572 301 579 q 333 551 316 566 q 357 531 350 537 l 406 489 q 443 458 416 482 q 489 410 469 434 q 522 365 509 387 q 554 264 554 310 q 544 184 554 217 q 514 117 534 150 q 464 58 493 84 q 301 -13 400 -1 l 275 -92 l 297 -90 q 383 -106 353 -90 q 437 -188 437 -135 q 372 -287 437 -255 q 298 -306 335 -306 q 208 -288 236 -306 l 237 -254 q 302 -268 275 -268 q 348 -248 330 -268 q 367 -202 367 -228 q 359 -164 367 -176 q 337 -144 351 -151 q 286 -132 311 -132 q 250 -133 260 -132 l 236 -110 l 271 -15 l 261 -15 q 175 -8 201 -15 q 111 5 126 5 q 93 2 96 5 q 89 -11 89 -1 l 92 -54 l 53 -56 z "},"":{"ha":439,"x_min":35,"x_max":397,"o":"m 176 -92 l 199 -90 q 284 -106 254 -90 q 339 -188 339 -135 q 273 -287 339 -255 q 200 -306 236 -306 q 110 -288 138 -306 l 139 -254 q 204 -268 176 -268 q 250 -248 231 -268 q 268 -202 268 -228 q 260 -164 268 -176 q 239 -144 252 -151 q 187 -132 213 -132 q 151 -133 161 -132 l 138 -110 l 175 -10 l 171 -10 q 89 0 123 -10 q 45 23 56 10 q 35 71 35 37 q 68 140 35 140 q 99 114 86 140 q 154 46 124 61 q 190 39 170 39 q 267 68 236 39 q 299 140 299 98 q 262 222 299 181 q 227 259 247 240 q 188 296 208 277 q 153 336 169 316 q 117 427 117 381 q 142 500 117 472 q 288 554 189 554 q 380 522 348 554 q 397 489 397 505 q 390 462 397 472 q 370 451 383 451 q 343 458 357 451 q 319 473 329 464 q 297 492 308 483 q 246 514 272 514 q 204 500 220 514 q 189 468 189 487 q 200 429 189 449 q 227 391 210 409 q 265 352 244 372 q 306 310 286 332 q 343 266 327 289 q 382 170 382 216 q 359 89 382 125 q 296 27 336 53 q 205 -7 255 1 l 176 -92 z "},"":{"ha":650,"x_min":14,"x_max":581,"o":"m 197 1201 l 278 1201 l 364 1101 l 449 1201 l 502 1201 q 390 1036 458 1140 l 308 1036 q 197 1201 256 1119 m 53 -56 q 14 243 36 116 l 53 250 l 67 156 q 90 99 72 121 q 159 55 107 78 q 263 33 211 33 q 350 48 315 33 q 408 89 385 63 q 455 217 455 141 q 348 396 455 309 q 286 447 310 427 l 218 506 q 108 663 136 575 q 97 734 97 696 q 116 811 97 772 q 169 880 136 851 q 351 946 242 946 q 456 931 408 946 q 512 917 505 917 q 528 944 528 917 l 528 954 l 565 954 l 581 738 l 542 735 l 536 810 q 411 884 489 862 q 341 893 379 893 q 269 879 303 893 q 215 834 235 864 q 194 775 194 804 q 197 732 194 746 q 203 705 199 718 q 214 680 207 693 q 228 657 222 667 q 245 634 234 647 q 264 613 257 621 q 286 592 271 606 q 308 572 301 579 q 333 551 316 566 q 357 531 350 537 l 406 489 q 443 458 416 482 q 489 410 469 434 q 522 365 509 387 q 554 250 554 310 q 501 97 554 170 q 261 -15 419 -15 q 175 -8 201 -15 q 111 5 126 5 q 93 2 96 5 q 89 -11 89 -1 l 92 -54 l 53 -56 z "}}}
